<?xml version="1.0" encoding="utf-8"?>
<!-- Generator: Adobe Illustrator 18.0.0, SVG Export Plug-In . SVG Version: 6.00 Build 0)  -->
<!DOCTYPE svg PUBLIC "-//W3C//DTD SVG 1.1//EN" "http://www.w3.org/Graphics/SVG/1.1/DTD/svg11.dtd">
<svg version="1.1" xmlns="http://www.w3.org/2000/svg" xmlns:xlink="http://www.w3.org/1999/xlink" x="0px" y="0px"
	 viewBox="0 0 300 200" enable-background="new 0 0 300 200" xml:space="preserve">
<g id="Mark">
	<path opacity="0.95" fill="#FFFFFF" d="M149,9.2c-27.6,0-50,22.4-50,50c0,27.6,22.4,50,50,50c27.6,0,50-22.4,50-50
		C199,31.6,176.6,9.2,149,9.2z M104,59.2c0-6.5,1.4-12.7,3.9-18.3l21.4,58.8C114.4,92.4,104,77,104,59.2z M149,104.2
		c-4.4,0-8.7-0.6-12.7-1.8l13.5-39.2l13.8,37.9c0.1,0.2,0.2,0.4,0.3,0.6C159.3,103.3,154.2,104.2,149,104.2z M155.2,38.1
		c2.7-0.1,5.1-0.4,5.1-0.4c2.4-0.3,2.1-3.8-0.3-3.7c0,0-7.3,0.6-12,0.6c-4.4,0-11.8-0.6-11.8-0.6c-2.4-0.1-2.7,3.6-0.3,3.7
		c0,0,2.3,0.3,4.7,0.4l7,19.2l-9.8,29.5l-16.4-48.7c2.7-0.1,5.1-0.4,5.1-0.4c2.4-0.3,2.1-3.8-0.3-3.7c0,0-7.3,0.6-12,0.6
		c-0.8,0-1.8,0-2.9-0.1c8-12.2,21.9-20.3,37.6-20.3c11.7,0,22.4,4.5,30.4,11.8c-0.2,0-0.4,0-0.6,0c-4.4,0-7.5,3.8-7.5,8
		c0,3.7,2.1,6.8,4.4,10.5c1.7,3,3.7,6.8,3.7,12.4c0,3.8-1.1,8.7-3.4,14.5l-4.5,15L155.2,38.1z M171.6,98.1l13.7-39.7
		c2.6-6.4,3.4-11.5,3.4-16.1c0-1.7-0.1-3.2-0.3-4.6C192,44,194,51.4,194,59.2C194,75.8,185,90.3,171.6,98.1z"/>
</g>
<g id="WordPress.com">
	<g opacity="0.95">
		<path fill="#FFFFFF" d="M31.2,158.6h-3.6l-6.3-20.9c-0.3-0.9-0.6-2.1-1-3.5c-0.4-1.4-0.6-2.3-0.6-2.5c-0.3,1.9-0.8,3.9-1.5,6.2
			l-6.1,20.8H8.6l-8.3-31.2h3.8l4.9,19.3c0.7,2.7,1.2,5.1,1.5,7.3c0.4-2.6,1-5.1,1.7-7.6l5.6-19h3.8l5.9,19.1
			c0.7,2.2,1.3,4.7,1.7,7.5c0.3-2,0.8-4.5,1.5-7.4l4.9-19.2h3.8L31.2,158.6z"/>
		<path fill="#FFFFFF" d="M60.6,146.9c0,3.8-1,6.8-2.9,8.9c-1.9,2.1-4.6,3.2-8,3.2c-2.1,0-3.9-0.5-5.6-1.5c-1.6-1-2.9-2.4-3.8-4.2
			c-0.9-1.8-1.3-4-1.3-6.4c0-3.8,1-6.8,2.9-8.9c1.9-2.1,4.5-3.2,7.9-3.2c3.3,0,5.9,1.1,7.8,3.3C59.7,140.2,60.6,143.2,60.6,146.9z
			 M42.8,146.9c0,3,0.6,5.3,1.8,6.8c1.2,1.6,3,2.3,5.3,2.3c2.3,0,4.1-0.8,5.3-2.3c1.2-1.6,1.8-3.8,1.8-6.8c0-3-0.6-5.2-1.8-6.8
			c-1.2-1.5-3-2.3-5.3-2.3c-2.3,0-4.1,0.8-5.2,2.3C43.4,141.6,42.8,143.9,42.8,146.9z"/>
		<path fill="#FFFFFF" d="M75.7,134.8c1,0,2,0.1,2.8,0.3l-0.5,3.3c-1-0.2-1.8-0.3-2.6-0.3c-1.9,0-3.5,0.8-4.9,2.3
			c-1.3,1.5-2,3.4-2,5.7v12.5h-3.5v-23.4H68l0.4,4.3h0.2c0.9-1.5,1.9-2.7,3.1-3.5C72.9,135.2,74.3,134.8,75.7,134.8z"/>
		<path fill="#FFFFFF" d="M96.2,155.5H96c-1.6,2.4-4.1,3.6-7.3,3.6c-3.1,0-5.4-1-7.1-3.1c-1.7-2.1-2.5-5.1-2.5-8.9
			c0-3.9,0.9-6.8,2.6-9c1.7-2.1,4.1-3.2,7.1-3.2c3.2,0,5.6,1.2,7.3,3.5h0.3l-0.1-1.7l-0.1-1.6l0-10.7h3.5l0,34.3h-2.9L96.2,155.5z
			 M89.1,156.1c2.4,0,4.2-0.7,5.3-2c1.1-1.3,1.6-3.4,1.6-6.4V147c0-3.3-0.6-5.7-1.7-7.1c-1.1-1.4-2.9-2.1-5.3-2.1
			c-2.1,0-3.7,0.8-4.8,2.4c-1.1,1.6-1.7,3.9-1.7,6.8c0,3,0.5,5.2,1.6,6.8C85.4,155.3,87,156.1,89.1,156.1z"/>
		<path fill="#FFFFFF" d="M127.8,136.5c0,3.2-1.1,5.6-3.2,7.3c-2.2,1.7-5.2,2.5-9.2,2.5h-3.7v12.3H108v-31.2h8.1
			C123.9,127.4,127.8,130.4,127.8,136.5z M111.6,143.2h3.3c3.2,0,5.5-0.5,7-1.6c1.4-1,2.2-2.7,2.2-5c0-2.1-0.7-3.6-2-4.6
			c-1.4-1-3.5-1.5-6.3-1.5h-4.1V143.2z"/>
		<path fill="#FFFFFF" d="M141.4,134.8c1,0,2,0.1,2.8,0.3l-0.5,3.3c-1-0.2-1.8-0.3-2.6-0.3c-1.9,0-3.5,0.8-4.9,2.3
			c-1.3,1.5-2,3.4-2,5.7v12.5h-3.5v-23.4h2.9l0.4,4.3h0.2c0.9-1.5,1.9-2.7,3.1-3.5C138.6,135.2,139.9,134.8,141.4,134.8z"/>
		<path fill="#FFFFFF" d="M156.7,159c-3.5,0-6.2-1.1-8.2-3.2c-2-2.1-3-5-3-8.8c0-3.8,0.9-6.8,2.8-9c1.9-2.2,4.3-3.3,7.5-3.3
			c2.9,0,5.2,1,7,2.9c1.7,1.9,2.6,4.5,2.6,7.6v2.2h-16.1c0.1,2.7,0.8,4.8,2.1,6.2c1.3,1.4,3.2,2.1,5.6,2.1c2.5,0,5-0.5,7.5-1.6v3.2
			c-1.3,0.5-2.4,0.9-3.6,1.2C159.6,158.9,158.3,159,156.7,159z M155.7,137.8c-1.9,0-3.4,0.6-4.5,1.8c-1.1,1.2-1.8,2.9-2,5.1h12.2
			c0-2.2-0.5-3.9-1.5-5.1C159,138.4,157.6,137.8,155.7,137.8z"/>
		<path fill="#FFFFFF" d="M185.5,152.2c0,2.2-0.8,3.9-2.4,5c-1.6,1.2-3.9,1.8-6.8,1.8c-3.1,0-5.5-0.5-7.3-1.5v-3.3
			c1.1,0.6,2.3,1,3.6,1.3c1.3,0.3,2.5,0.5,3.7,0.5c1.8,0,3.3-0.3,4.3-0.9c1-0.6,1.5-1.5,1.5-2.7c0-0.9-0.4-1.7-1.2-2.3
			c-0.8-0.6-2.3-1.4-4.6-2.3c-2.2-0.8-3.7-1.5-4.6-2.1c-0.9-0.6-1.6-1.3-2-2.1c-0.4-0.8-0.7-1.7-0.7-2.8c0-1.9,0.8-3.4,2.3-4.5
			c1.5-1.1,3.7-1.7,6.4-1.7c2.5,0,5,0.5,7.4,1.5l-1.3,2.9c-2.3-1-4.5-1.5-6.4-1.5c-1.7,0-2.9,0.3-3.8,0.8c-0.9,0.5-1.3,1.3-1.3,2.2
			c0,0.6,0.2,1.2,0.5,1.6c0.3,0.4,0.8,0.9,1.5,1.3c0.7,0.4,2.1,1,4.1,1.7c2.8,1,4.6,2,5.6,3C185,149.4,185.5,150.7,185.5,152.2z"/>
		<path fill="#FFFFFF" d="M206.4,152.2c0,2.2-0.8,3.9-2.4,5c-1.6,1.2-3.9,1.8-6.8,1.8c-3.1,0-5.5-0.5-7.3-1.5v-3.3
			c1.1,0.6,2.3,1,3.6,1.3c1.3,0.3,2.5,0.5,3.7,0.5c1.8,0,3.3-0.3,4.3-0.9c1-0.6,1.5-1.5,1.5-2.7c0-0.9-0.4-1.7-1.2-2.3
			c-0.8-0.6-2.3-1.4-4.6-2.3c-2.2-0.8-3.7-1.5-4.6-2.1c-0.9-0.6-1.6-1.3-2-2.1c-0.4-0.8-0.7-1.7-0.7-2.8c0-1.9,0.8-3.4,2.3-4.5
			c1.5-1.1,3.7-1.7,6.4-1.7c2.5,0,5,0.5,7.4,1.5l-1.3,2.9c-2.3-1-4.5-1.5-6.4-1.5c-1.7,0-2.9,0.3-3.8,0.8c-0.9,0.5-1.3,1.3-1.3,2.2
			c0,0.6,0.2,1.2,0.5,1.6c0.3,0.4,0.8,0.9,1.5,1.3c0.7,0.4,2.1,1,4.1,1.7c2.8,1,4.6,2,5.6,3C205.9,149.4,206.4,150.7,206.4,152.2z"
			/>
		<path fill="#FFFFFF" d="M211.6,156.3c0-1,0.2-1.7,0.7-2.2c0.4-0.5,1.1-0.7,1.9-0.7c0.8,0,1.5,0.2,1.9,0.7c0.5,0.5,0.7,1.2,0.7,2.2
			c0,0.9-0.2,1.6-0.7,2.1s-1.1,0.7-1.9,0.7c-0.7,0-1.3-0.2-1.8-0.7C211.8,158.1,211.6,157.4,211.6,156.3z"/>
		<path fill="#FFFFFF" d="M232.2,159c-3.4,0-6-1-7.9-3.1c-1.9-2.1-2.8-5-2.8-8.8c0-3.9,0.9-6.9,2.8-9.1c1.9-2.1,4.6-3.2,8.1-3.2
			c1.1,0,2.2,0.1,3.4,0.4c1.1,0.2,2,0.5,2.6,0.9l-1.1,3c-0.8-0.3-1.6-0.6-2.6-0.8c-0.9-0.2-1.7-0.3-2.5-0.3c-4.7,0-7.1,3-7.1,9.1
			c0,2.9,0.6,5.1,1.7,6.6c1.2,1.5,2.9,2.3,5.2,2.3c1.9,0,3.9-0.4,6-1.3v3.1C236.5,158.6,234.6,159,232.2,159z"/>
		<path fill="#FFFFFF" d="M262.1,146.9c0,3.8-1,6.8-2.9,8.9c-1.9,2.1-4.6,3.2-8,3.2c-2.1,0-3.9-0.5-5.6-1.5c-1.6-1-2.9-2.4-3.8-4.2
			c-0.9-1.8-1.3-4-1.3-6.4c0-3.8,1-6.8,2.9-8.9c1.9-2.1,4.5-3.2,7.9-3.2c3.3,0,5.9,1.1,7.8,3.3C261.1,140.2,262.1,143.2,262.1,146.9
			z M244.3,146.9c0,3,0.6,5.3,1.8,6.8c1.2,1.6,2.9,2.3,5.3,2.3c2.3,0,4.1-0.8,5.3-2.3c1.2-1.6,1.8-3.8,1.8-6.8c0-3-0.6-5.2-1.8-6.8
			c-1.2-1.5-3-2.3-5.3-2.3c-2.3,0-4.1,0.8-5.2,2.3C244.9,141.6,244.3,143.9,244.3,146.9z"/>
		<path fill="#FFFFFF" d="M295.5,158.6v-15.2c0-1.9-0.4-3.3-1.2-4.2c-0.8-0.9-2-1.4-3.7-1.4c-2.2,0-3.8,0.6-4.9,1.9
			c-1.1,1.3-1.6,3.2-1.6,5.8v13.1h-3.5v-15.2c0-1.9-0.4-3.3-1.2-4.2c-0.8-0.9-2-1.4-3.7-1.4c-2.2,0-3.8,0.7-4.9,2
			c-1,1.3-1.5,3.5-1.5,6.5v12.3h-3.5v-23.4h2.9l0.6,3.2h0.2c0.7-1.1,1.6-2,2.8-2.7c1.2-0.6,2.6-1,4.1-1c3.7,0,6,1.3,7.2,4h0.2
			c0.7-1.2,1.7-2.2,3-2.9c1.3-0.7,2.8-1.1,4.5-1.1c2.6,0,4.6,0.7,5.9,2c1.3,1.4,2,3.5,2,6.5v15.2H295.5z"/>
	</g>
</g>
<g id="Design_Handbook">
	<g opacity="0.5">
		<path fill="#FFFFFF" d="M47.3,180.6c0,2.6-0.7,4.6-2.2,5.9s-3.6,2.1-6.4,2.1h-4.4v-15.7h4.9c2.6,0,4.6,0.7,6,2
			S47.3,178.1,47.3,180.6z M43.8,180.7c0-3.4-1.5-5.1-4.5-5.1h-1.8v10.2H39C42.2,185.8,43.8,184.1,43.8,180.7z"/>
		<path fill="#FFFFFF" d="M60.7,188.6h-9v-15.7h9v2.7h-5.7v3.4h5.3v2.7h-5.3v4h5.7V188.6z"/>
		<path fill="#FFFFFF" d="M74.3,184.2c0,1.4-0.5,2.5-1.5,3.4s-2.4,1.2-4.3,1.2c-1.7,0-3.2-0.3-4.4-0.9v-3.1c1.1,0.5,2,0.8,2.7,1
			c0.7,0.2,1.4,0.3,2,0.3c0.7,0,1.3-0.1,1.7-0.4c0.4-0.3,0.6-0.7,0.6-1.2c0-0.3-0.1-0.6-0.3-0.8s-0.4-0.5-0.8-0.7
			c-0.3-0.2-1-0.6-2-1.1c-1-0.5-1.7-0.9-2.2-1.3c-0.5-0.4-0.9-0.9-1.1-1.5c-0.3-0.6-0.4-1.2-0.4-1.9c0-1.4,0.5-2.5,1.4-3.3
			c0.9-0.8,2.2-1.2,3.9-1.2c0.8,0,1.6,0.1,2.3,0.3s1.5,0.5,2.3,0.8l-1.1,2.6c-0.8-0.3-1.5-0.6-2.1-0.7c-0.5-0.1-1.1-0.2-1.6-0.2
			c-0.6,0-1.1,0.1-1.5,0.4c-0.3,0.3-0.5,0.7-0.5,1.1c0,0.3,0.1,0.5,0.2,0.8c0.1,0.2,0.4,0.4,0.6,0.6c0.3,0.2,1,0.6,2.1,1.1
			c1.5,0.7,2.5,1.4,3,2.1C74,182.3,74.3,183.2,74.3,184.2z"/>
		<path fill="#FFFFFF" d="M78.2,188.6v-15.7h3.3v15.7H78.2z"/>
		<path fill="#FFFFFF" d="M92.6,179.8h6.2v8.1c-1,0.3-2,0.6-2.9,0.7c-0.9,0.1-1.8,0.2-2.7,0.2c-2.4,0-4.2-0.7-5.4-2.1
			c-1.2-1.4-1.9-3.4-1.9-6c0-2.5,0.7-4.5,2.2-5.9s3.5-2.1,6-2.1c1.6,0,3.2,0.3,4.7,1l-1.1,2.7c-1.1-0.6-2.3-0.9-3.6-0.9
			c-1.4,0-2.6,0.5-3.5,1.5c-0.9,1-1.3,2.3-1.3,3.9c0,1.7,0.3,3,1,3.9s1.7,1.3,3,1.3c0.7,0,1.4-0.1,2.1-0.2v-3.3h-3V179.8z"/>
		<path fill="#FFFFFF" d="M117.6,188.6h-4.2l-6.8-11.9h-0.1c0.1,2.1,0.2,3.6,0.2,4.5v7.4h-3v-15.7h4.2l6.8,11.8h0.1
			c-0.1-2-0.2-3.5-0.2-4.3v-7.4h3V188.6z"/>
		<path fill="#FFFFFF" d="M142.3,188.6H139v-6.8h-6.2v6.8h-3.3v-15.7h3.3v6.2h6.2v-6.2h3.3V188.6z"/>
		<path fill="#FFFFFF" d="M157,188.6l-1.1-3.7h-5.7l-1.1,3.7h-3.6l5.5-15.8h4.1l5.6,15.8H157z M155.1,182c-1.1-3.4-1.6-5.3-1.8-5.7
			c-0.1-0.4-0.2-0.8-0.3-1.1c-0.2,0.9-0.9,3.2-2,6.8H155.1z"/>
		<path fill="#FFFFFF" d="M177.6,188.6h-4.2l-6.8-11.9h-0.1c0.1,2.1,0.2,3.6,0.2,4.5v7.4h-3v-15.7h4.2l6.8,11.8h0.1
			c-0.1-2-0.2-3.5-0.2-4.3v-7.4h3V188.6z"/>
		<path fill="#FFFFFF" d="M195.7,180.6c0,2.6-0.7,4.6-2.2,5.9s-3.6,2.1-6.4,2.1h-4.4v-15.7h4.9c2.6,0,4.6,0.7,6,2
			S195.7,178.1,195.7,180.6z M192.2,180.7c0-3.4-1.5-5.1-4.5-5.1H186v10.2h1.4C190.6,185.8,192.2,184.1,192.2,180.7z"/>
		<path fill="#FFFFFF" d="M200,172.9h4.9c2.2,0,3.8,0.3,4.9,1c1,0.6,1.5,1.6,1.5,3c0,0.9-0.2,1.7-0.7,2.3s-1,1-1.8,1.1v0.1
			c1,0.2,1.7,0.6,2.2,1.2c0.4,0.6,0.7,1.4,0.7,2.4c0,1.4-0.5,2.5-1.6,3.4c-1,0.8-2.4,1.2-4.2,1.2H200V172.9z M203.4,179.1h1.9
			c0.9,0,1.6-0.1,2-0.4c0.4-0.3,0.6-0.7,0.6-1.4c0-0.6-0.2-1-0.7-1.3s-1.1-0.4-2.1-0.4h-1.8V179.1z M203.4,181.7v4.1h2.2
			c0.9,0,1.6-0.2,2-0.5c0.4-0.4,0.7-0.9,0.7-1.6c0-1.3-0.9-2-2.8-2H203.4z"/>
		<path fill="#FFFFFF" d="M230.2,180.7c0,2.6-0.6,4.6-1.9,6s-3.1,2.1-5.5,2.1s-4.3-0.7-5.5-2.1s-1.9-3.4-1.9-6c0-2.6,0.6-4.6,1.9-6
			s3.1-2.1,5.6-2.1c2.4,0,4.3,0.7,5.5,2.1C229.5,176.1,230.2,178.1,230.2,180.7z M218.7,180.7c0,1.8,0.3,3.1,1,4
			c0.7,0.9,1.7,1.3,3,1.3c2.7,0,4-1.8,4-5.3c0-3.5-1.3-5.3-4-5.3c-1.3,0-2.3,0.4-3,1.3C219.1,177.6,218.7,178.9,218.7,180.7z"/>
		<path fill="#FFFFFF" d="M248.8,180.7c0,2.6-0.6,4.6-1.9,6s-3.1,2.1-5.5,2.1s-4.3-0.7-5.5-2.1s-1.9-3.4-1.9-6c0-2.6,0.6-4.6,1.9-6
			s3.1-2.1,5.6-2.1c2.4,0,4.3,0.7,5.5,2.1C248.1,176.1,248.8,178.1,248.8,180.7z M237.3,180.7c0,1.8,0.3,3.1,1,4
			c0.7,0.9,1.7,1.3,3,1.3c2.7,0,4-1.8,4-5.3c0-3.5-1.3-5.3-4-5.3c-1.3,0-2.3,0.4-3,1.3C237.7,177.6,237.3,178.9,237.3,180.7z"/>
		<path fill="#FFFFFF" d="M265.8,188.6H262l-4.1-6.6l-1.4,1v5.6h-3.3v-15.7h3.3v7.2l1.3-1.8l4.3-5.3h3.7l-5.5,7L265.8,188.6z"/>
	</g>
</g>
</svg>
