<?xml version="1.0" encoding="utf-8"?>
<!-- Generator: Adobe Illustrator 18.0.0, SVG Export Plug-In . SVG Version: 6.00 Build 0)  -->
<!DOCTYPE svg PUBLIC "-//W3C//DTD SVG 1.1//EN" "http://www.w3.org/Graphics/SVG/1.1/DTD/svg11.dtd">
<svg version="1.1" id="Layer_1" xmlns="http://www.w3.org/2000/svg" xmlns:xlink="http://www.w3.org/1999/xlink" x="0px" y="0px"
	 viewBox="0 0 1300 200" enable-background="new 0 0 1300 200" xml:space="preserve">
<path opacity="0.95" fill="#FFFFFF" d="M100,50c-27.6,0-50,22.4-50,50c0,27.6,22.4,50,50,50c27.6,0,50-22.4,50-50
	C150,72.4,127.6,50,100,50z M55,100c0-6.5,1.4-12.7,3.9-18.3l21.4,58.8C65.4,133.2,55,117.8,55,100z M100,145
	c-4.4,0-8.7-0.6-12.7-1.8l13.5-39.2l13.8,37.9c0.1,0.2,0.2,0.4,0.3,0.6C110.3,144.1,105.2,145,100,145z M106.2,78.9
	c2.7-0.1,5.1-0.4,5.1-0.4c2.4-0.3,2.1-3.8-0.3-3.7c0,0-7.3,0.6-12,0.6c-4.4,0-11.8-0.6-11.8-0.6c-2.4-0.1-2.7,3.6-0.3,3.7
	c0,0,2.3,0.3,4.7,0.4l7,19.2l-9.8,29.5L72.5,78.9c2.7-0.1,5.1-0.4,5.1-0.4c2.4-0.3,2.1-3.8-0.3-3.7c0,0-7.3,0.6-12,0.6
	c-0.8,0-1.8,0-2.9-0.1C70.5,63.1,84.3,55,100,55c11.7,0,22.4,4.5,30.4,11.8c-0.2,0-0.4,0-0.6,0c-4.4,0-7.5,3.8-7.5,8
	c0,3.7,2.1,6.8,4.4,10.5c1.7,3,3.7,6.8,3.7,12.4c0,3.8-1.1,8.7-3.4,14.5l-4.5,15L106.2,78.9z M122.6,138.9l13.7-39.7
	c2.6-6.4,3.4-11.5,3.4-16.1c0-1.7-0.1-3.2-0.3-4.6c3.5,6.4,5.5,13.8,5.5,21.6C145,116.6,136,131.1,122.6,138.9z"/>
<g opacity="0.95">
	<path fill="#FFFFFF" d="M221.2,125h-5.7l-10.1-33.5c-0.5-1.5-1-3.3-1.6-5.6c-0.6-2.3-0.9-3.6-0.9-4.1c-0.5,3-1.3,6.3-2.4,9.9
		l-9.8,33.3H185l-13.3-50h6.2l7.9,30.9c1.1,4.3,1.9,8.2,2.4,11.8c0.6-4.2,1.5-8.2,2.7-12.2l9-30.4h6.2l9.4,30.7
		c1.1,3.5,2,7.5,2.8,12c0.4-3.2,1.3-7.2,2.5-11.8l7.9-30.8h6.2L221.2,125z"/>
	<path fill="#FFFFFF" d="M268.3,106.2c0,6.1-1.5,10.9-4.6,14.3c-3.1,3.4-7.3,5.1-12.7,5.1c-3.3,0-6.3-0.8-8.9-2.4s-4.6-3.8-6-6.8
		c-1.4-2.9-2.1-6.4-2.1-10.3c0-6.1,1.5-10.9,4.6-14.3c3.1-3.4,7.3-5.1,12.7-5.1c5.2,0,9.4,1.7,12.5,5.2
		C266.7,95.6,268.3,100.3,268.3,106.2z M239.8,106.2c0,4.8,1,8.4,2.9,10.9c1.9,2.5,4.7,3.8,8.4,3.8c3.7,0,6.5-1.2,8.5-3.7
		c1.9-2.5,2.9-6.1,2.9-11c0-4.8-1-8.4-2.9-10.9c-1.9-2.5-4.8-3.7-8.5-3.7c-3.7,0-6.5,1.2-8.4,3.7
		C240.7,97.8,239.8,101.4,239.8,106.2z"/>
	<path fill="#FFFFFF" d="M292.5,86.9c1.7,0,3.2,0.1,4.5,0.4l-0.8,5.3c-1.6-0.3-2.9-0.5-4.1-0.5c-3,0-5.6,1.2-7.8,3.7
		c-2.2,2.5-3.2,5.5-3.2,9.2V125h-5.7V87.5h4.7l0.7,6.9h0.3c1.4-2.4,3.1-4.3,5-5.6C288,87.5,290.2,86.9,292.5,86.9z"/>
	<path fill="#FFFFFF" d="M325.3,120H325c-2.6,3.8-6.5,5.7-11.8,5.7c-4.9,0-8.7-1.7-11.4-5c-2.7-3.3-4.1-8.1-4.1-14.3
		c0-6.2,1.4-11,4.1-14.4s6.5-5.1,11.4-5.1c5.1,0,9,1.8,11.7,5.5h0.4l-0.2-2.7l-0.1-2.6l0.1-17.1h5.7l-0.1,55h-4.6L325.3,120z
		 M314,120.9c3.9,0,6.7-1.1,8.4-3.2c1.7-2.1,2.6-5.5,2.6-10.2v-1.2c0-5.3-0.9-9.1-2.6-11.4s-4.6-3.4-8.5-3.4c-3.3,0-5.9,1.3-7.6,3.9
		c-1.8,2.6-2.6,6.2-2.6,11c0,4.8,0.9,8.4,2.6,10.8C308,119.7,310.6,120.9,314,120.9z"/>
	<path fill="#FFFFFF" d="M375.9,89.6c0,5.1-1.7,9-5.2,11.7c-3.5,2.7-8.4,4.1-14.8,4.1h-5.9V125h-5.8V75h13
		C369.7,75,375.9,79.9,375.9,89.6z M350.1,100.4h5.2c5.1,0,8.9-0.8,11.2-2.5c2.3-1.7,3.5-4.3,3.5-8c0-3.3-1.1-5.8-3.2-7.4
		c-2.2-1.6-5.5-2.4-10.1-2.4h-6.5V100.4z"/>
	<path fill="#FFFFFF" d="M397.7,86.9c1.7,0,3.2,0.1,4.5,0.4l-0.8,5.3c-1.5-0.3-2.9-0.5-4.1-0.5c-3,0-5.6,1.2-7.8,3.7
		c-2.2,2.5-3.2,5.5-3.2,9.2V125h-5.7V87.5h4.7l0.6,6.9h0.3c1.4-2.4,3.1-4.3,5-5.6C393.2,87.5,395.4,86.9,397.7,86.9z"/>
	<path fill="#FFFFFF" d="M422.3,125.7c-5.5,0-9.9-1.7-13.1-5.1c-3.2-3.4-4.8-8.1-4.8-14c0-6,1.5-10.8,4.5-14.4c3-3.6,7-5.3,12-5.3
		c4.7,0,8.4,1.5,11.1,4.6c2.7,3.1,4.1,7.2,4.1,12.2v3.6h-25.8c0.1,4.4,1.2,7.7,3.3,10c2.1,2.3,5.1,3.4,8.9,3.4c4,0,8-0.8,12-2.5v5.1
		c-2,0.9-3.9,1.5-5.7,1.9C426.9,125.5,424.8,125.7,422.3,125.7z M420.7,91.6c-3,0-5.4,1-7.2,2.9c-1.8,2-2.8,4.7-3.2,8.1h19.6
		c0-3.6-0.8-6.3-2.4-8.2C426,92.6,423.7,91.6,420.7,91.6z"/>
	<path fill="#FFFFFF" d="M468.5,114.8c0,3.5-1.3,6.2-3.9,8.1c-2.6,1.9-6.2,2.8-10.9,2.8c-5,0-8.8-0.8-11.6-2.4v-5.3
		c1.8,0.9,3.7,1.6,5.8,2.2c2.1,0.5,4,0.8,6,0.8c3,0,5.2-0.5,6.8-1.4c1.6-0.9,2.4-2.4,2.4-4.3c0-1.5-0.6-2.7-1.9-3.7
		c-1.3-1-3.7-2.3-7.4-3.7c-3.5-1.3-6-2.4-7.4-3.4c-1.5-1-2.6-2.1-3.3-3.3c-0.7-1.2-1.1-2.7-1.1-4.4c0-3.1,1.2-5.5,3.7-7.2
		c2.5-1.8,5.9-2.6,10.2-2.6c4,0,8,0.8,11.8,2.5l-2,4.6c-3.8-1.5-7.2-2.3-10.2-2.3c-2.7,0-4.7,0.4-6.1,1.3c-1.4,0.8-2.1,2-2.1,3.5
		c0,1,0.3,1.9,0.8,2.6c0.5,0.7,1.3,1.4,2.5,2c1.1,0.6,3.3,1.6,6.6,2.8c4.4,1.6,7.4,3.2,9,4.9C467.7,110.2,468.5,112.3,468.5,114.8z"
		/>
	<path fill="#FFFFFF" d="M501.9,114.8c0,3.5-1.3,6.2-3.9,8.1c-2.6,1.9-6.2,2.8-10.9,2.8c-5,0-8.8-0.8-11.6-2.4v-5.3
		c1.8,0.9,3.7,1.6,5.8,2.2c2.1,0.5,4,0.8,6,0.8c3,0,5.2-0.5,6.8-1.4c1.6-0.9,2.4-2.4,2.4-4.3c0-1.5-0.6-2.7-1.9-3.7
		c-1.3-1-3.7-2.3-7.4-3.7c-3.5-1.3-6-2.4-7.4-3.4c-1.5-1-2.6-2.1-3.3-3.3c-0.7-1.2-1.1-2.7-1.1-4.4c0-3.1,1.2-5.5,3.7-7.2
		c2.5-1.8,5.9-2.6,10.2-2.6c4,0,8,0.8,11.8,2.5l-2,4.6c-3.8-1.5-7.2-2.3-10.2-2.3c-2.7,0-4.7,0.4-6.1,1.3c-1.4,0.8-2.1,2-2.1,3.5
		c0,1,0.3,1.9,0.8,2.6c0.5,0.7,1.3,1.4,2.5,2c1.1,0.6,3.3,1.6,6.6,2.8c4.4,1.6,7.4,3.2,9,4.9C501.1,110.2,501.9,112.3,501.9,114.8z"
		/>
	<path fill="#FFFFFF" d="M510.3,121.4c0-1.5,0.3-2.7,1-3.5c0.7-0.8,1.7-1.2,3-1.2c1.3,0,2.4,0.4,3.1,1.2c0.7,0.8,1.1,1.9,1.1,3.5
		c0,1.5-0.4,2.6-1.1,3.4s-1.8,1.2-3.1,1.2c-1.2,0-2.1-0.4-2.9-1.1C510.6,124.2,510.3,123,510.3,121.4z"/>
	<path fill="#FFFFFF" d="M543.3,125.7c-5.4,0-9.6-1.7-12.6-5c-3-3.3-4.5-8.1-4.5-14.2c0-6.3,1.5-11.1,4.5-14.5s7.3-5.1,12.9-5.1
		c1.8,0,3.6,0.2,5.4,0.6c1.8,0.4,3.2,0.8,4.2,1.4l-1.7,4.8c-1.3-0.5-2.6-0.9-4.1-1.2c-1.5-0.3-2.8-0.5-3.9-0.5
		c-7.6,0-11.4,4.9-11.4,14.6c0,4.6,0.9,8.1,2.8,10.6c1.9,2.5,4.6,3.7,8.3,3.7c3.1,0,6.3-0.7,9.6-2v5
		C550.2,125,547.1,125.7,543.3,125.7z"/>
	<path fill="#FFFFFF" d="M591.2,106.2c0,6.1-1.5,10.9-4.6,14.3c-3.1,3.4-7.3,5.1-12.7,5.1c-3.3,0-6.3-0.8-8.9-2.4s-4.6-3.8-6-6.8
		c-1.4-2.9-2.1-6.4-2.1-10.3c0-6.1,1.5-10.9,4.6-14.3c3.1-3.4,7.3-5.1,12.7-5.1c5.2,0,9.4,1.7,12.5,5.2
		C589.6,95.6,591.2,100.3,591.2,106.2z M562.6,106.2c0,4.8,1,8.4,2.9,10.9c1.9,2.5,4.7,3.8,8.4,3.8c3.7,0,6.5-1.2,8.5-3.7
		c1.9-2.5,2.9-6.1,2.9-11c0-4.8-1-8.4-2.9-10.9c-1.9-2.5-4.8-3.7-8.5-3.7c-3.7,0-6.5,1.2-8.4,3.7
		C563.6,97.8,562.6,101.4,562.6,106.2z"/>
	<path fill="#FFFFFF" d="M644.7,125v-24.4c0-3-0.6-5.2-1.9-6.7c-1.3-1.5-3.3-2.2-5.9-2.2c-3.5,0-6.1,1-7.8,3c-1.7,2-2.5,5.2-2.5,9.4
		V125h-5.7v-24.4c0-3-0.6-5.2-1.9-6.7c-1.3-1.5-3.3-2.2-6-2.2c-3.6,0-6.2,1.1-7.8,3.2c-1.7,2.1-2.5,5.6-2.5,10.5V125h-5.7V87.5h4.6
		l0.9,5.1h0.3c1.1-1.8,2.6-3.2,4.5-4.3c1.9-1,4.1-1.5,6.5-1.5c5.9,0,9.7,2.1,11.5,6.4h0.3c1.1-2,2.7-3.5,4.9-4.6
		c2.1-1.1,4.5-1.7,7.2-1.7c4.2,0,7.4,1.1,9.5,3.3c2.1,2.2,3.2,5.7,3.2,10.4V125H644.7z"/>
</g>
<g opacity="0.5">
	<path fill="#FFFFFF" d="M731.1,106.1c0,6.1-1.7,10.8-5.2,14.1s-8.5,4.9-15.1,4.9h-10.6V87.8h11.7c6.1,0,10.8,1.6,14.2,4.8
		S731.1,100.3,731.1,106.1z M722.9,106.3c0-8-3.5-12-10.6-12H708v24.3h3.4C719.1,118.6,722.9,114.5,722.9,106.3z"/>
	<path fill="#FFFFFF" d="M762.9,125.1h-21.5V87.8h21.5v6.5h-13.6v8.2H762v6.5h-12.6v9.6h13.6V125.1z"/>
	<path fill="#FFFFFF" d="M795.3,114.7c0,3.4-1.2,6-3.6,8c-2.4,1.9-5.8,2.9-10.1,2.9c-4,0-7.5-0.7-10.6-2.2V116
		c2.5,1.1,4.6,1.9,6.4,2.4c1.7,0.5,3.3,0.7,4.8,0.7c1.7,0,3.1-0.3,4-1c0.9-0.7,1.4-1.6,1.4-3c0-0.7-0.2-1.4-0.6-2
		c-0.4-0.6-1-1.1-1.8-1.6c-0.8-0.5-2.4-1.4-4.8-2.5c-2.3-1.1-4-2.1-5.1-3.1c-1.1-1-2.1-2.1-2.7-3.4c-0.7-1.3-1-2.8-1-4.6
		c0-3.3,1.1-5.9,3.4-7.8c2.2-1.9,5.3-2.8,9.3-2.8c1.9,0,3.8,0.2,5.5,0.7c1.8,0.5,3.6,1.1,5.5,1.9l-2.6,6.1c-2-0.8-3.6-1.4-4.9-1.7
		c-1.3-0.3-2.6-0.5-3.8-0.5c-1.5,0-2.6,0.4-3.4,1c-0.8,0.7-1.2,1.6-1.2,2.7c0,0.7,0.2,1.3,0.5,1.8c0.3,0.5,0.8,1,1.5,1.5
		c0.7,0.5,2.4,1.4,5,2.6c3.5,1.7,5.9,3.3,7.2,5C794.7,110.3,795.3,112.3,795.3,114.7z"/>
	<path fill="#FFFFFF" d="M804.7,125.1V87.8h7.9v37.3H804.7z"/>
	<path fill="#FFFFFF" d="M838.8,104.2h14.8v19.3c-2.4,0.8-4.7,1.3-6.8,1.6c-2.1,0.3-4.3,0.5-6.5,0.5c-5.6,0-9.9-1.7-12.9-5
		c-3-3.3-4.5-8.1-4.5-14.3c0-6,1.7-10.7,5.2-14.1c3.4-3.4,8.2-5.1,14.3-5.1c3.8,0,7.5,0.8,11.1,2.3l-2.6,6.3c-2.7-1.4-5.6-2-8.5-2
		c-3.4,0-6.2,1.1-8.2,3.4c-2.1,2.3-3.1,5.4-3.1,9.3c0,4.1,0.8,7.1,2.5,9.3c1.7,2.1,4.1,3.2,7.2,3.2c1.6,0,3.3-0.2,5-0.5v-7.8h-7.1
		V104.2z"/>
	<path fill="#FFFFFF" d="M898.2,125.1h-10.1l-16.2-28.2h-0.2c0.3,5,0.5,8.5,0.5,10.7v17.6h-7.1V87.8h10l16.2,27.9h0.2
		c-0.3-4.8-0.4-8.3-0.4-10.3V87.8h7.1V125.1z"/>
	<path fill="#FFFFFF" d="M956.9,125.1H949V109h-14.8v16.1h-7.9V87.8h7.9v14.6H949V87.8h7.9V125.1z"/>
	<path fill="#FFFFFF" d="M991.8,125.1l-2.7-8.9h-13.6l-2.7,8.9h-8.5l13.2-37.5h9.7l13.2,37.5H991.8z M987.2,109.6
		c-2.5-8-3.9-12.6-4.2-13.7c-0.3-1.1-0.5-1.9-0.7-2.5c-0.6,2.2-2.2,7.6-4.8,16.2H987.2z"/>
	<path fill="#FFFFFF" d="M1040.7,125.1h-10.1l-16.2-28.2h-0.2c0.3,5,0.5,8.5,0.5,10.7v17.6h-7.1V87.8h10l16.2,27.9h0.2
		c-0.3-4.8-0.4-8.3-0.4-10.3V87.8h7.1V125.1z"/>
	<path fill="#FFFFFF" d="M1083.7,106.1c0,6.1-1.7,10.8-5.2,14.1s-8.5,4.9-15.1,4.9h-10.6V87.8h11.7c6.1,0,10.8,1.6,14.2,4.8
		S1083.7,100.3,1083.7,106.1z M1075.4,106.3c0-8-3.5-12-10.6-12h-4.2v24.3h3.4C1071.6,118.6,1075.4,114.5,1075.4,106.3z"/>
	<path fill="#FFFFFF" d="M1094,87.8h11.6c5.3,0,9.1,0.8,11.5,2.3c2.4,1.5,3.6,3.9,3.6,7.2c0,2.2-0.5,4.1-1.6,5.5
		c-1,1.4-2.4,2.3-4.2,2.6v0.3c2.4,0.5,4.1,1.5,5.1,3c1,1.4,1.6,3.4,1.6,5.8c0,3.4-1.2,6.1-3.7,8c-2.5,1.9-5.8,2.9-10,2.9h-14V87.8z
		 M1101.9,102.6h4.6c2.1,0,3.7-0.3,4.7-1c1-0.7,1.4-1.8,1.4-3.3c0-1.4-0.5-2.5-1.6-3.1s-2.7-0.9-5-0.9h-4.2V102.6z M1101.9,108.8
		v9.7h5.2c2.2,0,3.8-0.4,4.8-1.3c1-0.8,1.6-2.1,1.6-3.8c0-3.1-2.2-4.6-6.6-4.6H1101.9z"/>
	<path fill="#FFFFFF" d="M1165.6,106.4c0,6.2-1.5,10.9-4.6,14.2c-3.1,3.3-7.5,5-13.2,5s-10.1-1.7-13.2-5c-3.1-3.3-4.6-8.1-4.6-14.3
		c0-6.2,1.5-10.9,4.6-14.2c3.1-3.3,7.5-4.9,13.2-4.9c5.7,0,10.1,1.7,13.2,4.9C1164.1,95.5,1165.6,100.2,1165.6,106.4z M1138.4,106.4
		c0,4.2,0.8,7.3,2.4,9.4c1.6,2.1,3.9,3.2,7.1,3.2c6.3,0,9.5-4.2,9.5-12.6c0-8.4-3.1-12.6-9.4-12.6c-3.1,0-5.5,1.1-7.1,3.2
		C1139.2,99.1,1138.4,102.2,1138.4,106.4z"/>
	<path fill="#FFFFFF" d="M1209.8,106.4c0,6.2-1.5,10.9-4.6,14.2c-3.1,3.3-7.5,5-13.2,5s-10.1-1.7-13.2-5c-3.1-3.3-4.6-8.1-4.6-14.3
		c0-6.2,1.5-10.9,4.6-14.2s7.5-4.9,13.2-4.9c5.7,0,10.1,1.7,13.2,4.9C1208.3,95.5,1209.8,100.2,1209.8,106.4z M1182.6,106.4
		c0,4.2,0.8,7.3,2.4,9.4c1.6,2.1,3.9,3.2,7.1,3.2c6.3,0,9.5-4.2,9.5-12.6c0-8.4-3.1-12.6-9.4-12.6c-3.1,0-5.5,1.1-7.1,3.2
		C1183.4,99.1,1182.6,102.2,1182.6,106.4z"/>
	<path fill="#FFFFFF" d="M1250.1,125.1h-9l-9.8-15.7l-3.3,2.4v13.3h-7.9V87.8h7.9v17.1l3.1-4.4l10.1-12.7h8.8l-13,16.5L1250.1,125.1
		z"/>
</g>
</svg>
