<?xml version="1.0" encoding="utf-8"?>
<!-- Generator: Adobe Illustrator 18.0.0, SVG Export Plug-In . SVG Version: 6.00 Build 0)  -->
<!DOCTYPE svg PUBLIC "-//W3C//DTD SVG 1.1//EN" "http://www.w3.org/Graphics/SVG/1.1/DTD/svg11.dtd">
<svg version="1.1" id="Layer_1" xmlns="http://www.w3.org/2000/svg" xmlns:xlink="http://www.w3.org/1999/xlink" x="0px" y="0px"
	 viewBox="0 0 1000 400" enable-background="new 0 0 1000 400" xml:space="preserve">
<rect fill="#FFFFFF" width="1000" height="400"/>
<g>
	<path fill="#98A0AA" d="M556,183.1h-27.6v2.9c8.6,0,10,1.8,10,12.8v19.7c0,10.9-1.4,12.9-10,12.9c-6.6-0.9-11.1-4.5-17.2-11.2
		l-7.1-7.7c9.5-1.7,14.6-7.7,14.6-14.5c0-8.5-7.2-14.9-20.8-14.9h-27.1v2.9c8.6,0,10,1.8,10,12.8v19.7c0,10.9-1.4,12.9-10,12.9v2.9
		h30.6v-2.9c-8.6,0-10-2-10-12.9V213h2.6l17.1,21.4H556c22,0,31.6-11.7,31.6-25.7C587.5,194.6,578,183.1,556,183.1z M491.5,208.2
		v-20.5h6.3c6.9,0,10,4.8,10,10.3c0,5.4-3.1,10.2-10,10.2H491.5z M556.4,229.6h-1.1c-5.5,0-6.3-1.4-6.3-8.5v-33.4c0,0,6.8,0,7.4,0
		c16,0,18.9,11.7,18.9,20.8C575.4,217.9,572.5,229.6,556.4,229.6z"/>
	<path fill="#98A0AA" d="M385.1,213.9l10.6-31.4c3.1-9.1,1.7-11.7-8.2-11.7v-3.1h28.9v3.1c-9.7,0-12,2.3-15.9,13.5L383.1,237h-2
		l-15.7-48.2l-16,48.2h-2l-17.1-52.6c-3.7-11.2-6.2-13.5-15.1-13.5v-3.1h34.2v3.1c-9.1,0-11.5,2.2-8.3,11.7l10.3,31.4l15.5-46.2h2.9
		L385.1,213.9z"/>
	<path fill="#98A0AA" d="M437.5,236.4c-16.9,0-30.8-12.5-30.8-27.7c0-15.1,13.9-27.6,30.8-27.6c16.9,0,30.8,12.5,30.8,27.6
		C468.2,223.9,454.4,236.4,437.5,236.4z M437.5,185.9c-14.2,0-19.1,12.8-19.1,22.8c0,10.2,4.9,22.8,19.1,22.8
		c14.3,0,19.2-12.6,19.2-22.8C456.7,198.7,451.8,185.9,437.5,185.9z"/>
	<path fill="#98A0AA" d="M625.6,231.3v3.1h-35.3v-3.1c10.3,0,12.2-2.6,12.2-18v-24.6c0-15.4-1.8-17.9-12.2-17.9v-3.1h31.9
		c15.9,0,24.6,8.2,24.6,19.1c0,10.6-8.8,18.9-24.6,18.9h-8.8v7.5C613.4,228.7,615.3,231.3,625.6,231.3z M622.2,173.2h-8.8V200h8.8
		c8.6,0,12.6-6,12.6-13.2C634.8,179.4,630.8,173.2,622.2,173.2z"/>
	<path fill="#98A0AA" d="M752.6,219.9l-0.8,2.8c-1.4,5.1-3.1,6.9-14,6.9h-2.2c-8,0-9.4-1.8-9.4-12.8v-7.1c12,0,12.9,1.1,12.9,9.1
		h2.9v-22.9h-2.9c0,8-0.9,9.1-12.9,9.1v-17.2h8.5c10.9,0,12.6,1.8,14,6.9l0.8,2.9h2.5l-1.1-14.5h-45.3v2.9c8.6,0,10,1.8,10,12.8
		v19.7c0,10-1.2,12.5-8,12.9c-6.5-1-10.9-4.5-17-11.2l-7.1-7.7c9.5-1.7,14.6-7.7,14.6-14.5c0-8.5-7.2-14.9-20.8-14.9h-27.1v2.9
		c8.6,0,10,1.8,10,12.8v19.7c0,10.9-1.4,12.9-10,12.9v2.9H681v-2.9c-8.6,0-10-2-10-12.9V213h2.6l17.1,21.4h63.3l0.9-14.5H752.6z
		 M671,208.2v-20.5h6.3c6.9,0,10,4.8,10,10.3c0,5.4-3.1,10.2-10,10.2H671z"/>
	<path fill="#98A0AA" d="M783.8,236.4c-6.2,0-11.5-3.2-13.9-5.2c-0.8,0.8-2.2,3.1-2.5,5.2h-2.9v-21.2h3.1
		c1.2,10.2,8.3,16.2,17.4,16.2c4.9,0,8.9-2.8,8.9-7.4c0-4-3.5-7.1-9.9-10l-8.8-4.2c-6.2-2.9-10.8-8-10.8-14.8
		c0-7.4,6.9-13.7,16.5-13.7c5.1,0,9.4,1.8,12,4c0.8-0.6,1.5-2.3,2-4.2h2.9v18.2h-3.2c-1.1-7.2-5.1-13.2-13.2-13.2
		c-4.3,0-8.3,2.5-8.3,6.3c0,4,3.2,6.2,10.6,9.5l8.5,4.2c7.4,3.5,10.3,9.2,10.3,13.9C802.6,229.6,794.1,236.4,783.8,236.4z"/>
	<path fill="#98A0AA" d="M831.2,236.4c-6.2,0-11.5-3.2-13.9-5.2c-0.8,0.8-2.2,3.1-2.5,5.2H812v-21.2h3.1
		c1.2,10.2,8.3,16.2,17.4,16.2c4.9,0,8.9-2.8,8.9-7.4c0-4-3.5-7.1-9.9-10l-8.8-4.2c-6.2-2.9-10.8-8-10.8-14.8
		c0-7.4,6.9-13.7,16.5-13.7c5.1,0,9.4,1.8,12,4c0.8-0.6,1.5-2.3,2-4.2h2.9v18.2h-3.2c-1.1-7.2-5.1-13.2-13.2-13.2
		c-4.3,0-8.3,2.5-8.3,6.3c0,4,3.2,6.2,10.6,9.5l8.5,4.2c7.4,3.5,10.3,9.2,10.3,13.9C850,229.6,841.5,236.4,831.2,236.4z"/>
	<g>
		<path fill="#98A0AA" d="M161.3,200c0,27,15.7,50.3,38.4,61.3l-32.5-89C163.4,180.7,161.3,190.1,161.3,200z"/>
		<path fill="#98A0AA" d="M275.4,196.6c0-8.4-3-14.2-5.6-18.8c-3.5-5.6-6.7-10.4-6.7-16c0-6.3,4.7-12.1,11.4-12.1
			c0.3,0,0.6,0,0.9,0.1c-12.1-11.1-28.3-17.9-46-17.9c-23.8,0-44.7,12.2-56.9,30.7c1.6,0,3.1,0.1,4.4,0.1c7.1,0,18.2-0.9,18.2-0.9
			c3.7-0.2,4.1,5.2,0.4,5.6c0,0-3.7,0.4-7.8,0.7l24.8,73.8l14.9-44.7l-10.6-29.1c-3.7-0.2-7.1-0.7-7.1-0.7c-3.7-0.2-3.2-5.8,0.4-5.6
			c0,0,11.3,0.9,17.9,0.9c7.1,0,18.2-0.9,18.2-0.9c3.7-0.2,4.1,5.2,0.4,5.6c0,0-3.7,0.4-7.8,0.7l24.6,73.2l6.8-22.7
			C273.2,209.2,275.4,202.4,275.4,196.6z"/>
		<path fill="#98A0AA" d="M230.6,206l-20.4,59.4c6.1,1.8,12.6,2.8,19.2,2.8c7.9,0,15.5-1.4,22.6-3.9c-0.2-0.3-0.3-0.6-0.5-0.9
			L230.6,206z"/>
		<path fill="#98A0AA" d="M289.2,167.3c0.3,2.2,0.5,4.5,0.5,7c0,6.9-1.3,14.7-5.2,24.4l-20.8,60.2c20.3-11.8,33.9-33.8,33.9-58.9
			C297.5,188.2,294.5,177,289.2,167.3z"/>
		<path fill="#98A0AA" d="M229.4,120.6c-43.8,0-79.4,35.6-79.4,79.4c0,43.8,35.6,79.4,79.4,79.4c43.8,0,79.4-35.6,79.4-79.4
			C308.8,156.2,273.2,120.6,229.4,120.6z M229.4,275.8c-41.8,0-75.8-34-75.8-75.8c0-41.8,34-75.8,75.8-75.8
			c41.8,0,75.8,34,75.8,75.8C305.2,241.8,271.2,275.8,229.4,275.8z"/>
	</g>
</g>
</svg>
