<?xml version="1.0" encoding="utf-8"?>
<!-- Generator: Adobe Illustrator 18.0.0, SVG Export Plug-In . SVG Version: 6.00 Build 0)  -->
<!DOCTYPE svg PUBLIC "-//W3C//DTD SVG 1.1//EN" "http://www.w3.org/Graphics/SVG/1.1/DTD/svg11.dtd">
<svg version="1.1" id="Layer_1" xmlns="http://www.w3.org/2000/svg" xmlns:xlink="http://www.w3.org/1999/xlink" x="0px" y="0px"
	 viewBox="0 -225 1000 850" enable-background="new 0 -225 1000 850" xml:space="preserve">
<rect y="-225" fill="#FFFFFF" width="1000" height="850"/>
<rect x="93.3" y="396.4" fill="#D6F4FD" width="813.4" height="1.2"/>
<rect x="87.5" y="512.6" fill="#D6F4FD" width="825" height="1.2"/>
<rect x="87.5" y="280.2" fill="#D6F4FD" width="825" height="1.2"/>
<rect x="208.9" y="280.8" fill="#D6F4FD" width="1.2" height="232.4"/>
<rect x="150.8" y="280.8" fill="#D6F4FD" width="1.2" height="232.4"/>
<rect x="92.7" y="275" fill="#D6F4FD" width="1.2" height="244"/>
<rect x="267" y="280.8" fill="#D6F4FD" width="1.2" height="232.4"/>
<rect x="383.2" y="280.8" fill="#D6F4FD" width="1.2" height="232.4"/>
<rect x="441.3" y="280.8" fill="#D6F4FD" width="1.2" height="232.4"/>
<rect x="499.4" y="280.8" fill="#D6F4FD" width="1.2" height="232.4"/>
<rect x="281.5" y="338.9" fill="#93E3FB" width="1.2" height="175"/>
<rect x="325.1" y="275" fill="#D6F4FD" width="1.2" height="244"/>
<rect x="906.1" y="275" fill="#D6F4FD" width="1.2" height="244"/>
<rect x="848" y="280.8" fill="#D6F4FD" width="1.2" height="232.4"/>
<rect x="557.5" y="280.8" fill="#D6F4FD" width="1.2" height="232.4"/>
<rect x="673.7" y="280.8" fill="#D6F4FD" width="1.2" height="232.4"/>
<rect x="789.9" y="280.8" fill="#D6F4FD" width="1.2" height="232.4"/>
<rect x="615.6" y="280.8" fill="#D6F4FD" width="1.2" height="232.4"/>
<rect x="731.8" y="280.8" fill="#D6F4FD" width="1.2" height="232.4"/>
<rect x="93.3" y="454.5" fill="#93E3FB" width="232.4" height="1.2"/>
<rect x="151.4" y="425.5" fill="#93E3FB" width="755.3" height="1.2"/>
<rect x="93.3" y="338.3" fill="#93E3FB" width="232.4" height="1.2"/>
<rect x="151.4" y="367.4" fill="#93E3FB" width="755.3" height="1.2"/>
<rect x="267.6" y="536.4" fill="#B2E5F4" width="15" height="3.5"/>
<rect x="151.4" y="536.4" fill="#00AADC" width="116.2" height="3.5"/>
<text transform="matrix(1 0 0 1 200.3369 563.1704)" fill="#00AADC" font-family="'OpenSans-Semibold'" font-size="16.2676">W</text>
<text transform="matrix(1 0 0 1 268.7417 563.1704)" fill="#00AADC" font-family="'OpenSans-Semibold'" font-size="16.2676">Z</text>
<text transform="matrix(1 0 0 1 255.7083 579.8696)" fill="#00AADC" font-family="'OpenSans-Semibold'" font-size="13.9437">(W/8)</text>
<rect x="92.6" y="536.4" fill="#B2E5F4" width="58.9" height="3.5"/>
<text transform="matrix(1 0 0 1 115.184 563.1704)" fill="#00AADC" font-family="'OpenSans-Semibold'" font-size="16.2676">X</text>
<text transform="matrix(1 0 0 1 102.5317 579.8696)" fill="#00AADC" font-family="'OpenSans-Semibold'" font-size="13.9437">(W/2)</text>
<path fill="#324155" d="M209.5,338.9c-32,0-58.1,26.1-58.1,58.1s26.1,58.1,58.1,58.1s58.1-26.1,58.1-58.1S241.5,338.9,209.5,338.9z
	 M157.3,397c0-7.6,1.6-14.8,4.5-21.3l24.9,68.3C169.3,435.5,157.3,417.7,157.3,397z M209.5,449.2c-5.1,0-10.1-0.8-14.8-2.1
	l15.7-45.5l16.1,44c0.1,0.3,0.2,0.5,0.4,0.7C221.4,448.2,215.6,449.2,209.5,449.2z M216.7,372.5c3.1-0.2,6-0.5,6-0.5
	c2.8-0.3,2.5-4.5-0.3-4.3c0,0-8.5,0.7-13.9,0.7c-5.1,0-13.8-0.7-13.8-0.7c-2.8-0.2-3.1,4.1-0.3,4.3c0,0,2.7,0.3,5.5,0.5l8.1,22.3
	l-11.4,34.3l-19-56.6c3.1-0.2,6-0.5,6-0.5c2.8-0.3,2.5-4.5-0.3-4.3c0,0-8.5,0.7-13.9,0.7c-1,0-2.1,0-3.4-0.1
	c9.3-14.2,25.4-23.5,43.6-23.5c13.6,0,26,5.2,35.3,13.7c-0.2,0-0.4,0-0.7,0c-5.1,0-8.8,4.5-8.8,9.3c0,4.3,2.5,7.9,5.1,12.3
	c2,3.5,4.3,7.9,4.3,14.4c0,4.5-1.3,10.1-4,16.9l-5.2,17.4L216.7,372.5z M235.8,442.2l16-46.1c3-7.5,4-13.4,4-18.7
	c0-1.9-0.1-3.7-0.4-5.4c4.1,7.4,6.4,16,6.4,25.1C261.7,416.3,251.3,433.1,235.8,442.2z"/>
<g>
	<path fill="#324155" d="M339.6,426.1h-6.7l-11.7-38.9c-0.6-1.7-1.2-3.9-1.9-6.5c-0.7-2.6-1-4.2-1.1-4.7c-0.6,3.5-1.5,7.3-2.8,11.5
		L304,426.2h-6.7L282,367.9h7.2l9.2,35.9c1.3,5,2.2,9.6,2.8,13.7c0.7-4.9,1.8-9.6,3.2-14.2l10.4-35.4h7.2l10.9,35.7
		c1.3,4.1,2.3,8.7,3.2,13.9c0.5-3.8,1.5-8.4,2.9-13.8l9.1-35.8h7.2L339.6,426.1z"/>
	<path fill="#324155" d="M396.4,404.2c0,7.1-1.8,12.7-5.4,16.6c-3.6,4-8.5,6-14.8,6c-3.9,0-7.4-0.9-10.4-2.7s-5.4-4.5-7-7.9
		s-2.5-7.4-2.5-12c0-7.1,1.8-12.6,5.3-16.6c3.6-4,8.5-5.9,14.8-5.9c6.1,0,10.9,2,14.5,6.1C394.6,391.8,396.4,397.3,396.4,404.2z
		 M363.2,404.2c0,5.6,1.1,9.8,3.3,12.7c2.2,2.9,5.5,4.4,9.8,4.4s7.6-1.5,9.8-4.4c2.2-2.9,3.4-7.2,3.4-12.7s-1.1-9.7-3.4-12.6
		c-2.2-2.9-5.5-4.3-9.9-4.3c-4.3,0-7.6,1.4-9.8,4.3C364.3,394.4,363.2,398.6,363.2,404.2z"/>
	<path fill="#324155" d="M425,381.7c1.9,0,3.7,0.2,5.2,0.5l-0.9,6.1c-1.8-0.4-3.4-0.6-4.8-0.6c-3.5,0-6.5,1.4-9,4.3
		c-2.5,2.9-3.8,6.4-3.8,10.7v23.4h-6.6v-43.6h5.4l0.8,8.1h0.3c1.6-2.8,3.6-5,5.8-6.6C419.8,382.5,422.3,381.7,425,381.7z"/>
	<path fill="#324155" d="M466,420.2h-0.4c-3,4.4-7.6,6.6-13.7,6.6c-5.7,0-10.1-1.9-13.3-5.8c-3.2-3.9-4.8-9.4-4.8-16.6
		c0-7.2,1.6-12.8,4.8-16.7c3.2-4,7.6-6,13.3-6c5.9,0,10.4,2.1,13.6,6.4h0.5l-0.3-3.1l-0.2-3.1v-17.7h6.6v61.9h-5.4L466,420.2z
		 M452.8,421.3c4.5,0,7.8-1.2,9.8-3.7s3-6.4,3-11.9v-1.4c0-6.2-1-10.6-3.1-13.2c-2.1-2.6-5.3-4-9.8-4c-3.9,0-6.8,1.5-8.9,4.5
		s-3.1,7.3-3.1,12.7c0,5.6,1,9.8,3.1,12.6C445.9,419.9,448.9,421.3,452.8,421.3z"/>
	<path fill="#324155" d="M521.7,384.9c0,5.9-2,10.4-6,13.6c-4,3.2-9.8,4.8-17.2,4.8h-6.8v22.9h-6.8v-58.1H500
		C514.4,367.9,521.7,373.6,521.7,384.9z M491.6,397.4h6.1c6,0,10.3-1,13-2.9s4-5,4-9.3c0-3.8-1.3-6.7-3.8-8.6
		c-2.5-1.9-6.4-2.8-11.8-2.8h-7.6L491.6,397.4L491.6,397.4z"/>
	<path fill="#324155" d="M549.9,381.7c1.9,0,3.7,0.2,5.2,0.5l-0.9,6.1c-1.8-0.4-3.4-0.6-4.8-0.6c-3.5,0-6.5,1.4-9,4.3
		c-2.5,2.9-3.8,6.4-3.8,10.7v23.4H530v-43.6h5.4l0.8,8.1h0.3c1.6-2.8,3.6-5,5.8-6.6C544.6,382.5,547.1,381.7,549.9,381.7z"/>
	<path fill="#324155" d="M579.2,426.9c-6.4,0-11.5-2-15.2-5.9s-5.6-9.4-5.6-16.3c0-7,1.7-12.6,5.2-16.7c3.5-4.1,8.1-6.2,13.9-6.2
		c5.5,0,9.8,1.8,13,5.4c3.2,3.6,4.8,8.3,4.8,14.2v4.2h-30c0.1,5.1,1.4,9,3.9,11.7s5.9,4,10.4,4c4.7,0,9.3-1,13.9-2.9v5.9
		c-2.3,1-4.5,1.7-6.6,2.2C584.6,426.6,582.1,426.9,579.2,426.9z M577.4,387.2c-3.5,0-6.3,1.1-8.4,3.4c-2.1,2.3-3.3,5.4-3.7,9.5h22.8
		c0-4.2-0.9-7.3-2.8-9.6C583.5,388.3,580.8,387.2,577.4,387.2z"/>
	<path fill="#324155" d="M633.8,414.2c0,4.1-1.5,7.2-4.5,9.4s-7.3,3.3-12.7,3.3c-5.8,0-10.3-0.9-13.5-2.7V418
		c2.1,1.1,4.3,1.9,6.7,2.5s4.7,0.9,6.9,0.9c3.4,0,6.1-0.5,8-1.7c1.9-1.1,2.8-2.8,2.8-5c0-1.7-0.7-3.1-2.2-4.4
		c-1.5-1.2-4.3-2.6-8.6-4.3c-4.1-1.5-6.9-2.8-8.6-4c-1.7-1.1-3-2.4-3.8-3.8c-0.8-1.4-1.3-3.1-1.3-5.1c0-3.6,1.4-6.4,4.3-8.4
		c2.9-2.1,6.9-3.1,11.9-3.1c4.7,0,9.3,1,13.8,2.9l-2.3,5.4c-4.4-1.8-8.3-2.7-11.9-2.7c-3.1,0-5.5,0.5-7.1,1.5s-2.4,2.3-2.4,4.1
		c0,1.2,0.3,2.2,0.9,3c0.6,0.8,1.6,1.6,2.9,2.3c1.3,0.7,3.9,1.8,7.6,3.2c5.2,1.9,8.7,3.8,10.5,5.7
		C632.9,408.9,633.8,411.3,633.8,414.2z"/>
	<path fill="#324155" d="M671.8,414.2c0,4.1-1.5,7.2-4.5,9.4s-7.3,3.3-12.7,3.3c-5.8,0-10.3-0.9-13.5-2.7V418
		c2.1,1.1,4.3,1.9,6.7,2.5s4.7,0.9,6.9,0.9c3.4,0,6.1-0.5,8-1.7c1.9-1.1,2.8-2.8,2.8-5c0-1.7-0.7-3.1-2.2-4.4
		c-1.5-1.2-4.3-2.6-8.6-4.3c-4.1-1.5-6.9-2.8-8.6-4c-1.7-1.1-3-2.4-3.8-3.8c-0.8-1.4-1.3-3.1-1.3-5.1c0-3.6,1.4-6.4,4.3-8.4
		c2.9-2.1,6.9-3.1,11.9-3.1c4.7,0,9.3,1,13.8,2.9l-2.3,5.4c-4.4-1.8-8.3-2.7-11.9-2.7c-3.1,0-5.5,0.5-7.1,1.5s-2.4,2.3-2.4,4.1
		c0,1.2,0.3,2.2,0.9,3c0.6,0.8,1.6,1.6,2.9,2.3c1.3,0.7,3.9,1.8,7.6,3.2c5.2,1.9,8.7,3.8,10.5,5.7
		C670.9,408.9,671.8,411.3,671.8,414.2z"/>
	<path fill="#324155" d="M682.4,421.9c0-1.8,0.4-3.1,1.2-4s2-1.4,3.5-1.4s2.7,0.5,3.6,1.4c0.9,0.9,1.3,2.3,1.3,4s-0.4,3-1.3,4
		c-0.9,0.9-2.1,1.4-3.6,1.4c-1.4,0-2.5-0.4-3.4-1.3C682.8,425.1,682.4,423.8,682.4,421.9z"/>
	<path fill="#324155" d="M720.2,426.9c-6.3,0-11.2-1.9-14.7-5.8c-3.5-3.9-5.2-9.4-5.2-16.5c0-7.3,1.8-12.9,5.3-16.9s8.5-6,15-6
		c2.1,0,4.2,0.2,6.3,0.7s3.7,1,4.9,1.6l-2,5.6c-1.5-0.6-3-1.1-4.8-1.5c-1.7-0.4-3.2-0.6-4.6-0.6c-8.9,0-13.3,5.6-13.3,16.9
		c0,5.4,1.1,9.5,3.2,12.3c2.2,2.9,5.4,4.3,9.6,4.3c3.6,0,7.4-0.8,11.2-2.3v5.8C728.3,426.1,724.7,426.9,720.2,426.9z"/>
	<path fill="#324155" d="M778,404.2c0,7.1-1.8,12.7-5.4,16.6s-8.5,6-14.8,6c-3.9,0-7.4-0.9-10.4-2.7s-5.4-4.5-7-7.9s-2.5-7.4-2.5-12
		c0-7.1,1.8-12.6,5.3-16.6c3.6-4,8.5-5.9,14.8-5.9c6.1,0,10.9,2,14.5,6.1C776.2,391.8,778,397.3,778,404.2z M744.8,404.2
		c0,5.6,1.1,9.8,3.3,12.7s5.5,4.4,9.8,4.4s7.6-1.5,9.8-4.4s3.4-7.2,3.4-12.7s-1.1-9.7-3.4-12.6c-2.2-2.9-5.5-4.3-9.9-4.3
		c-4.3,0-7.6,1.4-9.8,4.3C745.9,394.4,744.8,398.6,744.8,404.2z"/>
	<path fill="#324155" d="M841.9,426.1v-28.4c0-3.5-0.7-6.1-2.2-7.8s-3.8-2.6-6.9-2.6c-4.1,0-7.1,1.2-9.1,3.5c-2,2.4-2.9,6-2.9,10.9
		V426h-6.6v-28.4c0-3.5-0.7-6.1-2.2-7.8s-3.8-2.6-7-2.6c-4.1,0-7.2,1.2-9.1,3.7s-2.9,6.5-2.9,12.2V426h-6.6v-43.6h5.4l1.1,6h0.3
		c1.2-2.1,3-3.8,5.3-5s4.8-1.8,7.6-1.8c6.8,0,11.3,2.5,13.4,7.4h0.3c1.3-2.3,3.2-4.1,5.6-5.4c2.5-1.3,5.3-2,8.4-2
		c4.9,0,8.6,1.3,11.1,3.8s3.7,6.6,3.7,12.1v28.4h-6.7V426.1z"/>
</g>
<rect x="441.9" y="-16.1" fill="#D6F4FD" width="464.8" height="1.2"/>
<rect x="436.1" y="158.2" fill="#D6F4FD" width="476.4" height="1.2"/>
<rect x="441.9" y="-74.2" fill="#D6F4FD" width="464.8" height="1.2"/>
<rect x="436.1" y="-132.3" fill="#D6F4FD" width="476.4" height="1.2"/>
<rect x="673.7" y="-131.7" fill="#D6F4FD" width="1.2" height="290.5"/>
<rect x="615.6" y="-131.7" fill="#D6F4FD" width="1.2" height="290.5"/>
<rect x="557.5" y="-131.7" fill="#D6F4FD" width="1.2" height="290.5"/>
<rect x="731.8" y="-131.7" fill="#D6F4FD" width="1.2" height="290.5"/>
<rect x="789.9" y="-131.7" fill="#D6F4FD" width="1.2" height="290.5"/>
<rect x="441.3" y="-137.5" fill="#D6F4FD" width="1.2" height="302.1"/>
<rect x="906.1" y="-137.5" fill="#D6F4FD" width="1.2" height="302.1"/>
<rect x="848" y="-131.7" fill="#D6F4FD" width="1.2" height="290.5"/>
<rect x="441.9" y="42" fill="#93E3FB" width="464.8" height="1.2"/>
<rect x="499.4" y="-131.7" fill="#93E3FB" width="1.2" height="290.5"/>
<rect x="441.9" y="100.1" fill="#93E3FB" width="464.8" height="1.2"/>
<path fill="#324155" d="M674.3-73.6c-32,0-58.1,26.1-58.1,58.1s26.1,58.1,58.1,58.1s58.1-26.1,58.1-58.1
	C732.4-47.5,706.3-73.6,674.3-73.6z M622.1-15.5c0-7.6,1.6-14.8,4.5-21.3l24.9,68.3C634.1,23,622.1,5.2,622.1-15.5z M674.3,36.7
	c-5.1,0-10.1-0.8-14.8-2.1l15.7-45.5l16.1,44c0.1,0.3,0.2,0.5,0.4,0.7C686.2,35.7,680.4,36.7,674.3,36.7z M681.5-40
	c3.1-0.2,6-0.5,6-0.5c2.8-0.3,2.5-4.5-0.3-4.3c0,0-8.5,0.7-13.9,0.7c-5.1,0-13.8-0.7-13.8-0.7c-2.8-0.2-3.1,4.1-0.3,4.3
	c0,0,2.7,0.3,5.5,0.5l8.1,22.3l-11.4,34.3l-19-56.6c3.1-0.2,6-0.5,6-0.5c2.8-0.3,2.5-4.5-0.3-4.3c0,0-8.5,0.7-13.9,0.7
	c-1,0-2.1,0-3.4-0.1c9.3-14.2,25.4-23.5,43.6-23.5c13.6,0,26,5.2,35.3,13.7c-0.2,0-0.4,0-0.7,0c-5.1,0-8.8,4.5-8.8,9.3
	c0,4.3,2.5,7.9,5.1,12.3c2,3.5,4.3,7.9,4.3,14.4c0,4.5-1.3,10.1-4,16.9l-5.2,17.4L681.5-40z M700.6,29.7l16-46.1
	c3-7.5,4-13.4,4-18.7c0-1.9-0.1-3.7-0.4-5.4c4.1,7.4,6.4,16,6.4,25.1C726.5,3.8,716.1,20.6,700.6,29.7z"/>
<g>
	<path fill="#324155" d="M535.5,100.8h-4.1l-7.2-24c-0.3-1.1-0.7-2.4-1.2-4c-0.4-1.6-0.6-2.6-0.7-2.9c-0.4,2.2-0.9,4.5-1.7,7.1
		l-7,23.8h-4.1L500,65h4.4l5.7,22.1c0.8,3.1,1.4,5.9,1.7,8.4c0.4-3,1.1-5.9,2-8.8l6.4-21.8h4.4l6.7,21.9c0.8,2.5,1.4,5.4,2,8.6
		c0.3-2.3,0.9-5.1,1.8-8.5l5.6-22h4.4L535.5,100.8z"/>
	<path fill="#324155" d="M570.4,87.4c0,4.4-1.1,7.8-3.3,10.2c-2.2,2.5-5.2,3.7-9.1,3.7c-2.4,0-4.5-0.6-6.4-1.7s-3.3-2.7-4.3-4.8
		c-1-2.1-1.5-4.6-1.5-7.4c0-4.4,1.1-7.8,3.3-10.2c2.2-2.4,5.2-3.7,9.1-3.7c3.8,0,6.7,1.2,8.9,3.7C569.3,79.7,570.4,83.1,570.4,87.4z
		 M550,87.4c0,3.4,0.7,6,2.1,7.8c1.4,1.8,3.4,2.7,6,2.7c2.7,0,4.7-0.9,6.1-2.7c1.4-1.8,2.1-4.4,2.1-7.8s-0.7-6-2.1-7.8
		c-1.4-1.8-3.4-2.7-6.1-2.7c-2.7,0-4.7,0.9-6,2.6C550.7,81.3,550,83.9,550,87.4z"/>
	<path fill="#324155" d="M588,73.5c1.2,0,2.3,0.1,3.2,0.3l-0.6,3.8c-1.1-0.2-2.1-0.4-2.9-0.4c-2.2,0-4,0.9-5.6,2.6
		c-1.5,1.8-2.3,4-2.3,6.6v14.4h-4.1V74h3.4l0.5,5h0.2c1-1.7,2.2-3.1,3.6-4C584.8,74,586.3,73.5,588,73.5z"/>
	<path fill="#324155" d="M613.3,97.2H613c-1.9,2.7-4.7,4.1-8.4,4.1c-3.5,0-6.2-1.2-8.2-3.6c-1.9-2.4-2.9-5.8-2.9-10.2
		c0-4.4,1-7.9,2.9-10.3c2-2.4,4.7-3.7,8.2-3.7c3.6,0,6.4,1.3,8.4,4h0.3l-0.2-1.9l-0.1-1.9V62.8h4.1v38.1h-3.3L613.3,97.2z
		 M605.1,97.9c2.8,0,4.8-0.8,6-2.3s1.9-3.9,1.9-7.3v-0.9c0-3.8-0.6-6.5-1.9-8.1c-1.3-1.6-3.3-2.4-6.1-2.4c-2.4,0-4.2,0.9-5.5,2.8
		s-1.9,4.5-1.9,7.8c0,3.4,0.6,6,1.9,7.8C600.9,97,602.7,97.9,605.1,97.9z"/>
	<path fill="#324155" d="M647.5,75.4c0,3.6-1.2,6.4-3.7,8.4c-2.5,1.9-6,2.9-10.6,2.9H629v14.1h-4.2V65h9.3
		C643,65,647.5,68.5,647.5,75.4z M629,83.1h3.7c3.7,0,6.4-0.6,8-1.8c1.6-1.2,2.5-3.1,2.5-5.7c0-2.4-0.8-4.1-2.3-5.3
		c-1.6-1.2-4-1.7-7.2-1.7H629V83.1z"/>
	<path fill="#324155" d="M664.9,73.5c1.2,0,2.3,0.1,3.2,0.3l-0.6,3.8c-1.1-0.2-2.1-0.4-2.9-0.4c-2.2,0-4,0.9-5.6,2.6
		c-1.5,1.8-2.3,4-2.3,6.6v14.4h-4.1V74h3.4l0.5,5h0.2c1-1.7,2.2-3.1,3.6-4C661.6,74,663.2,73.5,664.9,73.5z"/>
	<path fill="#324155" d="M682.9,101.3c-4,0-7.1-1.2-9.4-3.6c-2.3-2.4-3.4-5.8-3.4-10.1c0-4.3,1.1-7.8,3.2-10.3
		c2.1-2.5,5-3.8,8.6-3.8c3.4,0,6,1.1,8,3.3c2,2.2,2.9,5.1,2.9,8.7v2.6h-18.5c0.1,3.1,0.9,5.5,2.4,7.2c1.5,1.6,3.6,2.4,6.4,2.4
		c2.9,0,5.7-0.6,8.6-1.8v3.6c-1.4,0.6-2.8,1.1-4.1,1.3C686.3,101.1,684.7,101.3,682.9,101.3z M681.8,76.9c-2.2,0-3.9,0.7-5.2,2.1
		s-2,3.3-2.3,5.8h14c0-2.6-0.6-4.5-1.7-5.9C685.6,77.6,683.9,76.9,681.8,76.9z"/>
	<path fill="#324155" d="M716.5,93.5c0,2.5-0.9,4.4-2.8,5.8c-1.9,1.4-4.5,2-7.8,2c-3.6,0-6.3-0.6-8.3-1.7v-3.8
		c1.3,0.7,2.7,1.2,4.1,1.5c1.5,0.4,2.9,0.6,4.3,0.6c2.1,0,3.8-0.3,4.9-1c1.1-0.7,1.7-1.7,1.7-3.1c0-1-0.5-1.9-1.4-2.7
		c-0.9-0.7-2.7-1.6-5.3-2.6c-2.5-0.9-4.3-1.7-5.3-2.4c-1.1-0.7-1.8-1.5-2.3-2.4s-0.8-1.9-0.8-3.2c0-2.2,0.9-3.9,2.7-5.2
		c1.8-1.3,4.2-1.9,7.3-1.9c2.9,0,5.7,0.6,8.5,1.8l-1.4,3.3c-2.7-1.1-5.1-1.7-7.3-1.7c-1.9,0-3.4,0.3-4.4,0.9s-1.5,1.4-1.5,2.5
		c0,0.7,0.2,1.3,0.6,1.8c0.4,0.5,1,1,1.8,1.4c0.8,0.5,2.4,1.1,4.7,2c3.2,1.2,5.3,2.3,6.4,3.5C715.9,90.2,716.5,91.7,716.5,93.5z"/>
	<path fill="#324155" d="M739.9,93.5c0,2.5-0.9,4.4-2.8,5.8c-1.9,1.4-4.5,2-7.8,2c-3.6,0-6.3-0.6-8.3-1.7v-3.8
		c1.3,0.7,2.7,1.2,4.1,1.5c1.5,0.4,2.9,0.6,4.3,0.6c2.1,0,3.8-0.3,4.9-1c1.1-0.7,1.7-1.7,1.7-3.1c0-1-0.5-1.9-1.4-2.7
		c-0.9-0.7-2.7-1.6-5.3-2.6c-2.5-0.9-4.3-1.7-5.3-2.4c-1.1-0.7-1.8-1.5-2.3-2.4s-0.8-1.9-0.8-3.2c0-2.2,0.9-3.9,2.7-5.2
		c1.8-1.3,4.2-1.9,7.3-1.9c2.9,0,5.7,0.6,8.5,1.8l-1.4,3.3c-2.7-1.1-5.1-1.7-7.3-1.7c-1.9,0-3.4,0.3-4.4,0.9s-1.5,1.4-1.5,2.5
		c0,0.7,0.2,1.3,0.6,1.8c0.4,0.5,1,1,1.8,1.4c0.8,0.5,2.4,1.1,4.7,2c3.2,1.2,5.3,2.3,6.4,3.5C739.3,90.2,739.9,91.7,739.9,93.5z"/>
	<path fill="#324155" d="M746.4,98.2c0-1.1,0.2-1.9,0.7-2.5s1.2-0.8,2.1-0.8c0.9,0,1.7,0.3,2.2,0.8c0.5,0.6,0.8,1.4,0.8,2.5
		s-0.3,1.9-0.8,2.4c-0.5,0.6-1.3,0.9-2.2,0.9c-0.8,0-1.5-0.3-2.1-0.8C746.7,100.2,746.4,99.4,746.4,98.2z"/>
	<path fill="#324155" d="M769.7,101.3c-3.9,0-6.9-1.2-9-3.6s-3.2-5.8-3.2-10.1c0-4.5,1.1-8,3.2-10.4c2.2-2.4,5.2-3.7,9.2-3.7
		c1.3,0,2.6,0.1,3.9,0.4c1.3,0.3,2.3,0.6,3,1l-1.2,3.5c-0.9-0.4-1.9-0.7-2.9-0.9c-1.1-0.2-2-0.4-2.8-0.4c-5.4,0-8.2,3.5-8.2,10.4
		c0,3.3,0.7,5.8,2,7.6s3.3,2.6,5.9,2.6c2.2,0,4.5-0.5,6.9-1.4v3.6C774.7,100.8,772.4,101.3,769.7,101.3z"/>
	<path fill="#324155" d="M805.2,87.4c0,4.4-1.1,7.8-3.3,10.2c-2.2,2.5-5.2,3.7-9.1,3.7c-2.4,0-4.5-0.6-6.4-1.7s-3.3-2.7-4.3-4.8
		c-1-2.1-1.5-4.6-1.5-7.4c0-4.4,1.1-7.8,3.3-10.2c2.2-2.4,5.2-3.7,9.1-3.7c3.8,0,6.7,1.2,8.9,3.7C804.1,79.7,805.2,83.1,805.2,87.4z
		 M784.8,87.4c0,3.4,0.7,6,2.1,7.8c1.4,1.8,3.4,2.7,6,2.7c2.7,0,4.7-0.9,6.1-2.7c1.4-1.8,2.1-4.4,2.1-7.8s-0.7-6-2.1-7.8
		c-1.4-1.8-3.4-2.7-6.1-2.7c-2.7,0-4.7,0.9-6,2.6C785.5,81.3,784.8,83.9,784.8,87.4z"/>
	<path fill="#324155" d="M844.5,100.8V83.4c0-2.1-0.5-3.7-1.4-4.8c-0.9-1.1-2.3-1.6-4.3-1.6c-2.5,0-4.4,0.7-5.6,2.2
		c-1.2,1.5-1.8,3.7-1.8,6.7v15h-4.1V83.5c0-2.1-0.5-3.7-1.4-4.8c-0.9-1.1-2.3-1.6-4.3-1.6c-2.5,0-4.4,0.8-5.6,2.3s-1.8,4-1.8,7.5
		V101h-4.1V74h3.3l0.7,3.7h0.2c0.8-1.3,1.8-2.3,3.2-3.1c1.4-0.7,3-1.1,4.7-1.1c4.2,0,6.9,1.5,8.2,4.6h0.2c0.8-1.4,2-2.5,3.5-3.3
		s3.2-1.2,5.2-1.2c3,0,5.3,0.8,6.8,2.3c1.5,1.6,2.3,4,2.3,7.5v17.5h-3.9V100.8z"/>
</g>
<rect x="93.3" y="-16.1" fill="#D6F4FD" width="232.4" height="1.2"/>
<rect x="151.4" y="13" fill="#D6F4FD" width="174.3" height="1.2"/>
<rect x="93.3" y="-74.2" fill="#D6F4FD" width="232.4" height="1.2"/>
<rect x="151.4" y="-45.1" fill="#D6F4FD" width="174.3" height="1.2"/>
<rect x="87.5" y="-132.3" fill="#D6F4FD" width="244" height="1.2"/>
<rect x="208.9" y="-131.7" fill="#D6F4FD" width="1.2" height="232.4"/>
<rect x="92.7" y="-137.5" fill="#93E3FB" width="1.2" height="244"/>
<rect x="325.1" y="-137.5" fill="#D6F4FD" width="1.2" height="244"/>
<rect x="69.4" y="42.2" transform="matrix(0.7071 -0.7071 0.7071 0.7071 14.0176 119.452)" fill="#D6F4FD" width="163.7" height="1.2"/>
<rect x="93.3" y="123.9" fill="#B2E5F4" width="58.1" height="3.5"/>
<rect x="151.4" y="123.9" fill="#00AADC" width="116.2" height="3.5"/>
<text transform="matrix(1 0 0 1 200.3369 150.6685)" fill="#00AADC" font-family="'OpenSans-Semibold'" font-size="16.2676">W</text>
<text transform="matrix(1 0 0 1 115.4858 150.6685)" fill="#00AADC" font-family="'OpenSans-Semibold'" font-size="16.2676">X</text>
<text transform="matrix(1 0 0 1 102.8352 167.3696)" fill="#00AADC" font-family="'OpenSans-Semibold'" font-size="13.9437">(W/2)</text>
<rect x="93.3" y="42" fill="#93E3FB" width="232.4" height="1.2"/>
<rect x="87.5" y="100.1" fill="#93E3FB" width="244" height="1.2"/>
<rect x="150.8" y="-131.7" fill="#93E3FB" width="1.2" height="232.4"/>
<rect x="267" y="-131.7" fill="#93E3FB" width="1.2" height="232.4"/>
<path fill="#324155" d="M209.5-73.6c-32,0-58.1,26.1-58.1,58.1s26.1,58.1,58.1,58.1s58.1-26.1,58.1-58.1S241.5-73.6,209.5-73.6z
	 M157.3-15.5c0-7.6,1.6-14.8,4.5-21.3l24.9,68.3C169.3,23,157.3,5.2,157.3-15.5z M209.5,36.7c-5.1,0-10.1-0.8-14.8-2.1l15.7-45.5
	l16.1,44c0.1,0.3,0.2,0.5,0.4,0.7C221.4,35.7,215.6,36.7,209.5,36.7z M216.7-40c3.1-0.2,6-0.5,6-0.5c2.8-0.3,2.5-4.5-0.3-4.3
	c0,0-8.5,0.7-13.9,0.7c-5.1,0-13.8-0.7-13.8-0.7c-2.8-0.2-3.1,4.1-0.3,4.3c0,0,2.7,0.3,5.5,0.5l8.1,22.3l-11.4,34.3l-19-56.6
	c3.1-0.2,6-0.5,6-0.5c2.8-0.3,2.5-4.5-0.3-4.3c0,0-8.5,0.7-13.9,0.7c-1,0-2.1,0-3.4-0.1c9.3-14.2,25.4-23.5,43.6-23.5
	c13.6,0,26,5.2,35.3,13.7c-0.2,0-0.4,0-0.7,0c-5.1,0-8.8,4.5-8.8,9.3c0,4.3,2.5,7.9,5.1,12.3c2,3.5,4.3,7.9,4.3,14.4
	c0,4.5-1.3,10.1-4,16.9l-5.2,17.4L216.7-40z M235.8,29.7l16-46.1c3-7.5,4-13.4,4-18.7c0-1.9-0.1-3.7-0.4-5.4
	c4.1,7.4,6.4,16,6.4,25.1C261.7,3.8,251.3,20.6,235.8,29.7z"/>
</svg>
