<?xml version="1.0" encoding="utf-8"?>
<!-- Generator: Adobe Illustrator 18.0.0, SVG Export Plug-In . SVG Version: 6.00 Build 0)  -->
<!DOCTYPE svg PUBLIC "-//W3C//DTD SVG 1.1//EN" "http://www.w3.org/Graphics/SVG/1.1/DTD/svg11.dtd">
<svg version="1.1" id="Layer_1" xmlns="http://www.w3.org/2000/svg" xmlns:xlink="http://www.w3.org/1999/xlink" x="0px" y="0px"
	 viewBox="0 0 1000 600" enable-background="new 0 0 1000 600" xml:space="preserve">
<rect fill="#FFFFFF" width="1000" height="1020.3"/>
<g>
	<rect x="87.5" y="399.1" fill="#D6F4FD" width="825" height="1"/>
	<rect x="190.3" y="368" fill="#93E3FB" width="1" height="63.5"/>
	<rect x="500.1" y="368" fill="#93E3FB" width="1" height="63.5"/>
	<rect x="532.3" y="368" fill="#93E3FB" width="1" height="63.5"/>
	<rect x="87.5" y="430.8" fill="#93E3FB" width="126.9" height="1"/>
	<rect x="146.4" y="414.9" fill="#E4645E" width="766.1" height="1"/>
	<rect x="87.5" y="367.3" fill="#93E3FB" width="126.9" height="1"/>
	<rect x="146.4" y="383.2" fill="#93E3FB" width="766.1" height="1"/>
	<rect x="182.7" y="450.5" fill="#B2E5F4" width="8.2" height="1.9"/>
	<rect x="119.2" y="450.5" fill="#00AADC" width="63.5" height="1.9"/>
	<text transform="matrix(1 0 0 1 144.6583 472.0992)" fill="#00AADC" font-family="'OpenSans-Semibold'" font-size="14">W</text>
	<text transform="matrix(1 0 0 1 182.7577 472.0991)"><tspan x="0" y="0" fill="#00AADC" font-family="'OpenSans-Semibold'" font-size="14">Z</tspan><tspan x="-12.4" y="14.4" fill="#80D4ED" font-family="'OpenSans-Semibold'" font-size="12">(W/8)</tspan></text>
	<rect x="500.3" y="450.5" fill="#B2E5F4" width="32.2" height="1.9"/>
	<text transform="matrix(1 0 0 1 512.0558 472.0991)"><tspan x="0" y="0" fill="#00AADC" font-family="'OpenSans-Semibold'" font-size="14">X</tspan><tspan x="-12.1" y="14.4" fill="#80D4ED" font-family="'OpenSans-Semibold'" font-size="12">(W/2)</tspan></text>
	<path fill="#324155" d="M151,368c-17.5,0-31.7,14.2-31.7,31.7c0,17.5,14.2,31.7,31.7,31.7c17.5,0,31.7-14.2,31.7-31.7
		C182.7,382.2,168.5,368,151,368z M122.4,399.7c0-4.1,0.9-8.1,2.5-11.6l13.6,37.3C129,420.8,122.4,411,122.4,399.7z M151,428.3
		c-2.8,0-5.5-0.4-8.1-1.2l8.6-24.9l8.8,24c0.1,0.1,0.1,0.3,0.2,0.4C157.5,427.7,154.3,428.3,151,428.3z M154.9,386.4
		c1.7-0.1,3.3-0.3,3.3-0.3c1.5-0.2,1.4-2.4-0.2-2.4c0,0-4.6,0.4-7.6,0.4c-2.8,0-7.5-0.4-7.5-0.4c-1.5-0.1-1.7,2.3-0.2,2.4
		c0,0,1.5,0.2,3,0.3l4.4,12.2l-6.2,18.7l-10.4-30.9c1.7-0.1,3.3-0.3,3.3-0.3c1.5-0.2,1.4-2.4-0.2-2.4c0,0-4.6,0.4-7.6,0.4
		c-0.5,0-1.2,0-1.8,0c5.1-7.7,13.9-12.9,23.8-12.9c7.4,0,14.2,2.8,19.3,7.5c-0.1,0-0.2,0-0.4,0c-2.8,0-4.8,2.4-4.8,5.1
		c0,2.4,1.4,4.3,2.8,6.7c1.1,1.9,2.4,4.3,2.4,7.9c0,2.4-0.7,5.5-2.2,9.2l-2.8,9.5L154.9,386.4z M165.3,424.4l8.7-25.2
		c1.6-4.1,2.2-7.3,2.2-10.2c0-1.1-0.1-2-0.2-2.9c2.2,4.1,3.5,8.7,3.5,13.7C179.5,410.3,173.8,419.4,165.3,424.4z"/>
	<path fill="#324155" d="M222,415.6h-3.6l-6.4-21.3c-0.3-0.9-0.6-2.1-1-3.6c-0.4-1.4-0.6-2.3-0.6-2.6c-0.3,1.9-0.8,4-1.5,6.3
		l-6.2,21.1H199l-8.4-31.8h3.9l5,19.6c0.7,2.8,1.2,5.2,1.5,7.5c0.4-2.6,1-5.2,1.7-7.8l5.7-19.3h3.9l6,19.5c0.7,2.2,1.3,4.8,1.8,7.6
		c0.3-2.1,0.8-4.6,1.6-7.5l5-19.6h3.9L222,415.6z"/>
	<path fill="#324155" d="M253,403.7c0,3.9-1,6.9-2.9,9.1c-2,2.2-4.7,3.3-8.1,3.3c-2.1,0-4-0.5-5.7-1.5c-1.7-1-2.9-2.4-3.8-4.3
		c-0.9-1.9-1.3-4.1-1.3-6.6c0-3.9,1-6.9,2.9-9.1c1.9-2.2,4.6-3.2,8.1-3.2c3.3,0,6,1.1,7.9,3.3C252.1,396.9,253,399.9,253,403.7z
		 M234.9,403.7c0,3,0.6,5.4,1.8,6.9c1.2,1.6,3,2.4,5.4,2.4c2.4,0,4.2-0.8,5.4-2.4c1.2-1.6,1.8-3.9,1.8-7c0-3-0.6-5.3-1.8-6.9
		c-1.2-1.6-3-2.4-5.4-2.4c-2.4,0-4.1,0.8-5.3,2.3C235.5,398.3,234.9,400.6,234.9,403.7z"/>
	<path fill="#324155" d="M268.7,391.4c1.1,0,2,0.1,2.8,0.3L271,395c-1-0.2-1.9-0.3-2.6-0.3c-1.9,0-3.6,0.8-4.9,2.3
		c-1.4,1.6-2.1,3.5-2.1,5.8v12.8h-3.6v-23.8h3l0.4,4.4h0.2c0.9-1.5,1.9-2.7,3.2-3.6S267.2,391.4,268.7,391.4z"/>
	<path fill="#324155" d="M291,412.4h-0.2c-1.7,2.4-4.2,3.6-7.5,3.6c-3.1,0-5.5-1.1-7.3-3.2c-1.7-2.1-2.6-5.2-2.6-9.1
		c0-3.9,0.9-7,2.6-9.1c1.7-2.2,4.2-3.3,7.3-3.3c3.2,0,5.7,1.2,7.4,3.5h0.3l-0.2-1.7l-0.1-1.7v-9.7h3.6v33.8h-2.9L291,412.4z
		 M283.8,413c2.5,0,4.2-0.7,5.4-2c1.1-1.3,1.7-3.5,1.7-6.5v-0.8c0-3.4-0.6-5.8-1.7-7.2c-1.1-1.4-2.9-2.2-5.4-2.2
		c-2.1,0-3.7,0.8-4.9,2.5c-1.1,1.6-1.7,4-1.7,7c0,3,0.6,5.3,1.7,6.9C280,412.2,281.7,413,283.8,413z"/>
	<path fill="#324155" d="M321.4,393.1c0,3.2-1.1,5.7-3.3,7.4c-2.2,1.7-5.3,2.6-9.4,2.6H305v12.5h-3.7v-31.8h8.2
		C317.5,383.9,321.4,386.9,321.4,393.1z M305,399.9h3.3c3.3,0,5.6-0.5,7.1-1.6c1.5-1.1,2.2-2.8,2.2-5.1c0-2.1-0.7-3.7-2.1-4.7
		c-1.4-1-3.5-1.5-6.4-1.5H305V399.9z"/>
	<path fill="#324155" d="M336.8,391.4c1.1,0,2,0.1,2.8,0.3l-0.5,3.3c-1-0.2-1.9-0.3-2.6-0.3c-1.9,0-3.6,0.8-4.9,2.3
		c-1.4,1.6-2.1,3.5-2.1,5.8v12.8H326v-23.8h3l0.4,4.4h0.2c0.9-1.5,1.9-2.7,3.2-3.6C334,391.8,335.4,391.4,336.8,391.4z"/>
	<path fill="#324155" d="M352.9,416c-3.5,0-6.3-1.1-8.3-3.2c-2-2.1-3.1-5.1-3.1-8.9c0-3.8,0.9-6.9,2.8-9.1c1.9-2.3,4.4-3.4,7.6-3.4
		c3,0,5.3,1,7.1,2.9c1.7,2,2.6,4.5,2.6,7.8v2.3h-16.4c0.1,2.8,0.8,4.9,2.1,6.4s3.2,2.2,5.7,2.2c2.6,0,5.1-0.5,7.6-1.6v3.2
		c-1.3,0.6-2.5,0.9-3.6,1.2C355.8,415.9,354.5,416,352.9,416z M351.9,394.4c-1.9,0-3.4,0.6-4.6,1.9c-1.1,1.2-1.8,3-2,5.2h12.4
		c0-2.3-0.5-4-1.5-5.2C355.2,395,353.8,394.4,351.9,394.4z"/>
	<path fill="#324155" d="M382.7,409.1c0,2.2-0.8,3.9-2.5,5.1c-1.7,1.2-4,1.8-6.9,1.8c-3.2,0-5.6-0.5-7.4-1.5v-3.3
		c1.1,0.6,2.4,1,3.7,1.4c1.3,0.3,2.6,0.5,3.8,0.5c1.9,0,3.3-0.3,4.3-0.9c1-0.6,1.5-1.5,1.5-2.7c0-0.9-0.4-1.7-1.2-2.4
		c-0.8-0.7-2.4-1.4-4.7-2.3c-2.2-0.8-3.8-1.5-4.7-2.2c-0.9-0.6-1.6-1.3-2.1-2.1c-0.5-0.8-0.7-1.7-0.7-2.8c0-1.9,0.8-3.5,2.4-4.6
		c1.6-1.1,3.7-1.7,6.5-1.7c2.6,0,5.1,0.5,7.5,1.6l-1.3,2.9c-2.4-1-4.6-1.5-6.5-1.5c-1.7,0-3,0.3-3.9,0.8c-0.9,0.5-1.3,1.3-1.3,2.2
		c0,0.6,0.2,1.2,0.5,1.6c0.3,0.4,0.9,0.9,1.6,1.3c0.7,0.4,2.1,1,4.2,1.8c2.8,1,4.7,2.1,5.7,3.1C382.2,406.2,382.7,407.5,382.7,409.1
		z"/>
	<path fill="#324155" d="M403.4,409.1c0,2.2-0.8,3.9-2.5,5.1c-1.7,1.2-4,1.8-6.9,1.8c-3.2,0-5.6-0.5-7.4-1.5v-3.3
		c1.1,0.6,2.4,1,3.7,1.4c1.3,0.3,2.6,0.5,3.8,0.5c1.9,0,3.3-0.3,4.3-0.9c1-0.6,1.5-1.5,1.5-2.7c0-0.9-0.4-1.7-1.2-2.4
		c-0.8-0.7-2.4-1.4-4.7-2.3c-2.2-0.8-3.8-1.5-4.7-2.2c-0.9-0.6-1.6-1.3-2.1-2.1c-0.5-0.8-0.7-1.7-0.7-2.8c0-1.9,0.8-3.5,2.4-4.6
		c1.6-1.1,3.7-1.7,6.5-1.7c2.6,0,5.1,0.5,7.5,1.6l-1.3,2.9c-2.4-1-4.6-1.5-6.5-1.5c-1.7,0-3,0.3-3.9,0.8c-0.9,0.5-1.3,1.3-1.3,2.2
		c0,0.6,0.2,1.2,0.5,1.6c0.3,0.4,0.9,0.9,1.6,1.3c0.7,0.4,2.1,1,4.2,1.8c2.8,1,4.7,2.1,5.7,3.1C403,406.2,403.4,407.5,403.4,409.1z"
		/>
	<path fill="#324155" d="M409.2,413.3c0-1,0.2-1.7,0.7-2.2c0.4-0.5,1.1-0.7,1.9-0.7c0.8,0,1.5,0.2,2,0.7c0.5,0.5,0.7,1.2,0.7,2.2
		c0,0.9-0.2,1.7-0.7,2.2c-0.5,0.5-1.1,0.8-2,0.8c-0.7,0-1.4-0.2-1.8-0.7C409.5,415.1,409.2,414.3,409.2,413.3z"/>
	<path fill="#324155" d="M429.9,416c-3.4,0-6.1-1.1-8-3.2c-1.9-2.1-2.8-5.1-2.8-9c0-4,1-7.1,2.9-9.2c1.9-2.2,4.7-3.3,8.2-3.3
		c1.1,0,2.3,0.1,3.4,0.4c1.1,0.2,2,0.5,2.7,0.9l-1.1,3.1c-0.8-0.3-1.7-0.6-2.6-0.8c-0.9-0.2-1.8-0.3-2.5-0.3c-4.8,0-7.3,3.1-7.3,9.3
		c0,2.9,0.6,5.2,1.8,6.7c1.2,1.6,2.9,2.3,5.2,2.3c2,0,4-0.4,6.1-1.3v3.2C434.3,415.6,432.3,416,429.9,416z"/>
	<path fill="#324155" d="M461.4,403.7c0,3.9-1,6.9-2.9,9.1c-2,2.2-4.7,3.3-8.1,3.3c-2.1,0-4-0.5-5.7-1.5c-1.7-1-2.9-2.4-3.8-4.3
		c-0.9-1.9-1.3-4.1-1.3-6.6c0-3.9,1-6.9,2.9-9.1c1.9-2.2,4.6-3.2,8.1-3.2c3.3,0,6,1.1,7.9,3.3C460.5,396.9,461.4,399.9,461.4,403.7z
		 M443.3,403.7c0,3,0.6,5.4,1.8,6.9c1.2,1.6,3,2.4,5.4,2.4c2.4,0,4.2-0.8,5.4-2.4c1.2-1.6,1.8-3.9,1.8-7c0-3-0.6-5.3-1.8-6.9
		c-1.2-1.6-3-2.4-5.4-2.4c-2.4,0-4.1,0.8-5.3,2.3C443.9,398.3,443.3,400.6,443.3,403.7z"/>
	<path fill="#324155" d="M496.3,415.6v-15.5c0-1.9-0.4-3.3-1.2-4.3c-0.8-0.9-2.1-1.4-3.8-1.4c-2.2,0-3.9,0.6-5,1.9
		c-1.1,1.3-1.6,3.3-1.6,6v13.3h-3.6v-15.5c0-1.9-0.4-3.3-1.2-4.3c-0.8-0.9-2.1-1.4-3.8-1.4c-2.3,0-3.9,0.7-5,2
		c-1,1.4-1.6,3.6-1.6,6.7v12.5H466v-23.8h2.9l0.6,3.3h0.2c0.7-1.2,1.6-2.1,2.9-2.7c1.2-0.7,2.6-1,4.2-1c3.7,0,6.2,1.3,7.3,4h0.2
		c0.7-1.2,1.7-2.2,3.1-3c1.3-0.7,2.9-1.1,4.6-1.1c2.7,0,4.7,0.7,6,2.1c1.3,1.4,2,3.6,2,6.6v15.5H496.3z"/>
	<g>
		<path fill="#324155" d="M551.6,403.5c0,3.9-1.1,6.9-3.3,9c-2.2,2.1-5.3,3.1-9.4,3.1h-6.7v-23.8h7.4c3.8,0,6.7,1,8.8,3.1
			C550.5,396.9,551.6,399.8,551.6,403.5z M547.5,403.6c0-5.7-2.7-8.5-8-8.5h-3.4v17.3h2.8C544.6,412.3,547.5,409.4,547.5,403.6z"/>
		<path fill="#324155" d="M571.1,415.6h-13.5v-23.8h13.5v3.3h-9.6v6.5h9v3.3h-9v7.5h9.6V415.6z"/>
		<path fill="#324155" d="M591,409.2c0,2.1-0.8,3.8-2.3,5c-1.5,1.2-3.6,1.8-6.3,1.8s-4.9-0.4-6.6-1.3V411c1.1,0.5,2.2,0.9,3.5,1.2
			c1.2,0.3,2.4,0.4,3.4,0.4c1.5,0,2.7-0.3,3.4-0.9c0.7-0.6,1.1-1.4,1.1-2.4c0-0.9-0.3-1.6-1-2.3s-2.1-1.4-4.2-2.2
			c-2.2-0.9-3.7-1.9-4.6-3c-0.9-1.1-1.3-2.5-1.3-4.1c0-2,0.7-3.5,2.1-4.7c1.4-1.1,3.3-1.7,5.7-1.7c2.3,0,4.5,0.5,6.8,1.5l-1.2,3.2
			c-2.1-0.9-4-1.3-5.7-1.3c-1.3,0-2.2,0.3-2.9,0.8c-0.7,0.5-1,1.3-1,2.2c0,0.6,0.1,1.1,0.4,1.6c0.3,0.4,0.7,0.9,1.3,1.2
			s1.7,0.9,3.2,1.5c1.7,0.7,3,1.4,3.8,2c0.8,0.6,1.4,1.3,1.8,2.1S591,408.1,591,409.2z"/>
		<path fill="#324155" d="M596.6,415.6v-23.8h3.9v23.8H596.6z"/>
		<path fill="#324155" d="M617.5,402.7h8.8v11.9c-1.4,0.5-2.8,0.8-4.1,1c-1.3,0.2-2.7,0.3-4.3,0.3c-3.6,0-6.4-1.1-8.3-3.2
			c-2-2.1-2.9-5.1-2.9-9c0-3.8,1.1-6.8,3.3-9c2.2-2.2,5.2-3.2,9.1-3.2c2.5,0,4.8,0.5,7.1,1.4l-1.4,3.2c-1.9-0.9-3.9-1.3-5.8-1.3
			c-2.5,0-4.5,0.8-6,2.4c-1.5,1.6-2.2,3.8-2.2,6.5c0,2.9,0.7,5.1,2,6.6c1.3,1.5,3.2,2.3,5.7,2.3c1.3,0,2.6-0.2,4-0.5V406h-4.9V402.7
			z"/>
		<path fill="#324155" d="M652.7,415.6H648l-11.7-19h-0.1l0.1,1.1c0.2,2,0.2,3.9,0.2,5.5v12.4h-3.5v-23.8h4.7l11.7,18.9h0.1
			c0-0.2-0.1-1.2-0.1-2.7c-0.1-1.6-0.1-2.8-0.1-3.7v-12.5h3.6V415.6z"/>
		<path fill="#324155" d="M688.4,415.6h-3.9v-10.7h-11v10.7h-3.9v-23.8h3.9v9.7h11v-9.7h3.9V415.6z"/>
		<path fill="#324155" d="M710.5,415.6l-2.4-6.6H699l-2.3,6.6h-4.1l8.9-23.9h4.2l8.9,23.9H710.5z M707.1,405.7l-2.2-6.5
			c-0.2-0.4-0.4-1.1-0.7-2c-0.3-0.9-0.5-1.6-0.6-2c-0.3,1.3-0.7,2.8-1.3,4.4l-2.1,6.2H707.1z"/>
		<path fill="#324155" d="M738.5,415.6h-4.8l-11.7-19h-0.1l0.1,1.1c0.2,2,0.2,3.9,0.2,5.5v12.4h-3.5v-23.8h4.7l11.7,18.9h0.1
			c0-0.2-0.1-1.2-0.1-2.7c-0.1-1.6-0.1-2.8-0.1-3.7v-12.5h3.6V415.6z"/>
		<path fill="#324155" d="M765.2,403.5c0,3.9-1.1,6.9-3.3,9c-2.2,2.1-5.3,3.1-9.4,3.1h-6.7v-23.8h7.4c3.8,0,6.7,1,8.8,3.1
			C764.1,396.9,765.2,399.8,765.2,403.5z M761.1,403.6c0-5.7-2.7-8.5-8-8.5h-3.4v17.3h2.8C758.2,412.3,761.1,409.4,761.1,403.6z"/>
		<path fill="#324155" d="M771.3,391.8h7.1c3.3,0,5.6,0.5,7.1,1.4c1.5,1,2.2,2.5,2.2,4.5c0,1.4-0.4,2.5-1.1,3.5
			c-0.7,0.9-1.7,1.5-3.1,1.7v0.2c1.7,0.3,2.9,0.9,3.7,1.9c0.8,0.9,1.2,2.2,1.2,3.8c0,2.1-0.7,3.8-2.2,5c-1.5,1.2-3.6,1.8-6.2,1.8
			h-8.6V391.8z M775.2,401.7h3.7c1.6,0,2.8-0.3,3.6-0.8c0.7-0.5,1.1-1.4,1.1-2.6c0-1.1-0.4-1.9-1.2-2.4c-0.8-0.5-2.1-0.7-3.8-0.7
			h-3.4V401.7z M775.2,404.8v7.5h4.1c1.6,0,2.9-0.3,3.7-0.9c0.8-0.6,1.2-1.6,1.2-3c0-1.2-0.4-2.2-1.3-2.7s-2.1-0.9-3.9-0.9H775.2z"
			/>
		<path fill="#324155" d="M815.4,403.7c0,3.9-1,6.9-2.9,9c-1.9,2.1-4.7,3.2-8.2,3.2c-3.6,0-6.3-1.1-8.3-3.2
			c-1.9-2.1-2.9-5.2-2.9-9.1c0-3.9,1-6.9,2.9-9c1.9-2.1,4.7-3.2,8.3-3.2c3.5,0,6.3,1.1,8.2,3.2C814.4,396.8,815.4,399.8,815.4,403.7
			z M797.2,403.7c0,2.9,0.6,5.1,1.8,6.7c1.2,1.5,2.9,2.3,5.3,2.3c2.3,0,4.1-0.7,5.2-2.2c1.2-1.5,1.8-3.7,1.8-6.7
			c0-2.9-0.6-5.1-1.7-6.6c-1.2-1.5-2.9-2.3-5.2-2.3c-2.3,0-4.1,0.8-5.3,2.3C797.8,398.6,797.2,400.8,797.2,403.7z"/>
		<path fill="#324155" d="M842.6,403.7c0,3.9-1,6.9-2.9,9c-1.9,2.1-4.7,3.2-8.2,3.2c-3.6,0-6.3-1.1-8.3-3.2
			c-1.9-2.1-2.9-5.2-2.9-9.1c0-3.9,1-6.9,2.9-9c1.9-2.1,4.7-3.2,8.3-3.2c3.5,0,6.3,1.1,8.2,3.2C841.6,396.8,842.6,399.8,842.6,403.7
			z M824.5,403.7c0,2.9,0.6,5.1,1.8,6.7c1.2,1.5,2.9,2.3,5.3,2.3c2.3,0,4.1-0.7,5.2-2.2s1.8-3.7,1.8-6.7c0-2.9-0.6-5.1-1.7-6.6
			c-1.2-1.5-2.9-2.3-5.2-2.3c-2.3,0-4.1,0.8-5.3,2.3C825,398.6,824.5,400.8,824.5,403.7z"/>
		<path fill="#324155" d="M866.9,415.6h-4.5l-7.5-10.8l-2.3,1.9v8.9h-3.9v-23.8h3.9v11.4c1.1-1.3,2.1-2.6,3.2-3.8l6.4-7.6h4.4
			c-4.2,4.9-7.1,8.4-8.9,10.4L866.9,415.6z"/>
	</g>
</g>
<g>
	<rect x="587.3" y="115.5" fill="#93E3FB" width="253.8" height="1"/>
	<rect x="587.3" y="178.9" fill="#93E3FB" width="253.8" height="1"/>
	<rect x="587.3" y="210.6" fill="#93E3FB" width="253.8" height="1"/>
	<rect x="587.3" y="226.5" fill="#E4645E" width="253.8" height="1"/>
	<path fill="#324155" d="M714.2,116.1c-17.5,0-31.7,14.2-31.7,31.7c0,17.5,14.2,31.7,31.7,31.7c17.5,0,31.7-14.2,31.7-31.7
		C746,130.4,731.7,116.1,714.2,116.1z M685.7,147.9c0-4.1,0.9-8.1,2.5-11.6l13.6,37.3C692.3,168.9,685.7,159.2,685.7,147.9z
		 M714.2,176.4c-2.8,0-5.5-0.4-8.1-1.2l8.6-24.9l8.8,24c0.1,0.1,0.1,0.3,0.2,0.4C720.8,175.8,717.6,176.4,714.2,176.4z M718.2,134.5
		c1.7-0.1,3.3-0.3,3.3-0.3c1.5-0.2,1.4-2.4-0.2-2.4c0,0-4.6,0.4-7.6,0.4c-2.8,0-7.5-0.4-7.5-0.4c-1.5-0.1-1.7,2.3-0.2,2.4
		c0,0,1.5,0.2,3,0.3l4.4,12.2l-6.2,18.7l-10.4-30.9c1.7-0.1,3.3-0.3,3.3-0.3c1.5-0.2,1.4-2.4-0.2-2.4c0,0-4.6,0.4-7.6,0.4
		c-0.5,0-1.2,0-1.8,0c5.1-7.7,13.9-12.9,23.8-12.9c7.4,0,14.2,2.8,19.3,7.5c-0.1,0-0.2,0-0.4,0c-2.8,0-4.8,2.4-4.8,5.1
		c0,2.4,1.4,4.3,2.8,6.7c1.1,1.9,2.4,4.3,2.4,7.9c0,2.4-0.7,5.5-2.2,9.2l-2.8,9.5L718.2,134.5z M728.6,172.5l8.7-25.2
		c1.6-4.1,2.2-7.3,2.2-10.2c0-1.1-0.1-2-0.2-2.9c2.2,4.1,3.5,8.7,3.5,13.7C742.8,158.4,737.1,167.6,728.6,172.5z"/>
	<g>
		<path fill="#324155" d="M638.4,211.4h-2.2l-3.9-13.1c-0.2-0.6-0.4-1.3-0.6-2.2c-0.2-0.9-0.4-1.4-0.4-1.6c-0.2,1.2-0.5,2.5-0.9,3.9
			l-3.8,13h-2.2l-5.2-19.5h2.4l3.1,12.1c0.4,1.7,0.7,3.2,0.9,4.6c0.2-1.6,0.6-3.2,1.1-4.8l3.5-11.9h2.4l3.7,12
			c0.4,1.4,0.8,2.9,1.1,4.7c0.2-1.3,0.5-2.8,1-4.6l3.1-12h2.4L638.4,211.4z"/>
		<path fill="#324155" d="M657.5,204c0,2.4-0.6,4.3-1.8,5.6c-1.2,1.3-2.9,2-5,2c-1.3,0-2.5-0.3-3.5-0.9c-1-0.6-1.8-1.5-2.4-2.6
			c-0.6-1.1-0.8-2.5-0.8-4c0-2.4,0.6-4.2,1.8-5.6c1.2-1.3,2.9-2,5-2c2,0,3.7,0.7,4.9,2C656.9,199.9,657.5,201.7,657.5,204z
			 M646.4,204c0,1.9,0.4,3.3,1.1,4.3c0.7,1,1.8,1.5,3.3,1.5c1.5,0,2.6-0.5,3.3-1.5c0.8-1,1.1-2.4,1.1-4.3c0-1.9-0.4-3.3-1.1-4.2
			c-0.8-1-1.9-1.4-3.3-1.4c-1.5,0-2.5,0.5-3.3,1.4C646.7,200.7,646.4,202.2,646.4,204z"/>
		<path fill="#324155" d="M667.1,196.5c0.7,0,1.2,0.1,1.8,0.2l-0.3,2.1c-0.6-0.1-1.1-0.2-1.6-0.2c-1.2,0-2.2,0.5-3,1.4
			c-0.8,1-1.3,2.2-1.3,3.6v7.9h-2.2v-14.6h1.8l0.3,2.7h0.1c0.5-1,1.2-1.7,2-2.2S666.2,196.5,667.1,196.5z"/>
		<path fill="#324155" d="M680.9,209.4h-0.1c-1,1.5-2.6,2.2-4.6,2.2c-1.9,0-3.4-0.7-4.5-2c-1.1-1.3-1.6-3.2-1.6-5.6
			c0-2.4,0.5-4.3,1.6-5.6c1.1-1.3,2.6-2,4.5-2c2,0,3.5,0.7,4.6,2.2h0.2l-0.1-1.1l-0.1-1v-6h2.2v20.8h-1.8L680.9,209.4z M676.5,209.8
			c1.5,0,2.6-0.4,3.3-1.2c0.7-0.8,1-2.2,1-4v-0.5c0-2.1-0.3-3.6-1-4.4c-0.7-0.9-1.8-1.3-3.3-1.3c-1.3,0-2.3,0.5-3,1.5
			c-0.7,1-1,2.4-1,4.3c0,1.9,0.3,3.3,1,4.2C674.1,209.3,675.1,209.8,676.5,209.8z"/>
		<path fill="#324155" d="M699.6,197.5c0,2-0.7,3.5-2,4.6c-1.3,1.1-3.3,1.6-5.8,1.6h-2.3v7.7h-2.3v-19.5h5.1
			C697.2,191.8,699.6,193.7,699.6,197.5z M689.5,201.7h2c2,0,3.5-0.3,4.4-1c0.9-0.7,1.3-1.7,1.3-3.1c0-1.3-0.4-2.3-1.3-2.9
			c-0.8-0.6-2.2-0.9-4-0.9h-2.5V201.7z"/>
		<path fill="#324155" d="M709.1,196.5c0.7,0,1.2,0.1,1.8,0.2l-0.3,2.1c-0.6-0.1-1.1-0.2-1.6-0.2c-1.2,0-2.2,0.5-3,1.4
			c-0.8,1-1.3,2.2-1.3,3.6v7.9h-2.2v-14.6h1.8l0.3,2.7h0.1c0.5-1,1.2-1.7,2-2.2C707.3,196.7,708.2,196.5,709.1,196.5z"/>
		<path fill="#324155" d="M718.9,211.6c-2.2,0-3.9-0.7-5.1-2c-1.3-1.3-1.9-3.1-1.9-5.5c0-2.4,0.6-4.2,1.7-5.6s2.7-2.1,4.7-2.1
			c1.8,0,3.3,0.6,4.4,1.8c1.1,1.2,1.6,2.8,1.6,4.8v1.4h-10.1c0,1.7,0.5,3,1.3,3.9c0.8,0.9,2,1.3,3.5,1.3c1.6,0,3.1-0.3,4.7-1v2
			c-0.8,0.3-1.5,0.6-2.2,0.7C720.8,211.6,719.9,211.6,718.9,211.6z M718.3,198.3c-1.2,0-2.1,0.4-2.8,1.1c-0.7,0.8-1.1,1.8-1.2,3.2
			h7.7c0-1.4-0.3-2.5-0.9-3.2C720.4,198.7,719.5,198.3,718.3,198.3z"/>
		<path fill="#324155" d="M737.3,207.4c0,1.4-0.5,2.4-1.5,3.2c-1,0.7-2.4,1.1-4.3,1.1c-1.9,0-3.5-0.3-4.5-0.9v-2.1
			c0.7,0.4,1.5,0.6,2.3,0.8c0.8,0.2,1.6,0.3,2.3,0.3c1.2,0,2-0.2,2.7-0.6c0.6-0.4,0.9-0.9,0.9-1.7c0-0.6-0.2-1.1-0.7-1.5
			c-0.5-0.4-1.5-0.9-2.9-1.4c-1.4-0.5-2.3-1-2.9-1.3c-0.6-0.4-1-0.8-1.3-1.3c-0.3-0.5-0.4-1.1-0.4-1.7c0-1.2,0.5-2.1,1.5-2.8
			c1-0.7,2.3-1,4-1c1.6,0,3.1,0.3,4.6,1l-0.8,1.8c-1.5-0.6-2.8-0.9-4-0.9c-1.1,0-1.8,0.2-2.4,0.5c-0.5,0.3-0.8,0.8-0.8,1.4
			c0,0.4,0.1,0.7,0.3,1c0.2,0.3,0.5,0.5,1,0.8c0.4,0.2,1.3,0.6,2.6,1.1c1.7,0.6,2.9,1.3,3.5,1.9C737,205.6,737.3,206.4,737.3,207.4z
			"/>
		<path fill="#324155" d="M750.1,207.4c0,1.4-0.5,2.4-1.5,3.2c-1,0.7-2.4,1.1-4.3,1.1c-1.9,0-3.5-0.3-4.5-0.9v-2.1
			c0.7,0.4,1.5,0.6,2.3,0.8c0.8,0.2,1.6,0.3,2.3,0.3c1.2,0,2-0.2,2.7-0.6c0.6-0.4,0.9-0.9,0.9-1.7c0-0.6-0.2-1.1-0.7-1.5
			c-0.5-0.4-1.5-0.9-2.9-1.4c-1.4-0.5-2.3-1-2.9-1.3c-0.6-0.4-1-0.8-1.3-1.3c-0.3-0.5-0.4-1.1-0.4-1.7c0-1.2,0.5-2.1,1.5-2.8
			c1-0.7,2.3-1,4-1c1.6,0,3.1,0.3,4.6,1l-0.8,1.8c-1.5-0.6-2.8-0.9-4-0.9c-1.1,0-1.8,0.2-2.4,0.5c-0.5,0.3-0.8,0.8-0.8,1.4
			c0,0.4,0.1,0.7,0.3,1c0.2,0.3,0.5,0.5,1,0.8c0.4,0.2,1.3,0.6,2.6,1.1c1.7,0.6,2.9,1.3,3.5,1.9
			C749.8,205.6,750.1,206.4,750.1,207.4z"/>
		<path fill="#324155" d="M753.6,210c0-0.6,0.1-1,0.4-1.4c0.3-0.3,0.7-0.5,1.2-0.5c0.5,0,0.9,0.2,1.2,0.5c0.3,0.3,0.4,0.8,0.4,1.4
			c0,0.6-0.1,1-0.4,1.3s-0.7,0.5-1.2,0.5c-0.5,0-0.8-0.1-1.1-0.4C753.8,211.1,753.6,210.6,753.6,210z"/>
		<path fill="#324155" d="M766.4,211.6c-2.1,0-3.8-0.7-4.9-2c-1.2-1.3-1.7-3.2-1.7-5.5c0-2.4,0.6-4.3,1.8-5.7c1.2-1.3,2.9-2,5-2
			c0.7,0,1.4,0.1,2.1,0.2c0.7,0.2,1.3,0.3,1.7,0.5l-0.7,1.9c-0.5-0.2-1-0.4-1.6-0.5c-0.6-0.1-1.1-0.2-1.5-0.2c-3,0-4.5,1.9-4.5,5.7
			c0,1.8,0.4,3.2,1.1,4.1c0.7,1,1.8,1.4,3.2,1.4c1.2,0,2.5-0.3,3.8-0.8v2C769.1,211.4,767.8,211.6,766.4,211.6z"/>
		<path fill="#324155" d="M785.8,204c0,2.4-0.6,4.3-1.8,5.6c-1.2,1.3-2.9,2-5,2c-1.3,0-2.5-0.3-3.5-0.9c-1-0.6-1.8-1.5-2.4-2.6
			c-0.6-1.1-0.8-2.5-0.8-4c0-2.4,0.6-4.2,1.8-5.6c1.2-1.3,2.9-2,5-2c2,0,3.7,0.7,4.9,2C785.2,199.9,785.8,201.7,785.8,204z
			 M774.6,204c0,1.9,0.4,3.3,1.1,4.3c0.7,1,1.8,1.5,3.3,1.5c1.5,0,2.6-0.5,3.3-1.5c0.8-1,1.1-2.4,1.1-4.3c0-1.9-0.4-3.3-1.1-4.2
			c-0.8-1-1.9-1.4-3.3-1.4c-1.5,0-2.5,0.5-3.3,1.4C775,200.7,774.6,202.2,774.6,204z"/>
		<path fill="#324155" d="M807.2,211.4v-9.5c0-1.2-0.2-2-0.7-2.6c-0.5-0.6-1.3-0.9-2.3-0.9c-1.4,0-2.4,0.4-3.1,1.2
			c-0.7,0.8-1,2-1,3.7v8.2h-2.2v-9.5c0-1.2-0.2-2-0.7-2.6c-0.5-0.6-1.3-0.9-2.3-0.9c-1.4,0-2.4,0.4-3.1,1.2c-0.6,0.8-1,2.2-1,4.1
			v7.7h-2.2v-14.6h1.8l0.4,2h0.1c0.4-0.7,1-1.3,1.8-1.7c0.8-0.4,1.6-0.6,2.6-0.6c2.3,0,3.8,0.8,4.5,2.5h0.1c0.4-0.8,1.1-1.4,1.9-1.8
			c0.8-0.4,1.8-0.7,2.8-0.7c1.7,0,2.9,0.4,3.7,1.3c0.8,0.9,1.2,2.2,1.2,4.1v9.6H807.2z"/>
	</g>
	<rect x="852.7" y="211.3" fill="#80D4ED" width="1.9" height="15.9"/>
	<rect x="852.7" y="115.8" fill="#00AADC" width="1.9" height="63.5"/>
	<text transform="matrix(1 0 0 1 860.9315 153.727)" fill="#00AADC" font-family="'OpenSans-Semibold'" font-size="14">W</text>
	<text transform="matrix(1 0 0 1 860.9316 224.8932)"><tspan x="0" y="0" fill="#00AADC" font-family="'OpenSans-Semibold'" font-size="14">Y  </tspan><tspan x="17.7" y="0" fill="#80D4ED" font-family="'OpenSans-Semibold'" font-size="12">(W/4)</tspan></text>
	<text transform="matrix(1 0 0 1 860.9316 200.0472)"><tspan x="0" y="0" fill="#00AADC" font-family="'OpenSans-Semibold'" font-size="14">X  </tspan><tspan x="18.1" y="0" fill="#80D4ED" font-family="'OpenSans-Semibold'" font-size="12">(W/2)</tspan></text>
	<rect x="852.7" y="179.3" fill="#B2E5F4" width="1.9" height="32.2"/>
	<g>
		<path fill="#324155" d="M647,227.5c0,1.8-0.5,3.2-1.5,4.1c-1,0.9-2.4,1.4-4.3,1.4h-3v-10.9h3.4c1.7,0,3.1,0.5,4,1.4
			C646.5,224.5,647,225.8,647,227.5z M645.1,227.5c0-2.6-1.2-3.9-3.7-3.9h-1.5v7.9h1.3C643.8,231.5,645.1,230.2,645.1,227.5z"/>
		<path fill="#324155" d="M655.9,233h-6.2v-10.9h6.2v1.5h-4.4v3h4.1v1.5h-4.1v3.4h4.4V233z"/>
		<path fill="#324155" d="M665,230.1c0,1-0.3,1.7-1,2.3c-0.7,0.6-1.7,0.8-2.9,0.8c-1.2,0-2.2-0.2-3-0.6v-1.7c0.5,0.2,1,0.4,1.6,0.6
			c0.6,0.1,1.1,0.2,1.6,0.2c0.7,0,1.2-0.1,1.6-0.4s0.5-0.6,0.5-1.1c0-0.4-0.2-0.8-0.5-1c-0.3-0.3-0.9-0.6-1.9-1
			c-1-0.4-1.7-0.9-2.1-1.4s-0.6-1.1-0.6-1.9c0-0.9,0.3-1.6,1-2.1s1.5-0.8,2.6-0.8c1,0,2.1,0.2,3.1,0.7l-0.6,1.5
			c-1-0.4-1.8-0.6-2.6-0.6c-0.6,0-1,0.1-1.3,0.4c-0.3,0.3-0.4,0.6-0.4,1c0,0.3,0.1,0.5,0.2,0.7c0.1,0.2,0.3,0.4,0.6,0.6
			s0.8,0.4,1.5,0.7c0.8,0.3,1.4,0.6,1.8,0.9c0.4,0.3,0.6,0.6,0.8,1S665,229.6,665,230.1z"/>
		<path fill="#324155" d="M667.6,233v-10.9h1.8V233H667.6z"/>
		<path fill="#324155" d="M677.1,227.1h4v5.5c-0.7,0.2-1.3,0.4-1.9,0.5c-0.6,0.1-1.3,0.1-2,0.1c-1.6,0-2.9-0.5-3.8-1.5
			c-0.9-1-1.3-2.3-1.3-4.1c0-1.8,0.5-3.1,1.5-4.1c1-1,2.4-1.5,4.2-1.5c1.1,0,2.2,0.2,3.2,0.7l-0.6,1.5c-0.9-0.4-1.8-0.6-2.6-0.6
			c-1.2,0-2.1,0.4-2.8,1.1c-0.7,0.7-1,1.7-1,3c0,1.3,0.3,2.3,0.9,3c0.6,0.7,1.5,1,2.6,1c0.6,0,1.2-0.1,1.8-0.2v-2.8h-2.3V227.1z"/>
		<path fill="#324155" d="M693.3,233h-2.2l-5.3-8.7h-0.1l0,0.5c0.1,0.9,0.1,1.8,0.1,2.5v5.7h-1.6v-10.9h2.2l5.3,8.6h0
			c0-0.1,0-0.5-0.1-1.2c0-0.7,0-1.3,0-1.7v-5.7h1.6V233z"/>
		<path fill="#324155" d="M709.6,233h-1.8v-4.9h-5v4.9H701v-10.9h1.8v4.4h5v-4.4h1.8V233z"/>
		<path fill="#324155" d="M719.6,233l-1.1-3h-4.2l-1.1,3h-1.9l4.1-10.9h1.9l4.1,10.9H719.6z M718.1,228.5l-1-3
			c-0.1-0.2-0.2-0.5-0.3-0.9c-0.1-0.4-0.2-0.7-0.3-0.9c-0.1,0.6-0.3,1.3-0.6,2l-1,2.8H718.1z"/>
		<path fill="#324155" d="M732.5,233h-2.2l-5.3-8.7h-0.1l0,0.5c0.1,0.9,0.1,1.8,0.1,2.5v5.7h-1.6v-10.9h2.2l5.3,8.6h0
			c0-0.1,0-0.5-0.1-1.2c0-0.7,0-1.3,0-1.7v-5.7h1.6V233z"/>
		<path fill="#324155" d="M744.6,227.5c0,1.8-0.5,3.2-1.5,4.1c-1,0.9-2.4,1.4-4.3,1.4h-3v-10.9h3.4c1.7,0,3.1,0.5,4,1.4
			C744.2,224.5,744.6,225.8,744.6,227.5z M742.8,227.5c0-2.6-1.2-3.9-3.7-3.9h-1.5v7.9h1.3C741.5,231.5,742.8,230.2,742.8,227.5z"/>
		<path fill="#324155" d="M747.4,222.1h3.2c1.5,0,2.6,0.2,3.2,0.7c0.7,0.4,1,1.1,1,2.1c0,0.6-0.2,1.2-0.5,1.6
			c-0.3,0.4-0.8,0.7-1.4,0.8v0.1c0.8,0.1,1.3,0.4,1.7,0.9c0.4,0.4,0.5,1,0.5,1.7c0,1-0.3,1.7-1,2.3c-0.7,0.6-1.6,0.8-2.8,0.8h-3.9
			V222.1z M749.2,226.6h1.7c0.7,0,1.3-0.1,1.6-0.4s0.5-0.6,0.5-1.2c0-0.5-0.2-0.9-0.6-1.1c-0.4-0.2-1-0.3-1.8-0.3h-1.5V226.6z
			 M749.2,228.1v3.4h1.9c0.7,0,1.3-0.1,1.7-0.4s0.6-0.7,0.6-1.3c0-0.6-0.2-1-0.6-1.3c-0.4-0.3-1-0.4-1.8-0.4H749.2z"/>
		<path fill="#324155" d="M767.6,227.6c0,1.8-0.4,3.1-1.3,4.1c-0.9,1-2.1,1.5-3.8,1.5c-1.6,0-2.9-0.5-3.8-1.5
			c-0.9-1-1.3-2.4-1.3-4.2s0.4-3.2,1.3-4.1c0.9-1,2.1-1.4,3.8-1.4c1.6,0,2.9,0.5,3.7,1.5C767.2,224.4,767.6,225.8,767.6,227.6z
			 M759.3,227.6c0,1.3,0.3,2.4,0.8,3s1.3,1,2.4,1c1.1,0,1.9-0.3,2.4-1c0.5-0.7,0.8-1.7,0.8-3.1c0-1.3-0.3-2.3-0.8-3s-1.3-1-2.4-1
			c-1.1,0-1.9,0.3-2.4,1S759.3,226.2,759.3,227.6z"/>
		<path fill="#324155" d="M780.1,227.6c0,1.8-0.4,3.1-1.3,4.1c-0.9,1-2.1,1.5-3.8,1.5c-1.6,0-2.9-0.5-3.8-1.5
			c-0.9-1-1.3-2.4-1.3-4.2s0.4-3.2,1.3-4.1s2.1-1.4,3.8-1.4c1.6,0,2.9,0.5,3.7,1.5C779.6,224.4,780.1,225.8,780.1,227.6z
			 M771.8,227.6c0,1.3,0.3,2.4,0.8,3s1.3,1,2.4,1c1.1,0,1.9-0.3,2.4-1c0.5-0.7,0.8-1.7,0.8-3.1c0-1.3-0.3-2.3-0.8-3
			c-0.5-0.7-1.3-1-2.4-1c-1.1,0-1.9,0.3-2.4,1C772,225.2,771.8,226.2,771.8,227.6z"/>
		<path fill="#324155" d="M791.1,233h-2.1l-3.4-4.9l-1,0.9v4.1h-1.8v-10.9h1.8v5.2c0.5-0.6,1-1.2,1.5-1.7l2.9-3.5h2
			c-1.9,2.2-3.3,3.8-4.1,4.8L791.1,233z"/>
	</g>
</g>
<g>
	<rect x="87.5" y="147.2" fill="#E4645E" width="476.3" height="1"/>
	<rect x="198.3" y="116.1" fill="#93E3FB" width="1" height="63.5"/>
	<rect x="87.5" y="178.9" fill="#93E3FB" width="126.9" height="1"/>
	<rect x="121.5" y="163.1" fill="#93E3FB" width="442.3" height="1"/>
	<rect x="87.5" y="115.5" fill="#93E3FB" width="126.9" height="1"/>
	<rect x="121.5" y="131.3" fill="#93E3FB" width="442.3" height="1"/>
	<rect x="182.7" y="198.6" fill="#B2E5F4" width="15.5" height="1.9"/>
	<rect x="119.2" y="198.6" fill="#00AADC" width="63.5" height="1.9"/>
	<text transform="matrix(1 0 0 1 144.6583 220.2359)" fill="#00AADC" font-family="'OpenSans-Semibold'" font-size="14">W</text>
	<text transform="matrix(1 0 0 1 186.2748 220.2359)"><tspan x="0" y="0" fill="#00AADC" font-family="'OpenSans-Semibold'" font-size="14">Y</tspan><tspan x="-12.3" y="14.4" fill="#80D4ED" font-family="'OpenSans-Semibold'" font-size="12">(W/4)</tspan></text>
	<path fill="#324155" d="M151,116.1c-17.5,0-31.7,14.2-31.7,31.7c0,17.5,14.2,31.7,31.7,31.7c17.5,0,31.7-14.2,31.7-31.7
		C182.7,130.4,168.5,116.1,151,116.1z M122.4,147.9c0-4.1,0.9-8.1,2.5-11.6l13.6,37.3C129,168.9,122.4,159.2,122.4,147.9z
		 M151,176.4c-2.8,0-5.5-0.4-8.1-1.2l8.6-24.9l8.8,24c0.1,0.1,0.1,0.3,0.2,0.4C157.5,175.8,154.3,176.4,151,176.4z M154.9,134.5
		c1.7-0.1,3.3-0.3,3.3-0.3c1.5-0.2,1.4-2.4-0.2-2.4c0,0-4.6,0.4-7.6,0.4c-2.8,0-7.5-0.4-7.5-0.4c-1.5-0.1-1.7,2.3-0.2,2.4
		c0,0,1.5,0.2,3,0.3l4.4,12.2l-6.2,18.7l-10.4-30.9c1.7-0.1,3.3-0.3,3.3-0.3c1.5-0.2,1.4-2.4-0.2-2.4c0,0-4.6,0.4-7.6,0.4
		c-0.5,0-1.2,0-1.8,0c5.1-7.7,13.9-12.9,23.8-12.9c7.4,0,14.2,2.8,19.3,7.5c-0.1,0-0.2,0-0.4,0c-2.8,0-4.8,2.4-4.8,5.1
		c0,2.4,1.4,4.3,2.8,6.7c1.1,1.9,2.4,4.3,2.4,7.9c0,2.4-0.7,5.5-2.2,9.2l-2.8,9.5L154.9,134.5z M165.3,172.5l8.7-25.2
		c1.6-4.1,2.2-7.3,2.2-10.2c0-1.1-0.1-2-0.2-2.9c2.2,4.1,3.5,8.7,3.5,13.7C179.5,158.4,173.8,167.6,165.3,172.5z"/>
	<g>
		<path fill="#324155" d="M218.2,147.6c0,3.9-1.1,6.9-3.3,9c-2.2,2.1-5.3,3.1-9.4,3.1h-6.7V136h7.4c3.8,0,6.7,1,8.8,3.1
			C217.1,141.1,218.2,143.9,218.2,147.6z M214.1,147.8c0-5.7-2.7-8.5-8-8.5h-3.4v17.3h2.8C211.2,156.5,214.1,153.6,214.1,147.8z"/>
		<path fill="#324155" d="M237.7,159.8h-13.5V136h13.5v3.3h-9.6v6.5h9v3.3h-9v7.5h9.6V159.8z"/>
		<path fill="#324155" d="M257.6,153.3c0,2.1-0.8,3.8-2.3,5c-1.5,1.2-3.6,1.8-6.3,1.8c-2.7,0-4.9-0.4-6.6-1.3v-3.7
			c1.1,0.5,2.2,0.9,3.5,1.2c1.2,0.3,2.4,0.4,3.4,0.4c1.5,0,2.7-0.3,3.4-0.9c0.7-0.6,1.1-1.4,1.1-2.4c0-0.9-0.3-1.6-1-2.3
			c-0.7-0.6-2.1-1.4-4.2-2.2c-2.2-0.9-3.7-1.9-4.6-3c-0.9-1.1-1.3-2.5-1.3-4.1c0-2,0.7-3.5,2.1-4.7c1.4-1.1,3.3-1.7,5.7-1.7
			c2.3,0,4.5,0.5,6.8,1.5l-1.2,3.2c-2.1-0.9-4-1.3-5.7-1.3c-1.3,0-2.2,0.3-2.9,0.8c-0.7,0.5-1,1.3-1,2.2c0,0.6,0.1,1.1,0.4,1.6
			c0.3,0.4,0.7,0.9,1.3,1.2s1.7,0.9,3.2,1.5c1.7,0.7,3,1.4,3.8,2c0.8,0.6,1.4,1.3,1.8,2.1S257.6,152.2,257.6,153.3z"/>
		<path fill="#324155" d="M263.2,159.8V136h3.9v23.8H263.2z"/>
		<path fill="#324155" d="M284.1,146.9h8.8v11.9c-1.4,0.5-2.8,0.8-4.1,1s-2.7,0.3-4.3,0.3c-3.6,0-6.4-1.1-8.3-3.2
			c-2-2.1-2.9-5.1-2.9-9c0-3.8,1.1-6.8,3.3-9c2.2-2.2,5.2-3.2,9.1-3.2c2.5,0,4.8,0.5,7.1,1.4l-1.4,3.2c-1.9-0.9-3.9-1.3-5.8-1.3
			c-2.5,0-4.5,0.8-6,2.4c-1.5,1.6-2.2,3.8-2.2,6.5c0,2.9,0.7,5.1,2,6.6c1.3,1.5,3.2,2.3,5.7,2.3c1.3,0,2.6-0.2,4-0.5v-6.1h-4.9
			V146.9z"/>
		<path fill="#324155" d="M319.4,159.8h-4.8l-11.7-19h-0.1l0.1,1.1c0.2,2,0.2,3.9,0.2,5.5v12.4h-3.5V136h4.7l11.7,18.9h0.1
			c0-0.2-0.1-1.2-0.1-2.7c-0.1-1.6-0.1-2.8-0.1-3.7V136h3.6V159.8z"/>
		<path fill="#324155" d="M355,159.8h-3.9V149h-11v10.7h-3.9V136h3.9v9.7h11V136h3.9V159.8z"/>
		<path fill="#324155" d="M377.1,159.8l-2.4-6.6h-9.1l-2.3,6.6h-4.1l8.9-23.9h4.2l8.9,23.9H377.1z M373.7,149.8l-2.2-6.5
			c-0.2-0.4-0.4-1.1-0.7-2c-0.3-0.9-0.5-1.6-0.6-2c-0.3,1.3-0.7,2.8-1.3,4.4l-2.1,6.2H373.7z"/>
		<path fill="#324155" d="M405.2,159.8h-4.8l-11.7-19h-0.1l0.1,1.1c0.2,2,0.2,3.9,0.2,5.5v12.4h-3.5V136h4.7l11.7,18.9h0.1
			c0-0.2-0.1-1.2-0.1-2.7c-0.1-1.6-0.1-2.8-0.1-3.7V136h3.6V159.8z"/>
		<path fill="#324155" d="M431.8,147.6c0,3.9-1.1,6.9-3.3,9c-2.2,2.1-5.3,3.1-9.4,3.1h-6.7V136h7.4c3.8,0,6.7,1,8.8,3.1
			C430.7,141.1,431.8,143.9,431.8,147.6z M427.7,147.8c0-5.7-2.7-8.5-8-8.5h-3.4v17.3h2.8C424.8,156.5,427.7,153.6,427.7,147.8z"/>
		<path fill="#324155" d="M437.9,136h7.1c3.3,0,5.6,0.5,7.1,1.4c1.5,1,2.2,2.5,2.2,4.5c0,1.4-0.4,2.5-1.1,3.5
			c-0.7,0.9-1.7,1.5-3.1,1.7v0.2c1.7,0.3,2.9,0.9,3.7,1.9c0.8,0.9,1.2,2.2,1.2,3.8c0,2.1-0.7,3.8-2.2,5c-1.5,1.2-3.6,1.8-6.2,1.8
			h-8.6V136z M441.8,145.8h3.7c1.6,0,2.8-0.3,3.6-0.8c0.7-0.5,1.1-1.4,1.1-2.6c0-1.1-0.4-1.9-1.2-2.4c-0.8-0.5-2.1-0.7-3.8-0.7h-3.4
			V145.8z M441.8,149v7.5h4.1c1.6,0,2.9-0.3,3.7-0.9c0.8-0.6,1.2-1.6,1.2-3c0-1.2-0.4-2.2-1.3-2.7s-2.1-0.9-3.9-0.9H441.8z"/>
		<path fill="#324155" d="M482,147.8c0,3.9-1,6.9-2.9,9s-4.7,3.2-8.2,3.2c-3.6,0-6.3-1.1-8.3-3.2c-1.9-2.1-2.9-5.2-2.9-9.1
			c0-3.9,1-6.9,2.9-9c1.9-2.1,4.7-3.2,8.3-3.2c3.5,0,6.3,1.1,8.2,3.2C481,140.9,482,144,482,147.8z M463.8,147.8
			c0,2.9,0.6,5.1,1.8,6.7c1.2,1.5,2.9,2.3,5.3,2.3c2.3,0,4.1-0.7,5.2-2.2s1.8-3.7,1.8-6.7c0-2.9-0.6-5.1-1.7-6.6s-2.9-2.3-5.2-2.3
			c-2.3,0-4.1,0.8-5.3,2.3C464.4,142.7,463.8,144.9,463.8,147.8z"/>
		<path fill="#324155" d="M509.2,147.8c0,3.9-1,6.9-2.9,9c-1.9,2.1-4.7,3.2-8.2,3.2c-3.6,0-6.3-1.1-8.3-3.2
			c-1.9-2.1-2.9-5.2-2.9-9.1c0-3.9,1-6.9,2.9-9c1.9-2.1,4.7-3.2,8.3-3.2c3.5,0,6.3,1.1,8.2,3.2C508.2,140.9,509.2,144,509.2,147.8z
			 M491.1,147.8c0,2.9,0.6,5.1,1.8,6.7c1.2,1.5,2.9,2.3,5.3,2.3c2.3,0,4.1-0.7,5.2-2.2c1.2-1.5,1.8-3.7,1.8-6.7
			c0-2.9-0.6-5.1-1.7-6.6c-1.2-1.5-2.9-2.3-5.2-2.3c-2.3,0-4.1,0.8-5.3,2.3C491.7,142.7,491.1,144.9,491.1,147.8z"/>
		<path fill="#324155" d="M533.5,159.8H529l-7.5-10.8l-2.3,1.9v8.9h-3.9V136h3.9v11.4c1.1-1.3,2.1-2.6,3.2-3.8l6.4-7.6h4.4
			c-4.2,4.9-7.1,8.4-8.9,10.4L533.5,159.8z"/>
	</g>
</g>
</svg>
