<?xml version="1.0" encoding="utf-8"?>
<!-- Generator: Adobe Illustrator 20.1.0, SVG Export Plug-In . SVG Version: 6.00 Build 0)  -->
<svg version="1.1" id="Layer_1" xmlns="http://www.w3.org/2000/svg" xmlns:xlink="http://www.w3.org/1999/xlink" x="0px" y="0px"
	 viewBox="0 0 1000 1088.9" style="enable-background:new 0 0 1000 1088.9;" xml:space="preserve">
<style type="text/css">
	.st0{fill:#FFFFFF;}
	.st1{fill:#D6F4FD;}
	.st2{fill:#93E3FB;}
	.st3{fill:#B2E5F4;}
	.st4{fill:#00AADC;}
	.st5{font-family:'OpenSans-Semibold';}
	.st6{font-size:16.2676px;}
	.st7{font-size:13.9437px;}
	.st8{fill:#324155;}
	.st9{fill:none;stroke:#D9D9D9;stroke-miterlimit:10;}
</style>
<rect class="st0" width="1000" height="1088.9"/>
<rect x="93.3" y="589.4" class="st1" width="813.4" height="1.2"/>
<rect x="87.5" y="705.6" class="st1" width="825" height="1.2"/>
<rect x="87.5" y="473.2" class="st1" width="825" height="1.2"/>
<rect x="208.9" y="473.8" class="st1" width="1.2" height="232.4"/>
<rect x="150.8" y="473.8" class="st1" width="1.2" height="232.4"/>
<rect x="92.7" y="468" class="st1" width="1.2" height="244"/>
<rect x="267" y="473.8" class="st1" width="1.2" height="232.4"/>
<rect x="383.2" y="473.8" class="st1" width="1.2" height="232.4"/>
<rect x="441.3" y="473.8" class="st1" width="1.2" height="232.4"/>
<rect x="499.4" y="473.8" class="st1" width="1.2" height="232.4"/>
<rect x="281.5" y="531.9" class="st2" width="1.2" height="175"/>
<rect x="325.1" y="468" class="st1" width="1.2" height="244"/>
<rect x="906.1" y="468" class="st1" width="1.2" height="244"/>
<rect x="848" y="473.8" class="st1" width="1.2" height="232.4"/>
<rect x="557.5" y="473.8" class="st1" width="1.2" height="232.4"/>
<rect x="673.7" y="473.8" class="st1" width="1.2" height="232.4"/>
<rect x="789.9" y="473.8" class="st1" width="1.2" height="232.4"/>
<rect x="615.6" y="473.8" class="st1" width="1.2" height="232.4"/>
<rect x="731.8" y="473.8" class="st1" width="1.2" height="232.4"/>
<rect x="93.3" y="647.5" class="st2" width="232.4" height="1.2"/>
<rect x="151.4" y="618.5" class="st2" width="755.3" height="1.2"/>
<rect x="93.3" y="531.3" class="st2" width="232.4" height="1.2"/>
<rect x="151.4" y="560.4" class="st2" width="755.3" height="1.2"/>
<rect x="267.6" y="729.4" class="st3" width="15" height="3.5"/>
<rect x="151.4" y="729.4" class="st4" width="116.2" height="3.5"/>
<text transform="matrix(1 0 0 1 200.3369 756.1704)" class="st4 st5 st6">W</text>
<text transform="matrix(1 0 0 1 268.7417 756.1704)" class="st4 st5 st6">Z</text>
<text transform="matrix(1 0 0 1 255.7083 772.8696)" class="st4 st5 st7">(W/8)</text>
<rect x="92.6" y="729.4" class="st3" width="58.9" height="3.5"/>
<text transform="matrix(1 0 0 1 115.184 756.1704)" class="st4 st5 st6">X</text>
<text transform="matrix(1 0 0 1 102.5317 772.8696)" class="st4 st5 st7">(W/2)</text>
<path class="st8" d="M209.5,531.9c-32,0-58.1,26.1-58.1,58.1s26.1,58.1,58.1,58.1s58.1-26.1,58.1-58.1S241.5,531.9,209.5,531.9z
	 M157.3,590c0-7.6,1.6-14.8,4.5-21.3l24.9,68.3C169.3,628.5,157.3,610.7,157.3,590z M209.5,642.2c-5.1,0-10.1-0.8-14.8-2.1
	l15.7-45.5l16.1,44c0.1,0.3,0.2,0.5,0.4,0.7C221.4,641.2,215.6,642.2,209.5,642.2z M216.7,565.5c3.1-0.2,6-0.5,6-0.5
	c2.8-0.3,2.5-4.5-0.3-4.3c0,0-8.5,0.7-13.9,0.7c-5.1,0-13.8-0.7-13.8-0.7c-2.8-0.2-3.1,4.1-0.3,4.3c0,0,2.7,0.3,5.5,0.5l8.1,22.3
	l-11.4,34.3l-19-56.6c3.1-0.2,6-0.5,6-0.5c2.8-0.3,2.5-4.5-0.3-4.3c0,0-8.5,0.7-13.9,0.7c-1,0-2.1,0-3.4-0.1
	c9.3-14.2,25.4-23.5,43.6-23.5c13.6,0,26,5.2,35.3,13.7c-0.2,0-0.4,0-0.7,0c-5.1,0-8.8,4.5-8.8,9.3c0,4.3,2.5,7.9,5.1,12.3
	c2,3.5,4.3,7.9,4.3,14.4c0,4.5-1.3,10.1-4,16.9l-5.2,17.4L216.7,565.5z M235.8,635.2l16-46.1c3-7.5,4-13.4,4-18.7
	c0-1.9-0.1-3.7-0.4-5.4c4.1,7.4,6.4,16,6.4,25.1C261.7,609.3,251.3,626.1,235.8,635.2z"/>
<g>
	<path class="st8" d="M339.6,619.1h-6.7l-11.7-38.9c-0.6-1.7-1.2-3.9-1.9-6.5c-0.7-2.6-1-4.2-1.1-4.7c-0.6,3.5-1.5,7.3-2.8,11.5
		L304,619.2h-6.7L282,560.9h7.2l9.2,35.9c1.3,5,2.2,9.6,2.8,13.7c0.7-4.9,1.8-9.6,3.2-14.2l10.4-35.4h7.2l10.9,35.7
		c1.3,4.1,2.3,8.7,3.2,13.9c0.5-3.8,1.5-8.4,2.9-13.8l9.1-35.8h7.2L339.6,619.1z"/>
	<path class="st8" d="M396.4,597.2c0,7.1-1.8,12.7-5.4,16.6c-3.6,4-8.5,6-14.8,6c-3.9,0-7.4-0.9-10.4-2.7c-3-1.8-5.4-4.5-7-7.9
		s-2.5-7.4-2.5-12c0-7.1,1.8-12.6,5.3-16.6c3.6-4,8.5-5.9,14.8-5.9c6.1,0,10.9,2,14.5,6.1C394.6,584.8,396.4,590.3,396.4,597.2z
		 M363.2,597.2c0,5.6,1.1,9.8,3.3,12.7c2.2,2.9,5.5,4.4,9.8,4.4s7.6-1.5,9.8-4.4c2.2-2.9,3.4-7.2,3.4-12.7s-1.1-9.7-3.4-12.6
		c-2.2-2.9-5.5-4.3-9.9-4.3c-4.3,0-7.6,1.4-9.8,4.3C364.3,587.4,363.2,591.6,363.2,597.2z"/>
	<path class="st8" d="M425,574.7c1.9,0,3.7,0.2,5.2,0.5l-0.9,6.1c-1.8-0.4-3.4-0.6-4.8-0.6c-3.5,0-6.5,1.4-9,4.3s-3.8,6.4-3.8,10.7
		v23.4h-6.6v-43.6h5.4l0.8,8.1h0.3c1.6-2.8,3.6-5,5.8-6.6C419.8,575.5,422.3,574.7,425,574.7z"/>
	<path class="st8" d="M466,613.2h-0.4c-3,4.4-7.6,6.6-13.7,6.6c-5.7,0-10.1-1.9-13.3-5.8c-3.2-3.9-4.8-9.4-4.8-16.6
		s1.6-12.8,4.8-16.7c3.2-4,7.6-6,13.3-6c5.9,0,10.4,2.1,13.6,6.4h0.5l-0.3-3.1l-0.2-3.1v-17.7h6.6v61.9h-5.4L466,613.2z
		 M452.8,614.3c4.5,0,7.8-1.2,9.8-3.7s3-6.4,3-11.9v-1.4c0-6.2-1-10.6-3.1-13.2s-5.3-4-9.8-4c-3.9,0-6.8,1.5-8.9,4.5
		s-3.1,7.3-3.1,12.7c0,5.6,1,9.8,3.1,12.6C445.9,612.9,448.9,614.3,452.8,614.3z"/>
	<path class="st8" d="M521.7,577.9c0,5.9-2,10.4-6,13.6s-9.8,4.8-17.2,4.8h-6.8v22.9h-6.8v-58.1H500
		C514.4,560.9,521.7,566.6,521.7,577.9z M491.6,590.4h6.1c6,0,10.3-1,13-2.9s4-5,4-9.3c0-3.8-1.3-6.7-3.8-8.6
		c-2.5-1.9-6.4-2.8-11.8-2.8h-7.6L491.6,590.4L491.6,590.4z"/>
	<path class="st8" d="M549.9,574.7c1.9,0,3.7,0.2,5.2,0.5l-0.9,6.1c-1.8-0.4-3.4-0.6-4.8-0.6c-3.5,0-6.5,1.4-9,4.3
		s-3.8,6.4-3.8,10.7v23.4H530v-43.6h5.4l0.8,8.1h0.3c1.6-2.8,3.6-5,5.8-6.6C544.6,575.5,547.1,574.7,549.9,574.7z"/>
	<path class="st8" d="M579.2,619.9c-6.4,0-11.5-2-15.2-5.9s-5.6-9.4-5.6-16.3c0-7,1.7-12.6,5.2-16.7s8.1-6.2,13.9-6.2
		c5.5,0,9.8,1.8,13,5.4c3.2,3.6,4.8,8.3,4.8,14.2v4.2h-30c0.1,5.1,1.4,9,3.9,11.7c2.5,2.7,5.9,4,10.4,4c4.7,0,9.3-1,13.9-2.9v5.9
		c-2.3,1-4.5,1.7-6.6,2.2C584.6,619.6,582.1,619.9,579.2,619.9z M577.4,580.2c-3.5,0-6.3,1.1-8.4,3.4c-2.1,2.3-3.3,5.4-3.7,9.5h22.8
		c0-4.2-0.9-7.3-2.8-9.6C583.5,581.3,580.8,580.2,577.4,580.2z"/>
	<path class="st8" d="M633.8,607.2c0,4.1-1.5,7.2-4.5,9.4c-3,2.2-7.3,3.3-12.7,3.3c-5.8,0-10.3-0.9-13.5-2.7V611
		c2.1,1.1,4.3,1.9,6.7,2.5s4.7,0.9,6.9,0.9c3.4,0,6.1-0.5,8-1.7c1.9-1.1,2.8-2.8,2.8-5c0-1.7-0.7-3.1-2.2-4.4
		c-1.5-1.2-4.3-2.6-8.6-4.3c-4.1-1.5-6.9-2.8-8.6-4c-1.7-1.1-3-2.4-3.8-3.8s-1.3-3.1-1.3-5.1c0-3.6,1.4-6.4,4.3-8.4
		c2.9-2.1,6.9-3.1,11.9-3.1c4.7,0,9.3,1,13.8,2.9l-2.3,5.4c-4.4-1.8-8.3-2.7-11.9-2.7c-3.1,0-5.5,0.5-7.1,1.5s-2.4,2.3-2.4,4.1
		c0,1.2,0.3,2.2,0.9,3c0.6,0.8,1.6,1.6,2.9,2.3c1.3,0.7,3.9,1.8,7.6,3.2c5.2,1.9,8.7,3.8,10.5,5.7
		C632.9,601.9,633.8,604.3,633.8,607.2z"/>
	<path class="st8" d="M671.8,607.2c0,4.1-1.5,7.2-4.5,9.4c-3,2.2-7.3,3.3-12.7,3.3c-5.8,0-10.3-0.9-13.5-2.7V611
		c2.1,1.1,4.3,1.9,6.7,2.5s4.7,0.9,6.9,0.9c3.4,0,6.1-0.5,8-1.7c1.9-1.1,2.8-2.8,2.8-5c0-1.7-0.7-3.1-2.2-4.4
		c-1.5-1.2-4.3-2.6-8.6-4.3c-4.1-1.5-6.9-2.8-8.6-4c-1.7-1.1-3-2.4-3.8-3.8s-1.3-3.1-1.3-5.1c0-3.6,1.4-6.4,4.3-8.4
		c2.9-2.1,6.9-3.1,11.9-3.1c4.7,0,9.3,1,13.8,2.9l-2.3,5.4c-4.4-1.8-8.3-2.7-11.9-2.7c-3.1,0-5.5,0.5-7.1,1.5s-2.4,2.3-2.4,4.1
		c0,1.2,0.3,2.2,0.9,3c0.6,0.8,1.6,1.6,2.9,2.3c1.3,0.7,3.9,1.8,7.6,3.2c5.2,1.9,8.7,3.8,10.5,5.7
		C670.9,601.9,671.8,604.3,671.8,607.2z"/>
	<path class="st8" d="M682.4,614.9c0-1.8,0.4-3.1,1.2-4c0.8-0.9,2-1.4,3.5-1.4s2.7,0.5,3.6,1.4c0.9,0.9,1.3,2.3,1.3,4
		c0,1.7-0.4,3-1.3,4c-0.9,0.9-2.1,1.4-3.6,1.4c-1.4,0-2.5-0.4-3.4-1.3S682.4,616.8,682.4,614.9z"/>
	<path class="st8" d="M720.2,619.9c-6.3,0-11.2-1.9-14.7-5.8c-3.5-3.9-5.2-9.4-5.2-16.5c0-7.3,1.8-12.9,5.3-16.9s8.5-6,15-6
		c2.1,0,4.2,0.2,6.3,0.7s3.7,1,4.9,1.6l-2,5.6c-1.5-0.6-3-1.1-4.8-1.5c-1.7-0.4-3.2-0.6-4.6-0.6c-8.9,0-13.3,5.6-13.3,16.9
		c0,5.4,1.1,9.5,3.2,12.3c2.2,2.9,5.4,4.3,9.6,4.3c3.6,0,7.4-0.8,11.2-2.3v5.8C728.3,619.1,724.7,619.9,720.2,619.9z"/>
	<path class="st8" d="M778,597.2c0,7.1-1.8,12.7-5.4,16.6c-3.6,3.9-8.5,6-14.8,6c-3.9,0-7.4-0.9-10.4-2.7c-3-1.8-5.4-4.5-7-7.9
		s-2.5-7.4-2.5-12c0-7.1,1.8-12.6,5.3-16.6c3.6-4,8.5-5.9,14.8-5.9c6.1,0,10.9,2,14.5,6.1C776.2,584.8,778,590.3,778,597.2z
		 M744.8,597.2c0,5.6,1.1,9.8,3.3,12.7s5.5,4.4,9.8,4.4s7.6-1.5,9.8-4.4s3.4-7.2,3.4-12.7s-1.1-9.7-3.4-12.6
		c-2.2-2.9-5.5-4.3-9.9-4.3c-4.3,0-7.6,1.4-9.8,4.3C745.9,587.4,744.8,591.6,744.8,597.2z"/>
	<path class="st8" d="M841.9,619.1v-28.4c0-3.5-0.7-6.1-2.2-7.8s-3.8-2.6-6.9-2.6c-4.1,0-7.1,1.2-9.1,3.5c-2,2.4-2.9,6-2.9,10.9V619
		h-6.6v-28.4c0-3.5-0.7-6.1-2.2-7.8c-1.5-1.7-3.8-2.6-7-2.6c-4.1,0-7.2,1.2-9.1,3.7s-2.9,6.5-2.9,12.2V619h-6.6v-43.6h5.4l1.1,6h0.3
		c1.2-2.1,3-3.8,5.3-5c2.3-1.2,4.8-1.8,7.6-1.8c6.8,0,11.3,2.5,13.4,7.4h0.3c1.3-2.3,3.2-4.1,5.6-5.4c2.5-1.3,5.3-2,8.4-2
		c4.9,0,8.6,1.3,11.1,3.8s3.7,6.6,3.7,12.1v28.4h-6.7L841.9,619.1L841.9,619.1z"/>
</g>
<g>
	<path class="st8" d="M302.9,929.9c-6.4,0-11.6,5.2-11.6,11.6s5.2,11.6,11.6,11.6s11.6-5.2,11.6-11.6S309.3,929.9,302.9,929.9z
		 M292.5,941.6c0-1.5,0.3-3,0.9-4.3l5,13.7C294.9,949.3,292.5,945.7,292.5,941.6z M302.9,952c-1,0-2-0.2-3-0.4l3.1-9.1l3.2,8.8
		c0,0.1,0,0.1,0.1,0.1C305.3,951.8,304.2,952,302.9,952z M304.4,936.6c0.6,0,1.2-0.1,1.2-0.1c0.6-0.1,0.5-0.9-0.1-0.9
		c0,0-1.7,0.1-2.8,0.1c-1,0-2.8-0.1-2.8-0.1c-0.6,0-0.6,0.8-0.1,0.9c0,0,0.5,0.1,1.1,0.1l1.6,4.5l-2.3,6.9l-3.8-11.3
		c0.6,0,1.2-0.1,1.2-0.1c0.6-0.1,0.5-0.9-0.1-0.9c0,0-1.7,0.1-2.8,0.1c-0.2,0-0.4,0-0.7,0c1.9-2.8,5.1-4.7,8.7-4.7
		c2.7,0,5.2,1,7.1,2.7h-0.1c-1,0-1.8,0.9-1.8,1.9c0,0.9,0.5,1.6,1,2.5c0.4,0.7,0.9,1.6,0.9,2.9c0,0.9-0.3,2-0.8,3.4l-1,3.5
		L304.4,936.6z M308.2,950.6l3.2-9.2c0.6-1.5,0.8-2.7,0.8-3.7c0-0.4,0-0.7-0.1-1.1c0.8,1.5,1.3,3.2,1.3,5
		C313.4,945.4,311.3,948.8,308.2,950.6z"/>
	<g>
		<path class="st8" d="M329,947.4h-1.3l-2.3-7.8c-0.1-0.3-0.2-0.8-0.4-1.3c-0.1-0.5-0.2-0.8-0.2-0.9c-0.1,0.7-0.3,1.5-0.6,2.3
			l-2.3,7.8h-1.3l-3.1-11.7h1.4l1.8,7.2c0.3,1,0.4,1.9,0.6,2.7c0.1-1,0.4-1.9,0.6-2.8l2.1-7.1h1.4l2.2,7.2c0.3,0.8,0.5,1.7,0.6,2.8
			c0.1-0.8,0.3-1.7,0.6-2.8l1.8-7.2h1.4L329,947.4z"/>
		<path class="st8" d="M340.4,943c0,1.4-0.4,2.5-1.1,3.3s-1.7,1.2-3,1.2c-0.8,0-1.5-0.2-2.1-0.5c-0.6-0.4-1.1-0.9-1.4-1.6
			c-0.3-0.7-0.5-1.5-0.5-2.4c0-1.4,0.4-2.5,1.1-3.3s1.7-1.2,3-1.2c1.2,0,2.2,0.4,2.9,1.2C340,940.5,340.4,941.6,340.4,943z
			 M333.7,943c0,1.1,0.2,2,0.7,2.5s1.1,0.9,2,0.9s1.5-0.3,2-0.9s0.7-1.4,0.7-2.5s-0.2-1.9-0.7-2.5c-0.4-0.6-1.1-0.9-2-0.9
			s-1.5,0.3-2,0.9C334,941,333.7,941.9,333.7,943z"/>
		<path class="st8" d="M346.1,938.5c0.4,0,0.7,0,1,0.1l-0.2,1.2c-0.4-0.1-0.7-0.1-1-0.1c-0.7,0-1.3,0.3-1.8,0.9s-0.8,1.3-0.8,2.1
			v4.7H342v-8.7h1.1l0.2,1.6h0.1c0.3-0.6,0.7-1,1.2-1.3C345.1,938.7,345.6,938.5,346.1,938.5z"/>
		<path class="st8" d="M354.3,946.2L354.3,946.2c-0.7,0.9-1.6,1.3-2.8,1.3c-1.1,0-2-0.4-2.7-1.2c-0.6-0.8-1-1.9-1-3.3s0.3-2.6,1-3.3
			c0.6-0.8,1.5-1.2,2.7-1.2s2.1,0.4,2.7,1.3h0.1l-0.1-0.6v-0.6V935h1.3v12.4h-1.1L354.3,946.2z M351.7,946.4c0.9,0,1.6-0.2,2-0.7
			s0.6-1.3,0.6-2.4V943c0-1.2-0.2-2.1-0.6-2.6s-1.1-0.8-2-0.8c-0.8,0-1.4,0.3-1.8,0.9c-0.4,0.6-0.6,1.5-0.6,2.5c0,1.1,0.2,2,0.6,2.5
			C350.3,946.1,350.9,946.4,351.7,946.4z"/>
		<path class="st8" d="M365.5,939.1c0,1.2-0.4,2.1-1.2,2.7s-2,1-3.4,1h-1.4v4.6h-1.4v-11.6h3C364,935.7,365.5,936.9,365.5,939.1z
			 M359.5,941.6h1.2c1.2,0,2.1-0.2,2.6-0.6c0.5-0.4,0.8-1,0.8-1.9c0-0.8-0.3-1.3-0.8-1.7s-1.3-0.6-2.4-0.6h-1.5L359.5,941.6
			L359.5,941.6z"/>
		<path class="st8" d="M371.1,938.5c0.4,0,0.7,0,1,0.1l-0.2,1.2c-0.4-0.1-0.7-0.1-1-0.1c-0.7,0-1.3,0.3-1.8,0.9
			c-0.5,0.6-0.8,1.3-0.8,2.1v4.7H367v-8.7h1.1l0.2,1.6h0.1c0.3-0.6,0.7-1,1.2-1.3C370.1,938.7,370.6,938.5,371.1,938.5z"/>
		<path class="st8" d="M377,947.6c-1.3,0-2.3-0.4-3-1.2s-1.1-1.9-1.1-3.3c0-1.4,0.3-2.5,1-3.3s1.6-1.2,2.8-1.2c1.1,0,2,0.4,2.6,1.1
			c0.6,0.7,1,1.7,1,2.8v0.8h-6c0,1,0.3,1.8,0.8,2.3s1.2,0.8,2.1,0.8s1.9-0.2,2.8-0.6v1.2c-0.5,0.2-0.9,0.3-1.3,0.4
			C378.1,947.5,377.6,947.6,377,947.6z M376.7,939.6c-0.7,0-1.3,0.2-1.7,0.7c-0.4,0.5-0.7,1.1-0.7,1.9h4.6c0-0.8-0.2-1.5-0.6-1.9
			C377.9,939.8,377.3,939.6,376.7,939.6z"/>
		<path class="st8" d="M388,945c0,0.8-0.3,1.4-0.9,1.9c-0.6,0.4-1.5,0.7-2.5,0.7c-1.2,0-2.1-0.2-2.7-0.5v-1.2
			c0.4,0.2,0.9,0.4,1.3,0.5s0.9,0.2,1.4,0.2c0.7,0,1.2-0.1,1.6-0.3s0.6-0.6,0.6-1c0-0.3-0.1-0.6-0.4-0.9c-0.3-0.2-0.9-0.5-1.7-0.9
			c-0.8-0.3-1.4-0.6-1.7-0.8c-0.3-0.2-0.6-0.5-0.8-0.8c-0.2-0.3-0.3-0.6-0.3-1c0-0.7,0.3-1.3,0.9-1.7s1.4-0.6,2.4-0.6
			c0.9,0,1.9,0.2,2.8,0.6l-0.5,1.1c-0.9-0.4-1.7-0.5-2.4-0.5c-0.6,0-1.1,0.1-1.4,0.3s-0.5,0.5-0.5,0.8c0,0.2,0.1,0.4,0.2,0.6
			s0.3,0.3,0.6,0.5c0.3,0.1,0.8,0.4,1.5,0.6c1,0.4,1.7,0.8,2.1,1.1C387.8,943.9,388,944.4,388,945z"/>
		<path class="st8" d="M395.6,945c0,0.8-0.3,1.4-0.9,1.9c-0.6,0.4-1.5,0.7-2.5,0.7c-1.2,0-2.1-0.2-2.7-0.5v-1.2
			c0.4,0.2,0.9,0.4,1.3,0.5s0.9,0.2,1.4,0.2c0.7,0,1.2-0.1,1.6-0.3s0.6-0.6,0.6-1c0-0.3-0.1-0.6-0.4-0.9c-0.3-0.2-0.9-0.5-1.7-0.9
			c-0.8-0.3-1.4-0.6-1.7-0.8c-0.3-0.2-0.6-0.5-0.8-0.8c-0.2-0.3-0.3-0.6-0.3-1c0-0.7,0.3-1.3,0.9-1.7s1.4-0.6,2.4-0.6
			c0.9,0,1.9,0.2,2.8,0.6l-0.5,1.1c-0.9-0.4-1.7-0.5-2.4-0.5c-0.6,0-1.1,0.1-1.4,0.3s-0.5,0.5-0.5,0.8c0,0.2,0.1,0.4,0.2,0.6
			s0.3,0.3,0.6,0.5c0.3,0.1,0.8,0.4,1.5,0.6c1,0.4,1.7,0.8,2.1,1.1C395.4,943.9,395.6,944.4,395.6,945z"/>
		<path class="st8" d="M397.7,946.5c0-0.4,0.1-0.6,0.2-0.8c0.2-0.2,0.4-0.3,0.7-0.3s0.5,0.1,0.7,0.3s0.3,0.5,0.3,0.8
			s-0.1,0.6-0.3,0.8c-0.2,0.2-0.4,0.3-0.7,0.3c-0.3,0-0.5-0.1-0.7-0.3S397.7,946.9,397.7,946.5z"/>
		<path class="st8" d="M405.3,947.6c-1.3,0-2.2-0.4-2.9-1.2c-0.7-0.8-1-1.9-1-3.3c0-1.5,0.4-2.6,1.1-3.4c0.7-0.8,1.7-1.2,3-1.2
			c0.4,0,0.8,0,1.3,0.1s0.7,0.2,1,0.3l-0.4,1.1c-0.3-0.1-0.6-0.2-1-0.3c-0.3-0.1-0.6-0.1-0.9-0.1c-1.8,0-2.7,1.1-2.7,3.4
			c0,1.1,0.2,1.9,0.6,2.5s1.1,0.9,1.9,0.9c0.7,0,1.5-0.2,2.2-0.5v1.2C406.9,947.4,406.2,947.6,405.3,947.6z"/>
		<path class="st8" d="M416.9,943c0,1.4-0.4,2.5-1.1,3.3s-1.7,1.2-3,1.2c-0.8,0-1.5-0.2-2.1-0.5c-0.6-0.4-1.1-0.9-1.4-1.6
			c-0.3-0.7-0.5-1.5-0.5-2.4c0-1.4,0.4-2.5,1.1-3.3s1.7-1.2,3-1.2c1.2,0,2.2,0.4,2.9,1.2C416.5,940.5,416.9,941.6,416.9,943z
			 M410.2,943c0,1.1,0.2,2,0.7,2.5s1.1,0.9,2,0.9s1.5-0.3,2-0.9c0.4-0.6,0.7-1.4,0.7-2.5s-0.2-1.9-0.7-2.5c-0.4-0.6-1.1-0.9-2-0.9
			s-1.5,0.3-2,0.9C410.4,941,410.2,941.9,410.2,943z"/>
		<path class="st8" d="M429.7,947.4v-5.7c0-0.7-0.1-1.2-0.4-1.6c-0.3-0.3-0.8-0.5-1.4-0.5c-0.8,0-1.4,0.2-1.8,0.7s-0.6,1.2-0.6,2.2
			v4.9h-1.3v-5.7c0-0.7-0.1-1.2-0.4-1.6s-0.8-0.5-1.4-0.5c-0.8,0-1.4,0.2-1.8,0.7s-0.6,1.3-0.6,2.4v4.6h-1.3v-8.7h1.1l0.2,1.2h0.1
			c0.2-0.4,0.6-0.8,1.1-1s1-0.4,1.5-0.4c1.4,0,2.3,0.5,2.7,1.5h0.1c0.3-0.5,0.6-0.8,1.1-1.1s1.1-0.4,1.7-0.4c1,0,1.7,0.3,2.2,0.8
			s0.7,1.3,0.7,2.4v5.7L429.7,947.4L429.7,947.4L429.7,947.4z"/>
	</g>
</g>
<rect x="441.9" y="208.9" class="st1" width="464.8" height="1.2"/>
<rect x="436.1" y="383.2" class="st1" width="476.4" height="1.2"/>
<rect x="441.9" y="150.8" class="st1" width="464.8" height="1.2"/>
<rect x="436.1" y="92.7" class="st1" width="476.4" height="1.2"/>
<rect x="673.7" y="93.3" class="st1" width="1.2" height="290.5"/>
<rect x="615.6" y="93.3" class="st1" width="1.2" height="290.5"/>
<rect x="557.5" y="93.3" class="st1" width="1.2" height="290.5"/>
<rect x="731.8" y="93.3" class="st1" width="1.2" height="290.5"/>
<rect x="789.9" y="93.3" class="st1" width="1.2" height="290.5"/>
<rect x="441.3" y="87.5" class="st1" width="1.2" height="302.1"/>
<rect x="906.1" y="87.5" class="st1" width="1.2" height="302.1"/>
<rect x="848" y="93.3" class="st1" width="1.2" height="290.5"/>
<rect x="441.9" y="267" class="st2" width="464.8" height="1.2"/>
<rect x="499.4" y="93.3" class="st2" width="1.2" height="290.5"/>
<rect x="441.9" y="325.1" class="st2" width="464.8" height="1.2"/>
<path class="st8" d="M674.3,151.4c-32,0-58.1,26.1-58.1,58.1s26.1,58.1,58.1,58.1s58.1-26.1,58.1-58.1
	C732.4,177.5,706.3,151.4,674.3,151.4z M622.1,209.5c0-7.6,1.6-14.8,4.5-21.3l24.9,68.3C634.1,248,622.1,230.2,622.1,209.5z
	 M674.3,261.7c-5.1,0-10.1-0.8-14.8-2.1l15.7-45.5l16.1,44c0.1,0.3,0.2,0.5,0.4,0.7C686.2,260.7,680.4,261.7,674.3,261.7z
	 M681.5,185c3.1-0.2,6-0.5,6-0.5c2.8-0.3,2.5-4.5-0.3-4.3c0,0-8.5,0.7-13.9,0.7c-5.1,0-13.8-0.7-13.8-0.7c-2.8-0.2-3.1,4.1-0.3,4.3
	c0,0,2.7,0.3,5.5,0.5l8.1,22.3l-11.4,34.3l-19-56.6c3.1-0.2,6-0.5,6-0.5c2.8-0.3,2.5-4.5-0.3-4.3c0,0-8.5,0.7-13.9,0.7
	c-1,0-2.1,0-3.4-0.1c9.3-14.2,25.4-23.5,43.6-23.5c13.6,0,26,5.2,35.3,13.7c-0.2,0-0.4,0-0.7,0c-5.1,0-8.8,4.5-8.8,9.3
	c0,4.3,2.5,7.9,5.1,12.3c2,3.5,4.3,7.9,4.3,14.4c0,4.5-1.3,10.1-4,16.9l-5.2,17.4L681.5,185z M700.6,254.7l16-46.1
	c3-7.5,4-13.4,4-18.7c0-1.9-0.1-3.7-0.4-5.4c4.1,7.4,6.4,16,6.4,25.1C726.5,228.8,716.1,245.6,700.6,254.7z"/>
<g>
	<path class="st8" d="M535.5,325.8h-4.1l-7.2-24c-0.3-1.1-0.7-2.4-1.2-4c-0.4-1.6-0.6-2.6-0.7-2.9c-0.4,2.2-0.9,4.5-1.7,7.1l-7,23.8
		h-4.1L500,290h4.4l5.7,22.1c0.8,3.1,1.4,5.9,1.7,8.4c0.4-3,1.1-5.9,2-8.8l6.4-21.8h4.4l6.7,21.9c0.8,2.5,1.4,5.4,2,8.6
		c0.3-2.3,0.9-5.1,1.8-8.5l5.6-22h4.4L535.5,325.8z"/>
	<path class="st8" d="M570.4,312.4c0,4.4-1.1,7.8-3.3,10.2c-2.2,2.5-5.2,3.7-9.1,3.7c-2.4,0-4.5-0.6-6.4-1.7s-3.3-2.7-4.3-4.8
		c-1-2.1-1.5-4.6-1.5-7.4c0-4.4,1.1-7.8,3.3-10.2c2.2-2.4,5.2-3.7,9.1-3.7c3.8,0,6.7,1.2,8.9,3.7
		C569.3,304.7,570.4,308.1,570.4,312.4z M550,312.4c0,3.4,0.7,6,2.1,7.8c1.4,1.8,3.4,2.7,6,2.7c2.7,0,4.7-0.9,6.1-2.7
		c1.4-1.8,2.1-4.4,2.1-7.8s-0.7-6-2.1-7.8c-1.4-1.8-3.4-2.7-6.1-2.7c-2.7,0-4.7,0.9-6,2.6C550.7,306.3,550,308.9,550,312.4z"/>
	<path class="st8" d="M588,298.5c1.2,0,2.3,0.1,3.2,0.3l-0.6,3.8c-1.1-0.2-2.1-0.4-2.9-0.4c-2.2,0-4,0.9-5.6,2.6
		c-1.5,1.8-2.3,4-2.3,6.6v14.4h-4.1V299h3.4l0.5,5h0.2c1-1.7,2.2-3.1,3.6-4C584.8,299,586.3,298.5,588,298.5z"/>
	<path class="st8" d="M613.3,322.2H613c-1.9,2.7-4.7,4.1-8.4,4.1c-3.5,0-6.2-1.2-8.2-3.6c-1.9-2.4-2.9-5.8-2.9-10.2s1-7.9,2.9-10.3
		c2-2.4,4.7-3.7,8.2-3.7c3.6,0,6.4,1.3,8.4,4h0.3l-0.2-1.9l-0.1-1.9v-10.9h4.1v38.1h-3.3L613.3,322.2z M605.1,322.9
		c2.8,0,4.8-0.8,6-2.3s1.9-3.9,1.9-7.3v-0.9c0-3.8-0.6-6.5-1.9-8.1c-1.3-1.6-3.3-2.4-6.1-2.4c-2.4,0-4.2,0.9-5.5,2.8
		c-1.3,1.9-1.9,4.5-1.9,7.8c0,3.4,0.6,6,1.9,7.8C600.9,322,602.7,322.9,605.1,322.9z"/>
	<path class="st8" d="M647.5,300.4c0,3.6-1.2,6.4-3.7,8.4c-2.5,1.9-6,2.9-10.6,2.9H629v14.1h-4.2V290h9.3
		C643,290,647.5,293.5,647.5,300.4z M629,308.1h3.7c3.7,0,6.4-0.6,8-1.8c1.6-1.2,2.5-3.1,2.5-5.7c0-2.4-0.8-4.1-2.3-5.3
		c-1.6-1.2-4-1.7-7.2-1.7H629V308.1z"/>
	<path class="st8" d="M664.9,298.5c1.2,0,2.3,0.1,3.2,0.3l-0.6,3.8c-1.1-0.2-2.1-0.4-2.9-0.4c-2.2,0-4,0.9-5.6,2.6
		c-1.5,1.8-2.3,4-2.3,6.6v14.4h-4.1V299h3.4l0.5,5h0.2c1-1.7,2.2-3.1,3.6-4C661.6,299,663.2,298.5,664.9,298.5z"/>
	<path class="st8" d="M682.9,326.3c-4,0-7.1-1.2-9.4-3.6c-2.3-2.4-3.4-5.8-3.4-10.1c0-4.3,1.1-7.8,3.2-10.3c2.1-2.5,5-3.8,8.6-3.8
		c3.4,0,6,1.1,8,3.3c2,2.2,2.9,5.1,2.9,8.7v2.6h-18.5c0.1,3.1,0.9,5.5,2.4,7.2c1.5,1.6,3.6,2.4,6.4,2.4c2.9,0,5.7-0.6,8.6-1.8v3.6
		c-1.4,0.6-2.8,1.1-4.1,1.3C686.3,326.1,684.7,326.3,682.9,326.3z M681.8,301.9c-2.2,0-3.9,0.7-5.2,2.1s-2,3.3-2.3,5.8h14
		c0-2.6-0.6-4.5-1.7-5.9C685.6,302.6,683.9,301.9,681.8,301.9z"/>
	<path class="st8" d="M716.5,318.5c0,2.5-0.9,4.4-2.8,5.8c-1.9,1.4-4.5,2-7.8,2c-3.6,0-6.3-0.6-8.3-1.7v-3.8
		c1.3,0.7,2.7,1.2,4.1,1.5c1.5,0.4,2.9,0.6,4.3,0.6c2.1,0,3.8-0.3,4.9-1c1.1-0.7,1.7-1.7,1.7-3.1c0-1-0.5-1.9-1.4-2.7
		c-0.9-0.7-2.7-1.6-5.3-2.6c-2.5-0.9-4.3-1.7-5.3-2.4c-1.1-0.7-1.8-1.5-2.3-2.4c-0.5-0.9-0.8-1.9-0.8-3.2c0-2.2,0.9-3.9,2.7-5.2
		c1.8-1.3,4.2-1.9,7.3-1.9c2.9,0,5.7,0.6,8.5,1.8l-1.4,3.3c-2.7-1.1-5.1-1.7-7.3-1.7c-1.9,0-3.4,0.3-4.4,0.9c-1,0.6-1.5,1.4-1.5,2.5
		c0,0.7,0.2,1.3,0.6,1.8c0.4,0.5,1,1,1.8,1.4c0.8,0.5,2.4,1.1,4.7,2c3.2,1.2,5.3,2.3,6.4,3.5C715.9,315.2,716.5,316.7,716.5,318.5z"
		/>
	<path class="st8" d="M739.9,318.5c0,2.5-0.9,4.4-2.8,5.8c-1.9,1.4-4.5,2-7.8,2c-3.6,0-6.3-0.6-8.3-1.7v-3.8
		c1.3,0.7,2.7,1.2,4.1,1.5c1.5,0.4,2.9,0.6,4.3,0.6c2.1,0,3.8-0.3,4.9-1c1.1-0.7,1.7-1.7,1.7-3.1c0-1-0.5-1.9-1.4-2.7
		c-0.9-0.7-2.7-1.6-5.3-2.6c-2.5-0.9-4.3-1.7-5.3-2.4c-1.1-0.7-1.8-1.5-2.3-2.4c-0.5-0.9-0.8-1.9-0.8-3.2c0-2.2,0.9-3.9,2.7-5.2
		c1.8-1.3,4.2-1.9,7.3-1.9c2.9,0,5.7,0.6,8.5,1.8l-1.4,3.3c-2.7-1.1-5.1-1.7-7.3-1.7c-1.9,0-3.4,0.3-4.4,0.9c-1,0.6-1.5,1.4-1.5,2.5
		c0,0.7,0.2,1.3,0.6,1.8c0.4,0.5,1,1,1.8,1.4c0.8,0.5,2.4,1.1,4.7,2c3.2,1.2,5.3,2.3,6.4,3.5C739.3,315.2,739.9,316.7,739.9,318.5z"
		/>
	<path class="st8" d="M746.4,323.2c0-1.1,0.2-1.9,0.7-2.5c0.5-0.6,1.2-0.8,2.1-0.8c0.9,0,1.7,0.3,2.2,0.8c0.5,0.6,0.8,1.4,0.8,2.5
		c0,1.1-0.3,1.9-0.8,2.4c-0.5,0.6-1.3,0.9-2.2,0.9c-0.8,0-1.5-0.3-2.1-0.8C746.7,325.2,746.4,324.4,746.4,323.2z"/>
	<path class="st8" d="M769.7,326.3c-3.9,0-6.9-1.2-9-3.6c-2.1-2.4-3.2-5.8-3.2-10.1c0-4.5,1.1-8,3.2-10.4c2.2-2.4,5.2-3.7,9.2-3.7
		c1.3,0,2.6,0.1,3.9,0.4c1.3,0.3,2.3,0.6,3,1l-1.2,3.5c-0.9-0.4-1.9-0.7-2.9-0.9c-1.1-0.2-2-0.4-2.8-0.4c-5.4,0-8.2,3.5-8.2,10.4
		c0,3.3,0.7,5.8,2,7.6s3.3,2.6,5.9,2.6c2.2,0,4.5-0.5,6.9-1.4v3.6C774.7,325.8,772.4,326.3,769.7,326.3z"/>
	<path class="st8" d="M805.2,312.4c0,4.4-1.1,7.8-3.3,10.2c-2.2,2.5-5.2,3.7-9.1,3.7c-2.4,0-4.5-0.6-6.4-1.7s-3.3-2.7-4.3-4.8
		c-1-2.1-1.5-4.6-1.5-7.4c0-4.4,1.1-7.8,3.3-10.2c2.2-2.4,5.2-3.7,9.1-3.7c3.8,0,6.7,1.2,8.9,3.7
		C804.1,304.7,805.2,308.1,805.2,312.4z M784.8,312.4c0,3.4,0.7,6,2.1,7.8c1.4,1.8,3.4,2.7,6,2.7c2.7,0,4.7-0.9,6.1-2.7
		c1.4-1.8,2.1-4.4,2.1-7.8s-0.7-6-2.1-7.8c-1.4-1.8-3.4-2.7-6.1-2.7c-2.7,0-4.7,0.9-6,2.6C785.5,306.3,784.8,308.9,784.8,312.4z"/>
	<path class="st8" d="M844.5,325.8v-17.4c0-2.1-0.5-3.7-1.4-4.8s-2.3-1.6-4.3-1.6c-2.5,0-4.4,0.7-5.6,2.2c-1.2,1.5-1.8,3.7-1.8,6.7
		v15h-4.1v-17.4c0-2.1-0.5-3.7-1.4-4.8c-0.9-1.1-2.3-1.6-4.3-1.6c-2.5,0-4.4,0.8-5.6,2.3s-1.8,4-1.8,7.5V326h-4.1v-27h3.3l0.7,3.7
		h0.2c0.8-1.3,1.8-2.3,3.2-3.1c1.4-0.7,3-1.1,4.7-1.1c4.2,0,6.9,1.5,8.2,4.6h0.2c0.8-1.4,2-2.5,3.5-3.3c1.5-0.8,3.2-1.2,5.2-1.2
		c3,0,5.3,0.8,6.8,2.3c1.5,1.6,2.3,4,2.3,7.5v17.5L844.5,325.8L844.5,325.8L844.5,325.8z"/>
</g>
<g>
	<path class="st8" d="M769.4,918.4c-10,0-18.2,8.2-18.2,18.2s8.2,18.2,18.2,18.2s18.2-8.2,18.2-18.2
		C787.7,926.6,779.5,918.4,769.4,918.4z M753.1,936.6c0-2.4,0.5-4.6,1.4-6.7l7.8,21.4C756.8,948.7,753.1,943.1,753.1,936.6z
		 M769.4,953c-1.6,0-3.2-0.3-4.6-0.7l4.9-14.3l5,13.8c0,0.1,0.1,0.2,0.1,0.2C773.2,952.7,771.4,953,769.4,953z M771.7,928.9
		c1-0.1,1.9-0.2,1.9-0.2c0.9-0.1,0.8-1.4-0.1-1.3c0,0-2.7,0.2-4.4,0.2c-1.6,0-4.3-0.2-4.3-0.2c-0.9-0.1-1,1.3-0.1,1.3
		c0,0,0.8,0.1,1.7,0.2l2.5,7l-3.6,10.8l-6-17.8c1-0.1,1.9-0.2,1.9-0.2c0.9-0.1,0.8-1.4-0.1-1.3c0,0-2.7,0.2-4.4,0.2
		c-0.3,0-0.7,0-1.1,0c2.9-4.5,8-7.4,13.7-7.4c4.3,0,8.2,1.6,11.1,4.3c-0.1,0-0.1,0-0.2,0c-1.6,0-2.8,1.4-2.8,2.9
		c0,1.3,0.8,2.5,1.6,3.9c0.6,1.1,1.3,2.5,1.3,4.5c0,1.4-0.4,3.2-1.3,5.3l-1.6,5.5L771.7,928.9z M777.7,950.8l5-14.5
		c0.9-2.4,1.3-4.2,1.3-5.9c0-0.6,0-1.2-0.1-1.7c1.3,2.3,2,5,2,7.9C785.8,942.6,782.6,947.9,777.7,950.8z"/>
	<g>
		<path class="st8" d="M725.9,973.1h-1.3l-2.3-7.5c-0.1-0.3-0.2-0.8-0.4-1.3c-0.1-0.5-0.2-0.8-0.2-0.9c-0.1,0.7-0.3,1.4-0.5,2.2
			l-2.2,7.5h-1.3l-3-11.2h1.4l1.8,6.9c0.3,1,0.4,1.9,0.5,2.6c0.1-0.9,0.3-1.9,0.6-2.8l2-6.8h1.4l2.1,6.9c0.3,0.8,0.4,1.7,0.6,2.7
			c0.1-0.7,0.3-1.6,0.6-2.7l1.8-6.9h1.4L725.9,973.1z"/>
		<path class="st8" d="M736.9,968.9c0,1.4-0.3,2.4-1,3.2s-1.6,1.2-2.9,1.2c-0.8,0-1.4-0.2-2-0.5s-1-0.8-1.3-1.5s-0.5-1.4-0.5-2.3
			c0-1.4,0.3-2.4,1-3.2s1.6-1.2,2.9-1.2c1.2,0,2.1,0.4,2.8,1.2S736.9,967.5,736.9,968.9z M730.5,968.9c0,1.1,0.2,1.9,0.7,2.4
			c0.4,0.6,1.1,0.8,1.9,0.8c0.8,0,1.5-0.3,1.9-0.8c0.4-0.6,0.7-1.4,0.7-2.4s-0.2-1.9-0.7-2.4c-0.4-0.6-1.1-0.8-1.9-0.8
			s-1.5,0.3-1.9,0.8C730.7,967,730.5,967.8,730.5,968.9z"/>
		<path class="st8" d="M742.4,964.5c0.4,0,0.7,0,1,0.1l-0.2,1.2c-0.3-0.1-0.7-0.1-0.9-0.1c-0.7,0-1.3,0.3-1.8,0.8
			c-0.5,0.6-0.7,1.3-0.7,2.1v4.5h-1.3v-8.4h1.1l0.2,1.6h0.1c0.3-0.5,0.7-1,1.1-1.3C741.4,964.7,741.8,964.5,742.4,964.5z"/>
		<path class="st8" d="M750.3,971.9L750.3,971.9c-0.7,0.8-1.6,1.3-2.7,1.3c-1.1,0-1.9-0.4-2.6-1.1c-0.6-0.8-0.9-1.8-0.9-3.2
			s0.3-2.5,0.9-3.2c0.6-0.8,1.5-1.2,2.6-1.2s2,0.4,2.6,1.3h0.1l-0.1-0.6v-0.6v-3.4h1.3v11.9h-1L750.3,971.9z M747.7,972.2
			c0.9,0,1.5-0.3,1.9-0.7s0.6-1.2,0.6-2.3v-0.3c0-1.2-0.2-2-0.6-2.5c-0.4-0.5-1-0.8-1.9-0.8c-0.8,0-1.3,0.3-1.7,0.9
			c-0.4,0.6-0.6,1.4-0.6,2.4c0,1.1,0.2,1.9,0.6,2.4C746.4,971.9,747,972.2,747.7,972.2z"/>
		<path class="st8" d="M761,965.1c0,1.1-0.4,2-1.2,2.6s-1.9,0.9-3.3,0.9h-1.3v4.4h-1.3v-11.2h2.9C759.6,961.8,761,962.9,761,965.1z
			 M755.2,967.5h1.2c1.2,0,2-0.2,2.5-0.6s0.8-1,0.8-1.8s-0.3-1.3-0.7-1.7c-0.5-0.4-1.3-0.5-2.3-0.5h-1.5V967.5z"/>
		<path class="st8" d="M766.5,964.5c0.4,0,0.7,0,1,0.1l-0.2,1.2c-0.3-0.1-0.7-0.1-0.9-0.1c-0.7,0-1.3,0.3-1.8,0.8
			c-0.5,0.6-0.7,1.3-0.7,2.1v4.5h-1.3v-8.4h1.1l0.2,1.6h0.1c0.3-0.5,0.7-1,1.1-1.3C765.5,964.7,766,964.5,766.5,964.5z"/>
		<path class="st8" d="M772.1,973.2c-1.3,0-2.2-0.4-2.9-1.1c-0.7-0.8-1.1-1.8-1.1-3.2c0-1.3,0.3-2.4,1-3.2s1.6-1.2,2.7-1.2
			c1.1,0,1.9,0.3,2.5,1s0.9,1.6,0.9,2.7v0.8h-5.8c0,1,0.3,1.7,0.8,2.3c0.5,0.5,1.1,0.8,2,0.8s1.8-0.2,2.7-0.6v1.1
			c-0.4,0.2-0.9,0.3-1.3,0.4C773.2,973.2,772.7,973.2,772.1,973.2z M771.8,965.6c-0.7,0-1.2,0.2-1.6,0.7c-0.4,0.4-0.6,1-0.7,1.8h4.4
			c0-0.8-0.2-1.4-0.5-1.9C773,965.8,772.5,965.6,771.8,965.6z"/>
		<path class="st8" d="M782.7,970.8c0,0.8-0.3,1.4-0.9,1.8c-0.6,0.4-1.4,0.6-2.4,0.6c-1.1,0-2-0.2-2.6-0.5v-1.2
			c0.4,0.2,0.8,0.4,1.3,0.5s0.9,0.2,1.3,0.2c0.7,0,1.2-0.1,1.5-0.3s0.5-0.5,0.5-1c0-0.3-0.2-0.6-0.4-0.8c-0.3-0.2-0.8-0.5-1.7-0.8
			c-0.8-0.3-1.3-0.5-1.7-0.8c-0.3-0.2-0.6-0.5-0.7-0.8c-0.2-0.3-0.3-0.6-0.3-1c0-0.7,0.3-1.2,0.8-1.6c0.6-0.4,1.3-0.6,2.3-0.6
			c0.9,0,1.8,0.2,2.7,0.6l-0.4,1c-0.8-0.3-1.6-0.5-2.3-0.5c-0.6,0-1.1,0.1-1.4,0.3c-0.3,0.2-0.5,0.4-0.5,0.8c0,0.2,0.1,0.4,0.2,0.6
			s0.3,0.3,0.6,0.4c0.3,0.2,0.8,0.3,1.5,0.6c1,0.4,1.7,0.7,2,1.1C782.5,969.7,782.7,970.2,782.7,970.8z"/>
		<path class="st8" d="M790,970.8c0,0.8-0.3,1.4-0.9,1.8c-0.6,0.4-1.4,0.6-2.4,0.6c-1.1,0-2-0.2-2.6-0.5v-1.2
			c0.4,0.2,0.8,0.4,1.3,0.5s0.9,0.2,1.3,0.2c0.7,0,1.2-0.1,1.5-0.3s0.5-0.5,0.5-1c0-0.3-0.2-0.6-0.4-0.8c-0.3-0.2-0.8-0.5-1.7-0.8
			c-0.8-0.3-1.3-0.5-1.7-0.8c-0.3-0.2-0.6-0.5-0.7-0.8c-0.2-0.3-0.3-0.6-0.3-1c0-0.7,0.3-1.2,0.8-1.6c0.6-0.4,1.3-0.6,2.3-0.6
			c0.9,0,1.8,0.2,2.7,0.6l-0.4,1c-0.8-0.3-1.6-0.5-2.3-0.5c-0.6,0-1.1,0.1-1.4,0.3s-0.5,0.4-0.5,0.8c0,0.2,0.1,0.4,0.2,0.6
			c0.1,0.2,0.3,0.3,0.6,0.4c0.3,0.2,0.8,0.3,1.5,0.6c1,0.4,1.7,0.7,2,1.1C789.8,969.7,790,970.2,790,970.8z"/>
		<path class="st8" d="M792.1,972.3c0-0.3,0.1-0.6,0.2-0.8s0.4-0.3,0.7-0.3s0.5,0.1,0.7,0.3s0.3,0.4,0.3,0.8c0,0.3-0.1,0.6-0.3,0.8
			s-0.4,0.3-0.7,0.3s-0.5-0.1-0.7-0.3C792.1,972.9,792.1,972.6,792.1,972.3z"/>
		<path class="st8" d="M799.4,973.2c-1.2,0-2.2-0.4-2.8-1.1c-0.7-0.8-1-1.8-1-3.2s0.3-2.5,1-3.3s1.6-1.2,2.9-1.2
			c0.4,0,0.8,0,1.2,0.1s0.7,0.2,0.9,0.3l-0.4,1.1c-0.3-0.1-0.6-0.2-0.9-0.3c-0.3-0.1-0.6-0.1-0.9-0.1c-1.7,0-2.6,1.1-2.6,3.3
			c0,1,0.2,1.8,0.6,2.4s1,0.8,1.9,0.8c0.7,0,1.4-0.2,2.2-0.4v1.1C800.9,973.1,800.2,973.2,799.4,973.2z"/>
		<path class="st8" d="M810.5,968.9c0,1.4-0.3,2.4-1,3.2s-1.6,1.2-2.9,1.2c-0.8,0-1.4-0.2-2-0.5s-1-0.8-1.3-1.5s-0.5-1.4-0.5-2.3
			c0-1.4,0.3-2.4,1-3.2s1.6-1.2,2.9-1.2c1.2,0,2.1,0.4,2.8,1.2S810.5,967.5,810.5,968.9z M804.1,968.9c0,1.1,0.2,1.9,0.7,2.4
			c0.4,0.6,1.1,0.8,1.9,0.8c0.8,0,1.5-0.3,1.9-0.8c0.4-0.6,0.7-1.4,0.7-2.4s-0.2-1.9-0.7-2.4c-0.4-0.6-1.1-0.8-1.9-0.8
			s-1.5,0.3-1.9,0.8C804.3,967,804.1,967.8,804.1,968.9z"/>
		<path class="st8" d="M822.8,973.1v-5.5c0-0.7-0.2-1.2-0.4-1.5c-0.3-0.3-0.7-0.5-1.3-0.5c-0.8,0-1.4,0.2-1.8,0.7
			c-0.4,0.5-0.6,1.2-0.6,2.1v4.7h-1.3v-5.5c0-0.7-0.2-1.2-0.4-1.5c-0.3-0.3-0.7-0.5-1.3-0.5c-0.8,0-1.4,0.3-1.8,0.7
			c-0.4,0.5-0.6,1.3-0.6,2.4v4.4H812v-8.5h1l0.2,1.2h0.1c0.3-0.4,0.6-0.7,1-1c0.4-0.2,0.9-0.3,1.5-0.3c1.3,0,2.2,0.5,2.6,1.4h0.1
			c0.3-0.4,0.6-0.8,1.1-1s1-0.4,1.6-0.4c0.9,0,1.7,0.3,2.1,0.7c0.5,0.5,0.7,1.3,0.7,2.4v5.5L822.8,973.1L822.8,973.1L822.8,973.1z"
			/>
	</g>
</g>
<rect x="93.3" y="208.9" class="st1" width="232.4" height="1.2"/>
<rect x="151.4" y="238" class="st1" width="174.3" height="1.2"/>
<rect x="93.3" y="150.8" class="st1" width="232.4" height="1.2"/>
<rect x="151.4" y="179.9" class="st1" width="174.3" height="1.2"/>
<rect x="87.5" y="92.7" class="st1" width="244" height="1.2"/>
<rect x="208.9" y="93.3" class="st1" width="1.2" height="232.4"/>
<rect x="92.7" y="87.5" class="st2" width="1.2" height="244"/>
<rect x="325.1" y="87.5" class="st1" width="1.2" height="244"/>
<rect x="69.4" y="267.2" transform="matrix(0.7071 -0.7071 0.7071 0.7071 -145.0422 185.3915)" class="st1" width="163.7" height="1.2"/>
<rect x="93.3" y="348.9" class="st3" width="58.1" height="3.5"/>
<rect x="151.4" y="348.9" class="st4" width="116.2" height="3.5"/>
<text transform="matrix(1 0 0 1 200.3369 375.6685)" class="st4 st5 st6">W</text>
<text transform="matrix(1 0 0 1 115.4858 375.6685)" class="st4 st5 st6">X</text>
<text transform="matrix(1 0 0 1 102.8352 392.3696)" class="st4 st5 st7">(W/2)</text>
<rect x="93.3" y="267" class="st2" width="232.4" height="1.2"/>
<rect x="87.5" y="325.1" class="st2" width="244" height="1.2"/>
<rect x="150.8" y="93.3" class="st2" width="1.2" height="232.4"/>
<rect x="267" y="93.3" class="st2" width="1.2" height="232.4"/>
<path class="st8" d="M209.5,151.4c-32,0-58.1,26.1-58.1,58.1s26.1,58.1,58.1,58.1s58.1-26.1,58.1-58.1S241.5,151.4,209.5,151.4z
	 M157.3,209.5c0-7.6,1.6-14.8,4.5-21.3l24.9,68.3C169.3,248,157.3,230.2,157.3,209.5z M209.5,261.7c-5.1,0-10.1-0.8-14.8-2.1
	l15.7-45.5l16.1,44c0.1,0.3,0.2,0.5,0.4,0.7C221.4,260.7,215.6,261.7,209.5,261.7z M216.7,185c3.1-0.2,6-0.5,6-0.5
	c2.8-0.3,2.5-4.5-0.3-4.3c0,0-8.5,0.7-13.9,0.7c-5.1,0-13.8-0.7-13.8-0.7c-2.8-0.2-3.1,4.1-0.3,4.3c0,0,2.7,0.3,5.5,0.5l8.1,22.3
	l-11.4,34.3l-19-56.6c3.1-0.2,6-0.5,6-0.5c2.8-0.3,2.5-4.5-0.3-4.3c0,0-8.5,0.7-13.9,0.7c-1,0-2.1,0-3.4-0.1
	c9.3-14.2,25.4-23.5,43.6-23.5c13.6,0,26,5.2,35.3,13.7c-0.2,0-0.4,0-0.7,0c-5.1,0-8.8,4.5-8.8,9.3c0,4.3,2.5,7.9,5.1,12.3
	c2,3.5,4.3,7.9,4.3,14.4c0,4.5-1.3,10.1-4,16.9l-5.2,17.4L216.7,185z M235.8,254.7l16-46.1c3-7.5,4-13.4,4-18.7
	c0-1.9-0.1-3.7-0.4-5.4c4.1,7.4,6.4,16,6.4,25.1C261.7,228.8,251.3,245.6,235.8,254.7z"/>
<text transform="matrix(1 0 0 1 534.0001 940.9)" class="st4 st5 st6">Vertical logotype </text>
<text transform="matrix(1 0 0 1 534.0001 961.5)" class="st4 st5 st6">minimum width: </text>
<text transform="matrix(1 0 0 1 92.6001 940.9)" class="st4 st5 st6">Horizontal logotype </text>
<text transform="matrix(1 0 0 1 92.6001 961.5)" class="st4 st5 st6">minimum width: </text>
<rect x="291.4" y="965.1" class="st4" width="139.6" height="3.5"/>
<rect x="714.8" y="987.1" class="st4" width="109.1" height="3.5"/>
<line class="st9" x1="92.6" y1="851" x2="912.5" y2="851"/>
<text transform="matrix(1 0 0 1 750.2191 1016.0607)" class="st4 st5 st6">88px</text>
<text transform="matrix(1 0 0 1 338.0034 994.0607)" class="st4 st5 st6">102px</text>
</svg>
