<?xml version="1.0" encoding="utf-8"?>
<!-- Generator: Adobe Illustrator 18.0.0, SVG Export Plug-In . SVG Version: 6.00 Build 0)  -->
<!DOCTYPE svg PUBLIC "-//W3C//DTD SVG 1.1//EN" "http://www.w3.org/Graphics/SVG/1.1/DTD/svg11.dtd">
<svg version="1.1" id="Layer_1" xmlns="http://www.w3.org/2000/svg" xmlns:xlink="http://www.w3.org/1999/xlink" x="0px" y="0px"
	 viewBox="0 0 1000 400" enable-background="new 0 0 1000 400" xml:space="preserve">
<rect fill="#FFFFFF" width="1000" height="400"/>
<g>
	<path fill="#0087BE" d="M500,124.7c-27.6,0-50,22.4-50,50c0,27.6,22.4,50,50,50c27.6,0,50-22.4,50-50
		C550,147.1,527.6,124.7,500,124.7z M455,174.7c0-6.5,1.4-12.7,3.9-18.3l21.4,58.8C465.4,207.8,455,192.5,455,174.7z M500,219.6
		c-4.4,0-8.7-0.6-12.7-1.8l13.5-39.2l13.8,37.9c0.1,0.2,0.2,0.4,0.3,0.6C510.3,218.7,505.2,219.6,500,219.6z M506.2,153.6
		c2.7-0.1,5.1-0.4,5.1-0.4c2.4-0.3,2.1-3.8-0.3-3.7c0,0-7.3,0.6-12,0.6c-4.4,0-11.8-0.6-11.8-0.6c-2.4-0.1-2.7,3.6-0.3,3.7
		c0,0,2.3,0.3,4.7,0.4l7,19.2l-9.8,29.5l-16.4-48.7c2.7-0.1,5.1-0.4,5.1-0.4c2.4-0.3,2.1-3.8-0.3-3.7c0,0-7.3,0.6-12,0.6
		c-0.8,0-1.8,0-2.9-0.1c8-12.2,21.9-20.3,37.6-20.3c11.7,0,22.4,4.5,30.4,11.8c-0.2,0-0.4,0-0.6,0c-4.4,0-7.5,3.8-7.5,8
		c0,3.7,2.1,6.8,4.4,10.5c1.7,3,3.7,6.8,3.7,12.4c0,3.8-1.1,8.7-3.4,14.5l-4.5,15L506.2,153.6z M522.6,213.5l13.7-39.7
		c2.6-6.4,3.4-11.5,3.4-16.1c0-1.7-0.1-3.2-0.3-4.6c3.5,6.4,5.5,13.8,5.5,21.6C545,191.2,536,205.7,522.6,213.5z"/>
	<g>
		<path fill="#0087BE" d="M380.5,274.7H377l-6.2-20.6c-0.3-0.9-0.6-2.1-1-3.5c-0.4-1.4-0.6-2.2-0.6-2.5c-0.3,1.9-0.8,3.9-1.5,6.1
			l-6,20.5h-3.5l-8.2-30.8h3.8l4.9,19c0.7,2.7,1.2,5.1,1.5,7.2c0.4-2.6,0.9-5.1,1.7-7.5l5.5-18.7h3.8l5.8,18.9
			c0.7,2.2,1.2,4.6,1.7,7.4c0.3-2,0.8-4.4,1.5-7.3l4.8-19h3.8L380.5,274.7z"/>
		<path fill="#0087BE" d="M410.6,263.2c0,3.8-0.9,6.7-2.8,8.8c-1.9,2.1-4.5,3.2-7.9,3.2c-2.1,0-3.9-0.5-5.5-1.5
			c-1.6-1-2.8-2.4-3.7-4.2c-0.9-1.8-1.3-3.9-1.3-6.4c0-3.8,0.9-6.7,2.8-8.8c1.9-2.1,4.5-3.1,7.8-3.1c3.2,0,5.8,1.1,7.7,3.2
			C409.7,256.6,410.6,259.5,410.6,263.2z M393,263.2c0,2.9,0.6,5.2,1.8,6.7c1.2,1.5,2.9,2.3,5.2,2.3c2.3,0,4-0.8,5.2-2.3
			c1.2-1.5,1.8-3.8,1.8-6.7c0-2.9-0.6-5.2-1.8-6.7c-1.2-1.5-2.9-2.3-5.3-2.3c-2.3,0-4,0.8-5.2,2.3C393.6,258,393,260.2,393,263.2z"
			/>
		<path fill="#0087BE" d="M425.8,251.2c1,0,1.9,0.1,2.8,0.3l-0.5,3.2c-1-0.2-1.8-0.3-2.5-0.3c-1.9,0-3.5,0.8-4.8,2.3
			c-1.3,1.5-2,3.4-2,5.7v12.4h-3.5v-23.1h2.9l0.4,4.3h0.2c0.9-1.5,1.9-2.7,3.1-3.5C423,251.6,424.3,251.2,425.8,251.2z"/>
		<path fill="#0087BE" d="M447.5,271.6h-0.2c-1.6,2.3-4,3.5-7.2,3.5c-3,0-5.4-1-7-3.1c-1.7-2.1-2.5-5-2.5-8.8c0-3.8,0.8-6.8,2.5-8.9
			c1.7-2.1,4-3.2,7-3.2c3.1,0,5.5,1.1,7.2,3.4h0.3l-0.1-1.7l-0.1-1.6V242h3.5v32.8h-2.8L447.5,271.6z M440.5,272.2
			c2.4,0,4.1-0.6,5.2-1.9c1.1-1.3,1.6-3.4,1.6-6.3v-0.7c0-3.3-0.5-5.6-1.6-7c-1.1-1.4-2.8-2.1-5.2-2.1c-2,0-3.6,0.8-4.7,2.4
			c-1.1,1.6-1.6,3.8-1.6,6.7c0,2.9,0.5,5.2,1.6,6.7C436.8,271.5,438.4,272.2,440.5,272.2z"/>
		<path fill="#0087BE" d="M476.9,252.9c0,3.1-1.1,5.5-3.2,7.2c-2.1,1.7-5.2,2.5-9.1,2.5H461v12.1h-3.6v-30.8h8
			C473.1,243.9,476.9,246.9,476.9,252.9z M461,259.5h3.2c3.2,0,5.5-0.5,6.9-1.5c1.4-1,2.1-2.7,2.1-4.9c0-2-0.7-3.6-2-4.5
			c-1.3-1-3.4-1.5-6.2-1.5h-4V259.5z"/>
		<path fill="#0087BE" d="M491.9,251.2c1,0,1.9,0.1,2.8,0.3l-0.5,3.2c-1-0.2-1.8-0.3-2.5-0.3c-1.9,0-3.5,0.8-4.8,2.3
			c-1.3,1.5-2,3.4-2,5.7v12.4h-3.5v-23.1h2.9l0.4,4.3h0.2c0.9-1.5,1.9-2.7,3.1-3.5C489.1,251.6,490.4,251.2,491.9,251.2z"/>
		<path fill="#0087BE" d="M507.4,275.2c-3.4,0-6.1-1-8.1-3.1c-2-2.1-3-5-3-8.7c0-3.7,0.9-6.7,2.7-8.9c1.8-2.2,4.3-3.3,7.4-3.3
			c2.9,0,5.2,1,6.9,2.9c1.7,1.9,2.5,4.4,2.5,7.5v2.2H500c0.1,2.7,0.8,4.8,2.1,6.2c1.3,1.4,3.1,2.1,5.5,2.1c2.5,0,4.9-0.5,7.4-1.6
			v3.1c-1.2,0.5-2.4,0.9-3.5,1.1C510.3,275,509,275.2,507.4,275.2z M506.5,254.2c-1.9,0-3.3,0.6-4.4,1.8c-1.1,1.2-1.8,2.9-1.9,5
			h12.1c0-2.2-0.5-3.9-1.5-5.1C509.7,254.7,508.3,254.2,506.5,254.2z"/>
		<path fill="#0087BE" d="M536.3,268.4c0,2.1-0.8,3.8-2.4,5c-1.6,1.2-3.8,1.7-6.7,1.7c-3.1,0-5.4-0.5-7.2-1.5v-3.2
			c1.1,0.6,2.3,1,3.6,1.3c1.3,0.3,2.5,0.5,3.7,0.5c1.8,0,3.2-0.3,4.2-0.9c1-0.6,1.5-1.5,1.5-2.7c0-0.9-0.4-1.7-1.2-2.3
			c-0.8-0.6-2.3-1.4-4.6-2.3c-2.1-0.8-3.7-1.5-4.6-2.1c-0.9-0.6-1.6-1.3-2-2c-0.4-0.8-0.7-1.7-0.7-2.7c0-1.9,0.8-3.4,2.3-4.5
			c1.5-1.1,3.6-1.6,6.3-1.6c2.5,0,4.9,0.5,7.3,1.5l-1.2,2.8c-2.3-1-4.4-1.4-6.3-1.4c-1.7,0-2.9,0.3-3.7,0.8
			c-0.8,0.5-1.3,1.2-1.3,2.1c0,0.6,0.2,1.1,0.5,1.6c0.3,0.4,0.8,0.8,1.5,1.2c0.7,0.4,2,1,4,1.7c2.7,1,4.6,2,5.5,3
			C535.8,265.6,536.3,266.9,536.3,268.4z"/>
		<path fill="#0087BE" d="M556.4,268.4c0,2.1-0.8,3.8-2.4,5c-1.6,1.2-3.8,1.7-6.7,1.7c-3.1,0-5.4-0.5-7.2-1.5v-3.2
			c1.1,0.6,2.3,1,3.6,1.3c1.3,0.3,2.5,0.5,3.7,0.5c1.8,0,3.2-0.3,4.2-0.9c1-0.6,1.5-1.5,1.5-2.7c0-0.9-0.4-1.7-1.2-2.3
			c-0.8-0.6-2.3-1.4-4.6-2.3c-2.1-0.8-3.7-1.5-4.6-2.1c-0.9-0.6-1.6-1.3-2-2c-0.4-0.8-0.7-1.7-0.7-2.7c0-1.9,0.8-3.4,2.3-4.5
			c1.5-1.1,3.6-1.6,6.3-1.6c2.5,0,4.9,0.5,7.3,1.5l-1.2,2.8c-2.3-1-4.4-1.4-6.3-1.4c-1.7,0-2.9,0.3-3.7,0.8
			c-0.8,0.5-1.3,1.2-1.3,2.1c0,0.6,0.2,1.1,0.5,1.6c0.3,0.4,0.8,0.8,1.5,1.2c0.7,0.4,2,1,4,1.7c2.7,1,4.6,2,5.5,3
			C556,265.6,556.4,266.9,556.4,268.4z"/>
		<path fill="#0087BE" d="M562.1,272.5c0-0.9,0.2-1.7,0.6-2.1c0.4-0.5,1-0.7,1.8-0.7c0.8,0,1.4,0.2,1.9,0.7c0.5,0.5,0.7,1.2,0.7,2.1
			c0,0.9-0.2,1.6-0.7,2.1c-0.5,0.5-1.1,0.7-1.9,0.7c-0.7,0-1.3-0.2-1.8-0.7C562.3,274.2,562.1,273.5,562.1,272.5z"/>
		<path fill="#0087BE" d="M582.1,275.2c-3.3,0-5.9-1-7.8-3.1c-1.8-2.1-2.7-5-2.7-8.7c0-3.9,0.9-6.8,2.8-8.9c1.9-2.1,4.5-3.2,7.9-3.2
			c1.1,0,2.2,0.1,3.3,0.4c1.1,0.2,2,0.5,2.6,0.8l-1.1,3c-0.8-0.3-1.6-0.6-2.5-0.8c-0.9-0.2-1.7-0.3-2.4-0.3c-4.7,0-7,3-7,9
			c0,2.8,0.6,5,1.7,6.5c1.1,1.5,2.8,2.3,5.1,2.3c1.9,0,3.9-0.4,5.9-1.2v3.1C586.4,274.8,584.4,275.2,582.1,275.2z"/>
		<path fill="#0087BE" d="M612.7,263.2c0,3.8-0.9,6.7-2.8,8.8c-1.9,2.1-4.5,3.2-7.9,3.2c-2.1,0-3.9-0.5-5.5-1.5
			c-1.6-1-2.8-2.4-3.7-4.2c-0.9-1.8-1.3-3.9-1.3-6.4c0-3.8,0.9-6.7,2.8-8.8c1.9-2.1,4.5-3.1,7.8-3.1c3.2,0,5.8,1.1,7.7,3.2
			C611.7,256.6,612.7,259.5,612.7,263.2z M595.1,263.2c0,2.9,0.6,5.2,1.8,6.7c1.2,1.5,2.9,2.3,5.2,2.3c2.3,0,4-0.8,5.2-2.3
			c1.2-1.5,1.8-3.8,1.8-6.7c0-2.9-0.6-5.2-1.8-6.7c-1.2-1.5-2.9-2.3-5.3-2.3c-2.3,0-4,0.8-5.2,2.3
			C595.7,258,595.1,260.2,595.1,263.2z"/>
		<path fill="#0087BE" d="M646.5,274.7v-15c0-1.8-0.4-3.2-1.2-4.1c-0.8-0.9-2-1.4-3.7-1.4c-2.2,0-3.8,0.6-4.8,1.9
			c-1,1.2-1.6,3.2-1.6,5.8v12.9h-3.5v-15c0-1.8-0.4-3.2-1.2-4.1c-0.8-0.9-2-1.4-3.7-1.4c-2.2,0-3.8,0.7-4.8,2
			c-1,1.3-1.5,3.5-1.5,6.5v12.1h-3.5v-23.1h2.8l0.6,3.2h0.2c0.7-1.1,1.6-2,2.8-2.6c1.2-0.6,2.5-0.9,4-0.9c3.6,0,6,1.3,7.1,3.9h0.2
			c0.7-1.2,1.7-2.2,3-2.9c1.3-0.7,2.8-1.1,4.5-1.1c2.6,0,4.6,0.7,5.9,2c1.3,1.3,1.9,3.5,1.9,6.4v15.1H646.5z"/>
	</g>
</g>
</svg>
